<ttFont>
<head>
    <!-- Most of this table will be recalculated by the compiler -->
    <tableVersion value="1.0"/>
    <fontRevision value="1.0"/>
    <checkSumAdjustment value="0x90f81d18"/>
    <magicNumber value="0x5f0f3cf5"/>
    <flags value="00000000 00011011"/>
    <unitsPerEm value="1000"/>
    <created value="Sat Dec  6 13:43:37 2025"/>
    <modified value="Sat Dec  6 13:50:19 2025"/>
    <xMin value="-31"/>
    <yMin value="-250"/>
    <xMax value="1026"/>
    <yMax value="750"/>
    <macStyle value="00000000 00000010"/>
    <lowestRecPPEM value="6"/>
    <fontDirectionHint value="2"/>
    <indexToLocFormat value="0"/>
    <glyphDataFormat value="0"/>
  </head>
    <TTGlyph name="A" xMin="34" yMin="0" xMax="706" yMax="714">
      <contour>
        <pt x="520" y="697" on="1"/>
        <pt x="527" y="708" on="0"/>
        <pt x="537" y="714" on="0"/>
        <pt x="545" y="714" on="1"/>
        <pt x="553" y="714" on="0"/>
        <pt x="560" y="707" on="0"/>
        <pt x="562" y="692" on="1"/>
        <pt x="623" y="68" on="1"/>
        <pt x="624" y="57" on="0"/>
        <pt x="627" y="42" on="0"/>
        <pt x="639" y="33" on="0"/>
        <pt x="661" y="29" on="0"/>
        <pt x="682" y="29" on="1"/>
        <pt x="693" y="29" on="0"/>
        <pt x="706" y="27" on="0"/>
        <pt x="706" y="19" on="1"/>
        <pt x="706" y="5" on="0"/>
        <pt x="693" y="0" on="0"/>
        <pt x="688" y="0" on="1"/>
        <pt x="687" y="0" on="0"/>
        <pt x="628" y="2" on="0"/>
        <pt x="582" y="2" on="1"/>
        <pt x="525" y="2" on="1"/>
        <pt x="512" y="2" on="0"/>
        <pt x="484" y="0" on="0"/>
        <pt x="471" y="0" on="1"/>
        <pt x="466" y="0" on="0"/>
        <pt x="456" y="3" on="0"/>
        <pt x="456" y="11" on="1"/>
        <pt x="456" y="25" on="0"/>
        <pt x="470" y="29" on="0"/>
        <pt x="478" y="29" on="1"/>
        <pt x="484" y="29" on="0"/>
        <pt x="506" y="31" on="0"/>
        <pt x="529" y="37" on="0"/>
        <pt x="545" y="50" on="0"/>
        <pt x="545" y="61" on="1"/>
        <pt x="545" y="68" on="0"/>
        <pt x="541" y="109" on="0"/>
        <pt x="536" y="157" on="0"/>
        <pt x="531" y="200" on="0"/>
        <pt x="530" y="210" on="1"/>
        <pt x="529" y="217" on="0"/>
        <pt x="529" y="229" on="0"/>
        <pt x="528" y="236" on="1"/>
        <pt x="273" y="236" on="1"/>
        <pt x="197" y="110" on="1"/>
        <pt x="187" y="93" on="0"/>
        <pt x="178" y="74" on="0"/>
        <pt x="178" y="63" on="1"/>
        <pt x="178" y="45" on="0"/>
        <pt x="203" y="31" on="0"/>
        <pt x="220" y="29" on="1"/>
        <pt x="225" y="29" on="0"/>
        <pt x="234" y="26" on="0"/>
        <pt x="234" y="19" on="1"/>
        <pt x="234" y="5" on="0"/>
        <pt x="221" y="0" on="0"/>
        <pt x="216" y="0" on="1"/>
        <pt x="195" y="0" on="0"/>
        <pt x="149" y="2" on="0"/>
        <pt x="127" y="2" on="1"/>
        <pt x="120" y="2" on="0"/>
        <pt x="98" y="1" on="0"/>
        <pt x="75" y="1" on="0"/>
        <pt x="53" y="0" on="0"/>
        <pt x="46" y="0" on="1"/>
        <pt x="34" y="0" on="0"/>
        <pt x="34" y="10" on="1"/>
        <pt x="34" y="24" on="0"/>
        <pt x="45" y="28" on="0"/>
        <pt x="53" y="29" on="1"/>
        <pt x="89" y="31" on="0"/>
        <pt x="144" y="66" on="0"/>
        <pt x="170" y="111" on="1"/>
      </contour>
      <contour>
        <pt x="525" y="265" on="1"/>
        <pt x="491" y="601" on="1"/>
        <pt x="290" y="265" on="1"/>
      </contour>
    </TTGlyph>
    <TTGlyph name="B" xMin="48" yMin="0" xMax="743" yMax="683">
      <contour>
        <pt x="304" y="365" on="1"/>
        <pt x="448" y="365" on="1"/>
        <pt x="498" y="365" on="0"/>
        <pt x="576" y="400" on="0"/>
        <pt x="632" y="454" on="0"/>
        <pt x="661" y="519" on="0"/>
        <pt x="661" y="549" on="1"/>
        <pt x="661" y="552" on="0"/>
        <pt x="657" y="586" on="0"/>
        <pt x="636" y="624" on="0"/>
        <pt x="590" y="654" on="0"/>
        <pt x="548" y="654" on="1"/>
        <pt x="418" y="654" on="1"/>
        <pt x="403" y="654" on="0"/>
        <pt x="386" y="652" on="0"/>
        <pt x="376" y="645" on="0"/>
        <pt x="369" y="629" on="0"/>
        <pt x="366" y="615" on="1"/>
      </contour>
      <contour>
        <pt x="535" y="357" on="1"/>
        <pt x="565" y="354" on="0"/>
        <pt x="621" y="333" on="0"/>
        <pt x="663" y="297" on="0"/>
        <pt x="688" y="248" on="0"/>
        <pt x="688" y="217" on="1"/>
        <pt x="688" y="179" on="0"/>
        <pt x="646" y="102" on="0"/>
        <pt x="573" y="39" on="0"/>
        <pt x="474" y="0" on="0"/>
        <pt x="417" y="0" on="1"/>
        <pt x="74" y="0" on="1"/>
        <pt x="59" y="0" on="0"/>
        <pt x="48" y="3" on="0"/>
        <pt x="48" y="11" on="1"/>
        <pt x="48" y="25" on="0"/>
        <pt x="63" y="29" on="0"/>
        <pt x="77" y="29" on="1"/>
        <pt x="103" y="29" on="0"/>
        <pt x="133" y="33" on="0"/>
        <pt x="148" y="44" on="0"/>
        <pt x="155" y="61" on="0"/>
        <pt x="158" y="74" on="1"/>
        <pt x="293" y="612" on="1"/>
        <pt x="296" y="623" on="0"/>
        <pt x="297" y="633" on="0"/>
        <pt x="297" y="635" on="1"/>
        <pt x="297" y="639" on="0"/>
        <pt x="295" y="646" on="0"/>
        <pt x="284" y="651" on="0"/>
        <pt x="259" y="654" on="0"/>
        <pt x="236" y="654" on="1"/>
        <pt x="225" y="654" on="0"/>
        <pt x="212" y="656" on="0"/>
        <pt x="212" y="664" on="1"/>
        <pt x="212" y="678" on="0"/>
        <pt x="226" y="683" on="0"/>
        <pt x="240" y="683" on="1"/>
        <pt x="561" y="683" on="1"/>
        <pt x="603" y="683" on="0"/>
        <pt x="671" y="662" on="0"/>
        <pt x="718" y="625" on="0"/>
        <pt x="743" y="574" on="0"/>
        <pt x="743" y="545" on="1"/>
        <pt x="743" y="511" on="0"/>
        <pt x="709" y="449" on="0"/>
        <pt x="651" y="399" on="0"/>
        <pt x="576" y="365" on="0"/>
      </contour>
      <contour>
        <pt x="393" y="29" on="1"/>
        <pt x="440" y="29" on="0"/>
        <pt x="517" y="64" on="0"/>
        <pt x="573" y="120" on="0"/>
        <pt x="604" y="191" on="0"/>
        <pt x="604" y="227" on="1"/>
        <pt x="604" y="230" on="0"/>
        <pt x="600" y="268" on="0"/>
        <pt x="578" y="310" on="0"/>
        <pt x="530" y="345" on="0"/>
        <pt x="486" y="345" on="1"/>
        <pt x="298" y="345" on="1"/>
        <pt x="228" y="63" on="1"/>
        <pt x="226" y="56" on="0"/>
        <pt x="224" y="46" on="0"/>
        <pt x="224" y="41" on="1"/>
        <pt x="224" y="35" on="0"/>
        <pt x="228" y="31" on="0"/>
        <pt x="236" y="30" on="1"/>
        <pt x="241" y="29" on="0"/>
        <pt x="247" y="29" on="0"/>
        <pt x="258" y="29" on="1"/>
      </contour>
    </TTGlyph>
    <TTGlyph name="C" xMin="50" yMin="-21" xMax="747" yMax="704">
      <contour>
        <pt x="684" y="440" on="1"/>
        <pt x="681" y="426" on="0"/>
        <pt x="676" y="421" on="0"/>
        <pt x="668" y="421" on="1"/>
        <pt x="666" y="421" on="0"/>
        <pt x="655" y="423" on="0"/>
        <pt x="655" y="430" on="1"/>
        <pt x="655" y="433" on="0"/>
        <pt x="658" y="462" on="0"/>
        <pt x="658" y="482" on="1"/>
        <pt x="658" y="520" on="0"/>
        <pt x="639" y="590" on="0"/>
        <pt x="600" y="643" on="0"/>
        <pt x="540" y="675" on="0"/>
        <pt x="499" y="675" on="1"/>
        <pt x="463" y="675" on="0"/>
        <pt x="394" y="656" on="0"/>
        <pt x="330" y="623" on="0"/>
        <pt x="276" y="579" on="0"/>
        <pt x="255" y="555" on="1"/>
        <pt x="213" y="506" on="0"/>
        <pt x="164" y="397" on="0"/>
        <pt x="139" y="301" on="0"/>
        <pt x="132" y="230" on="0"/>
        <pt x="132" y="218" on="1"/>
        <pt x="132" y="165" on="0"/>
        <pt x="164" y="86" on="0"/>
        <pt x="218" y="34" on="0"/>
        <pt x="290" y="8" on="0"/>
        <pt x="330" y="8" on="1"/>
        <pt x="368" y="8" on="0"/>
        <pt x="452" y="36" on="0"/>
        <pt x="530" y="94" on="0"/>
        <pt x="594" y="181" on="0"/>
        <pt x="611" y="239" on="1"/>
        <pt x="613" y="242" on="0"/>
        <pt x="616" y="249" on="0"/>
        <pt x="623" y="249" on="1"/>
        <pt x="625" y="249" on="0"/>
        <pt x="634" y="247" on="0"/>
        <pt x="634" y="240" on="1"/>
        <pt x="634" y="237" on="0"/>
        <pt x="623" y="201" on="0"/>
        <pt x="597" y="150" on="0"/>
        <pt x="554" y="89" on="0"/>
        <pt x="521" y="62" on="1"/>
        <pt x="477" y="25" on="0"/>
        <pt x="373" y="-21" on="0"/>
        <pt x="313" y="-21" on="1"/>
        <pt x="258" y="-21" on="0"/>
        <pt x="162" y="17" on="0"/>
        <pt x="91" y="87" on="0"/>
        <pt x="50" y="187" on="0"/>
        <pt x="50" y="250" on="1"/>
        <pt x="50" y="309" on="0"/>
        <pt x="85" y="422" on="0"/>
        <pt x="147" y="523" on="0"/>
        <pt x="231" y="608" on="0"/>
        <pt x="329" y="669" on="0"/>
        <pt x="436" y="704" on="0"/>
        <pt x="490" y="704" on="1"/>
        <pt x="547" y="704" on="0"/>
        <pt x="629" y="655" on="0"/>
        <pt x="655" y="610" on="1"/>
        <pt x="724" y="694" on="1"/>
        <pt x="730" y="702" on="0"/>
        <pt x="736" y="704" on="0"/>
        <pt x="738" y="704" on="1"/>
        <pt x="740" y="704" on="0"/>
        <pt x="747" y="702" on="0"/>
        <pt x="747" y="695" on="1"/>
      </contour>
    </TTGlyph>
    <TTGlyph name="D" xMin="47" yMin="0" xMax="789" yMax="683">
      <contour>
        <pt x="292" y="612" on="1"/>
        <pt x="295" y="623" on="0"/>
        <pt x="296" y="633" on="0"/>
        <pt x="296" y="635" on="1"/>
        <pt x="296" y="639" on="0"/>
        <pt x="294" y="646" on="0"/>
        <pt x="283" y="651" on="0"/>
        <pt x="258" y="654" on="0"/>
        <pt x="235" y="654" on="1"/>
        <pt x="224" y="654" on="0"/>
        <pt x="211" y="656" on="0"/>
        <pt x="211" y="664" on="1"/>
        <pt x="211" y="678" on="0"/>
        <pt x="225" y="683" on="0"/>
        <pt x="239" y="683" on="1"/>
        <pt x="560" y="683" on="1"/>
        <pt x="614" y="683" on="0"/>
        <pt x="699" y="645" on="0"/>
        <pt x="758" y="578" on="0"/>
        <pt x="789" y="486" on="0"/>
        <pt x="789" y="432" on="1"/>
        <pt x="789" y="376" on="0"/>
        <pt x="758" y="269" on="0"/>
        <pt x="703" y="173" on="0"/>
        <pt x="628" y="92" on="0"/>
        <pt x="539" y="33" on="0"/>
        <pt x="440" y="0" on="0"/>
        <pt x="390" y="0" on="1"/>
        <pt x="73" y="0" on="1"/>
        <pt x="58" y="0" on="0"/>
        <pt x="47" y="3" on="0"/>
        <pt x="47" y="11" on="1"/>
        <pt x="47" y="25" on="0"/>
        <pt x="62" y="29" on="0"/>
        <pt x="76" y="29" on="1"/>
        <pt x="102" y="29" on="0"/>
        <pt x="132" y="33" on="0"/>
        <pt x="147" y="44" on="0"/>
        <pt x="154" y="61" on="0"/>
        <pt x="157" y="74" on="1"/>
      </contour>
      <contour>
        <pt x="230" y="63" on="1"/>
        <pt x="228" y="56" on="0"/>
        <pt x="226" y="46" on="0"/>
        <pt x="226" y="41" on="1"/>
        <pt x="226" y="35" on="0"/>
        <pt x="230" y="31" on="0"/>
        <pt x="238" y="30" on="1"/>
        <pt x="243" y="29" on="0"/>
        <pt x="249" y="29" on="0"/>
        <pt x="260" y="29" on="1"/>
        <pt x="374" y="29" on="1"/>
        <pt x="417" y="29" on="0"/>
        <pt x="488" y="52" on="0"/>
        <pt x="544" y="84" on="0"/>
        <pt x="583" y="119" on="0"/>
        <pt x="593" y="131" on="1"/>
        <pt x="629" y="172" on="0"/>
        <pt x="675" y="273" on="0"/>
        <pt x="701" y="368" on="0"/>
        <pt x="710" y="446" on="0"/>
        <pt x="710" y="465" on="1"/>
        <pt x="710" y="517" on="0"/>
        <pt x="680" y="589" on="0"/>
        <pt x="630" y="634" on="0"/>
        <pt x="565" y="654" on="0"/>
        <pt x="530" y="654" on="1"/>
        <pt x="420" y="654" on="1"/>
        <pt x="405" y="654" on="0"/>
        <pt x="388" y="652" on="0"/>
        <pt x="378" y="645" on="0"/>
        <pt x="371" y="629" on="0"/>
        <pt x="368" y="615" on="1"/>
      </contour>
    </TTGlyph>
    <TTGlyph name="E" xMin="46" yMin="0" xMax="753" yMax="681">
      <contour>
        <pt x="604" y="17" on="1"/>
        <pt x="599" y="5" on="0"/>
        <pt x="591" y="0" on="0"/>
        <pt x="574" y="0" on="1"/>
        <pt x="72" y="0" on="1"/>
        <pt x="57" y="0" on="0"/>
        <pt x="46" y="3" on="0"/>
        <pt x="46" y="11" on="1"/>
        <pt x="46" y="25" on="0"/>
        <pt x="61" y="29" on="0"/>
        <pt x="75" y="29" on="1"/>
        <pt x="101" y="29" on="0"/>
        <pt x="131" y="33" on="0"/>
        <pt x="146" y="44" on="0"/>
        <pt x="153" y="61" on="0"/>
        <pt x="156" y="74" on="1"/>
        <pt x="291" y="614" on="1"/>
        <pt x="295" y="629" on="0"/>
        <pt x="295" y="634" on="1"/>
        <pt x="295" y="638" on="0"/>
        <pt x="293" y="645" on="0"/>
        <pt x="281" y="649" on="0"/>
        <pt x="256" y="652" on="0"/>
        <pt x="233" y="652" on="1"/>
        <pt x="220" y="652" on="0"/>
        <pt x="209" y="655" on="0"/>
        <pt x="209" y="663" on="1"/>
        <pt x="209" y="677" on="0"/>
        <pt x="224" y="681" on="0"/>
        <pt x="238" y="681" on="1"/>
        <pt x="726" y="681" on="1"/>
        <pt x="740" y="681" on="0"/>
        <pt x="753" y="678" on="0"/>
        <pt x="753" y="670" on="1"/>
        <pt x="753" y="668" on="0"/>
        <pt x="751" y="657" on="0"/>
        <pt x="751" y="655" on="1"/>
        <pt x="730" y="480" on="1"/>
        <pt x="728" y="466" on="0"/>
        <pt x="722" y="458" on="0"/>
        <pt x="717" y="458" on="1"/>
        <pt x="706" y="458" on="0"/>
        <pt x="706" y="469" on="1"/>
        <pt x="706" y="473" on="0"/>
        <pt x="708" y="481" on="1"/>
        <pt x="711" y="506" on="0"/>
        <pt x="712" y="542" on="0"/>
        <pt x="712" y="543" on="1"/>
        <pt x="712" y="572" on="0"/>
        <pt x="700" y="613" on="0"/>
        <pt x="668" y="639" on="0"/>
        <pt x="610" y="652" on="0"/>
        <pt x="564" y="652" on="1"/>
        <pt x="421" y="652" on="1"/>
        <pt x="406" y="652" on="0"/>
        <pt x="388" y="650" on="0"/>
        <pt x="378" y="642" on="0"/>
        <pt x="372" y="627" on="0"/>
        <pt x="369" y="614" on="1"/>
        <pt x="307" y="368" on="1"/>
        <pt x="402" y="368" on="1"/>
        <pt x="435" y="368" on="0"/>
        <pt x="478" y="377" on="0"/>
        <pt x="506" y="400" on="0"/>
        <pt x="524" y="438" on="0"/>
        <pt x="531" y="467" on="1"/>
        <pt x="534" y="478" on="0"/>
        <pt x="538" y="485" on="0"/>
        <pt x="545" y="485" on="1"/>
        <pt x="555" y="485" on="0"/>
        <pt x="555" y="475" on="1"/>
        <pt x="498" y="243" on="1"/>
        <pt x="495" y="232" on="0"/>
        <pt x="491" y="222" on="0"/>
        <pt x="484" y="222" on="1"/>
        <pt x="473" y="222" on="0"/>
        <pt x="473" y="232" on="1"/>
        <pt x="473" y="237" on="0"/>
        <pt x="476" y="243" on="1"/>
        <pt x="481" y="266" on="0"/>
        <pt x="483" y="284" on="0"/>
        <pt x="483" y="292" on="1"/>
        <pt x="483" y="303" on="0"/>
        <pt x="479" y="321" on="0"/>
        <pt x="462" y="333" on="0"/>
        <pt x="428" y="339" on="0"/>
        <pt x="399" y="339" on="1"/>
        <pt x="300" y="339" on="1"/>
        <pt x="231" y="63" on="1"/>
        <pt x="229" y="56" on="0"/>
        <pt x="227" y="46" on="0"/>
        <pt x="227" y="41" on="1"/>
        <pt x="227" y="35" on="0"/>
        <pt x="231" y="31" on="0"/>
        <pt x="239" y="30" on="1"/>
        <pt x="244" y="29" on="0"/>
        <pt x="250" y="29" on="0"/>
        <pt x="261" y="29" on="1"/>
        <pt x="407" y="29" on="1"/>
        <pt x="467" y="29" on="0"/>
        <pt x="547" y="52" on="0"/>
        <pt x="604" y="101" on="0"/>
        <pt x="647" y="177" on="0"/>
        <pt x="669" y="229" on="1"/>
        <pt x="676" y="244" on="0"/>
        <pt x="678" y="251" on="0"/>
        <pt x="680" y="252" on="1"/>
        <pt x="684" y="256" on="0"/>
        <pt x="689" y="256" on="1"/>
        <pt x="699" y="256" on="0"/>
        <pt x="699" y="246" on="1"/>
        <pt x="699" y="243" on="0"/>
        <pt x="696" y="234" on="0"/>
        <pt x="695" y="232" on="1"/>
      </contour>
    </TTGlyph>
    <TTGlyph name="F" xMin="46" yMin="0" xMax="739" yMax="681">
      <contour>
        <pt x="233" y="71" on="1"/>
        <pt x="231" y="66" on="0"/>
        <pt x="229" y="55" on="0"/>
        <pt x="229" y="51" on="1"/>
        <pt x="229" y="45" on="0"/>
        <pt x="232" y="37" on="0"/>
        <pt x="248" y="32" on="0"/>
        <pt x="280" y="29" on="0"/>
        <pt x="310" y="29" on="1"/>
        <pt x="327" y="29" on="0"/>
        <pt x="338" y="26" on="0"/>
        <pt x="338" y="18" on="1"/>
        <pt x="338" y="4" on="0"/>
        <pt x="324" y="0" on="0"/>
        <pt x="317" y="0" on="1"/>
        <pt x="300" y="0" on="0"/>
        <pt x="266" y="2" on="0"/>
        <pt x="249" y="2" on="1"/>
        <pt x="119" y="2" on="1"/>
        <pt x="105" y="2" on="0"/>
        <pt x="75" y="0" on="0"/>
        <pt x="61" y="0" on="1"/>
        <pt x="56" y="0" on="0"/>
        <pt x="46" y="3" on="0"/>
        <pt x="46" y="11" on="1"/>
        <pt x="46" y="25" on="0"/>
        <pt x="61" y="29" on="0"/>
        <pt x="75" y="29" on="1"/>
        <pt x="101" y="29" on="0"/>
        <pt x="131" y="33" on="0"/>
        <pt x="146" y="44" on="0"/>
        <pt x="153" y="61" on="0"/>
        <pt x="156" y="74" on="1"/>
        <pt x="291" y="614" on="1"/>
        <pt x="295" y="629" on="0"/>
        <pt x="295" y="634" on="1"/>
        <pt x="295" y="638" on="0"/>
        <pt x="293" y="645" on="0"/>
        <pt x="281" y="649" on="0"/>
        <pt x="256" y="652" on="0"/>
        <pt x="233" y="652" on="1"/>
        <pt x="220" y="652" on="0"/>
        <pt x="209" y="655" on="0"/>
        <pt x="209" y="663" on="1"/>
        <pt x="209" y="677" on="0"/>
        <pt x="224" y="681" on="0"/>
        <pt x="238" y="681" on="1"/>
        <pt x="712" y="681" on="1"/>
        <pt x="726" y="681" on="0"/>
        <pt x="739" y="678" on="0"/>
        <pt x="739" y="670" on="1"/>
        <pt x="739" y="668" on="0"/>
        <pt x="737" y="657" on="0"/>
        <pt x="737" y="655" on="1"/>
        <pt x="716" y="480" on="1"/>
        <pt x="714" y="466" on="0"/>
        <pt x="708" y="458" on="0"/>
        <pt x="703" y="458" on="1"/>
        <pt x="692" y="458" on="0"/>
        <pt x="692" y="469" on="1"/>
        <pt x="692" y="472" on="0"/>
        <pt x="694" y="487" on="0"/>
        <pt x="695" y="490" on="1"/>
        <pt x="697" y="510" on="0"/>
        <pt x="698" y="539" on="0"/>
        <pt x="698" y="544" on="1"/>
        <pt x="698" y="571" on="0"/>
        <pt x="688" y="611" on="0"/>
        <pt x="658" y="638" on="0"/>
        <pt x="602" y="652" on="0"/>
        <pt x="555" y="652" on="1"/>
        <pt x="421" y="652" on="1"/>
        <pt x="406" y="652" on="0"/>
        <pt x="388" y="650" on="0"/>
        <pt x="378" y="642" on="0"/>
        <pt x="372" y="627" on="0"/>
        <pt x="369" y="614" on="1"/>
        <pt x="304" y="355" on="1"/>
        <pt x="395" y="355" on="1"/>
        <pt x="428" y="355" on="0"/>
        <pt x="470" y="364" on="0"/>
        <pt x="498" y="386" on="0"/>
        <pt x="515" y="423" on="0"/>
        <pt x="523" y="451" on="1"/>
        <pt x="526" y="464" on="0"/>
        <pt x="530" y="472" on="0"/>
        <pt x="537" y="472" on="1"/>
        <pt x="542" y="472" on="0"/>
        <pt x="547" y="465" on="0"/>
        <pt x="547" y="462" on="1"/>
        <pt x="489" y="229" on="1"/>
        <pt x="486" y="217" on="0"/>
        <pt x="482" y="209" on="0"/>
        <pt x="476" y="209" on="1"/>
        <pt x="465" y="209" on="0"/>
        <pt x="465" y="220" on="1"/>
        <pt x="465" y="225" on="0"/>
        <pt x="468" y="231" on="1"/>
        <pt x="475" y="262" on="0"/>
        <pt x="475" y="280" on="1"/>
        <pt x="475" y="291" on="0"/>
        <pt x="471" y="308" on="0"/>
        <pt x="454" y="320" on="0"/>
        <pt x="422" y="326" on="0"/>
        <pt x="393" y="326" on="1"/>
        <pt x="297" y="326" on="1"/>
      </contour>
    </TTGlyph>
    <TTGlyph name="G" xMin="50" yMin="-21" xMax="746" yMax="704">
      <contour>
        <pt x="683" y="440" on="1"/>
        <pt x="680" y="426" on="0"/>
        <pt x="675" y="421" on="0"/>
        <pt x="667" y="421" on="1"/>
        <pt x="665" y="421" on="0"/>
        <pt x="654" y="423" on="0"/>
        <pt x="654" y="430" on="1"/>
        <pt x="654" y="441" on="0"/>
        <pt x="658" y="470" on="0"/>
        <pt x="658" y="482" on="1"/>
        <pt x="658" y="517" on="0"/>
        <pt x="641" y="585" on="0"/>
        <pt x="603" y="641" on="0"/>
        <pt x="542" y="675" on="0"/>
        <pt x="498" y="675" on="1"/>
        <pt x="465" y="675" on="0"/>
        <pt x="398" y="657" on="0"/>
        <pt x="335" y="626" on="0"/>
        <pt x="278" y="581" on="0"/>
        <pt x="254" y="554" on="1"/>
        <pt x="218" y="512" on="0"/>
        <pt x="171" y="416" on="0"/>
        <pt x="144" y="325" on="0"/>
        <pt x="133" y="246" on="0"/>
        <pt x="133" y="221" on="1"/>
        <pt x="133" y="156" on="0"/>
        <pt x="174" y="73" on="0"/>
        <pt x="236" y="26" on="0"/>
        <pt x="306" y="8" on="0"/>
        <pt x="335" y="8" on="1"/>
        <pt x="357" y="8" on="0"/>
        <pt x="407" y="17" on="0"/>
        <pt x="455" y="36" on="0"/>
        <pt x="497" y="66" on="0"/>
        <pt x="511" y="87" on="1"/>
        <pt x="518" y="98" on="0"/>
        <pt x="532" y="142" on="0"/>
        <pt x="542" y="186" on="0"/>
        <pt x="549" y="219" on="0"/>
        <pt x="549" y="219" on="1"/>
        <pt x="549" y="225" on="0"/>
        <pt x="547" y="233" on="0"/>
        <pt x="532" y="239" on="0"/>
        <pt x="500" y="242" on="0"/>
        <pt x="470" y="242" on="1"/>
        <pt x="445" y="242" on="1"/>
        <pt x="445" y="243" on="0"/>
        <pt x="437" y="245" on="0"/>
        <pt x="437" y="253" on="1"/>
        <pt x="437" y="267" on="0"/>
        <pt x="451" y="271" on="0"/>
        <pt x="458" y="271" on="1"/>
        <pt x="489" y="271" on="0"/>
        <pt x="553" y="269" on="0"/>
        <pt x="585" y="269" on="1"/>
        <pt x="639" y="269" on="1"/>
        <pt x="653" y="269" on="0"/>
        <pt x="680" y="271" on="0"/>
        <pt x="693" y="271" on="1"/>
        <pt x="695" y="271" on="0"/>
        <pt x="706" y="269" on="0"/>
        <pt x="706" y="261" on="1"/>
        <pt x="706" y="247" on="0"/>
        <pt x="693" y="242" on="0"/>
        <pt x="690" y="242" on="1"/>
        <pt x="669" y="242" on="0"/>
        <pt x="646" y="239" on="0"/>
        <pt x="633" y="231" on="0"/>
        <pt x="627" y="214" on="0"/>
        <pt x="623" y="200" on="1"/>
        <pt x="618" y="177" on="0"/>
        <pt x="610" y="148" on="0"/>
        <pt x="604" y="123" on="1"/>
        <pt x="588" y="59" on="1"/>
        <pt x="584" y="45" on="0"/>
        <pt x="575" y="6" on="0"/>
        <pt x="574" y="4" on="1"/>
        <pt x="573" y="4" on="0"/>
        <pt x="571" y="1" on="0"/>
        <pt x="567" y="1" on="1"/>
        <pt x="562" y="1" on="0"/>
        <pt x="535" y="37" on="0"/>
        <pt x="527" y="66" on="1"/>
        <pt x="508" y="42" on="0"/>
        <pt x="457" y="9" on="0"/>
        <pt x="400" y="-12" on="0"/>
        <pt x="341" y="-21" on="0"/>
        <pt x="314" y="-21" on="1"/>
        <pt x="258" y="-21" on="0"/>
        <pt x="161" y="17" on="0"/>
        <pt x="90" y="88" on="0"/>
        <pt x="50" y="188" on="0"/>
        <pt x="50" y="250" on="1"/>
        <pt x="50" y="309" on="0"/>
        <pt x="85" y="422" on="0"/>
        <pt x="147" y="523" on="0"/>
        <pt x="231" y="608" on="0"/>
        <pt x="329" y="670" on="0"/>
        <pt x="436" y="704" on="0"/>
        <pt x="489" y="704" on="1"/>
        <pt x="596" y="704" on="0"/>
        <pt x="654" y="611" on="1"/>
        <pt x="723" y="694" on="1"/>
        <pt x="729" y="702" on="0"/>
        <pt x="735" y="704" on="0"/>
        <pt x="737" y="704" on="1"/>
        <pt x="739" y="704" on="0"/>
        <pt x="746" y="702" on="0"/>
        <pt x="746" y="695" on="1"/>
      </contour>
    </TTGlyph>
    <TTGlyph name="Gamma" xMin="46" yMin="0" xMax="712" yMax="681">
      <contour>
        <pt x="233" y="70" on="1"/>
        <pt x="229" y="55" on="0"/>
        <pt x="229" y="50" on="1"/>
        <pt x="229" y="40" on="0"/>
        <pt x="241" y="33" on="0"/>
        <pt x="257" y="31" on="1"/>
        <pt x="274" y="29" on="0"/>
        <pt x="295" y="29" on="0"/>
        <pt x="310" y="29" on="1"/>
        <pt x="327" y="29" on="0"/>
        <pt x="338" y="26" on="0"/>
        <pt x="338" y="18" on="1"/>
        <pt x="338" y="4" on="0"/>
        <pt x="324" y="0" on="0"/>
        <pt x="317" y="0" on="1"/>
        <pt x="300" y="0" on="0"/>
        <pt x="266" y="2" on="0"/>
        <pt x="249" y="2" on="1"/>
        <pt x="119" y="2" on="1"/>
        <pt x="105" y="2" on="0"/>
        <pt x="75" y="0" on="0"/>
        <pt x="61" y="0" on="1"/>
        <pt x="56" y="0" on="0"/>
        <pt x="46" y="3" on="0"/>
        <pt x="46" y="11" on="1"/>
        <pt x="46" y="25" on="0"/>
        <pt x="61" y="29" on="0"/>
        <pt x="75" y="29" on="1"/>
        <pt x="101" y="29" on="0"/>
        <pt x="131" y="33" on="0"/>
        <pt x="146" y="44" on="0"/>
        <pt x="153" y="61" on="0"/>
        <pt x="156" y="74" on="1"/>
        <pt x="291" y="614" on="1"/>
        <pt x="295" y="629" on="0"/>
        <pt x="295" y="634" on="1"/>
        <pt x="295" y="638" on="0"/>
        <pt x="293" y="645" on="0"/>
        <pt x="281" y="649" on="0"/>
        <pt x="256" y="652" on="0"/>
        <pt x="233" y="652" on="1"/>
        <pt x="220" y="652" on="0"/>
        <pt x="209" y="655" on="0"/>
        <pt x="209" y="663" on="1"/>
        <pt x="209" y="677" on="0"/>
        <pt x="224" y="681" on="0"/>
        <pt x="238" y="681" on="1"/>
        <pt x="685" y="681" on="1"/>
        <pt x="699" y="681" on="0"/>
        <pt x="712" y="678" on="0"/>
        <pt x="712" y="670" on="1"/>
        <pt x="712" y="668" on="0"/>
        <pt x="710" y="657" on="0"/>
        <pt x="710" y="655" on="1"/>
        <pt x="689" y="480" on="1"/>
        <pt x="687" y="466" on="0"/>
        <pt x="681" y="458" on="0"/>
        <pt x="676" y="458" on="1"/>
        <pt x="665" y="458" on="0"/>
        <pt x="665" y="469" on="1"/>
        <pt x="665" y="472" on="0"/>
        <pt x="667" y="487" on="0"/>
        <pt x="668" y="490" on="1"/>
        <pt x="670" y="507" on="0"/>
        <pt x="672" y="529" on="0"/>
        <pt x="672" y="549" on="1"/>
        <pt x="672" y="577" on="0"/>
        <pt x="660" y="616" on="0"/>
        <pt x="630" y="641" on="0"/>
        <pt x="578" y="652" on="0"/>
        <pt x="538" y="652" on="1"/>
        <pt x="421" y="652" on="1"/>
        <pt x="406" y="652" on="0"/>
        <pt x="388" y="650" on="0"/>
        <pt x="378" y="642" on="0"/>
        <pt x="372" y="627" on="0"/>
        <pt x="369" y="614" on="1"/>
      </contour>
    </TTGlyph>
    <TTGlyph name="H" xMin="46" yMin="0" xMax="858" yMax="683">
      <contour>
        <pt x="611" y="63" on="1"/>
        <pt x="609" y="57" on="0"/>
        <pt x="609" y="48" on="0"/>
        <pt x="609" y="47" on="1"/>
        <pt x="609" y="43" on="0"/>
        <pt x="611" y="37" on="0"/>
        <pt x="622" y="32" on="0"/>
        <pt x="647" y="29" on="0"/>
        <pt x="670" y="29" on="1"/>
        <pt x="681" y="29" on="0"/>
        <pt x="694" y="27" on="0"/>
        <pt x="694" y="19" on="1"/>
        <pt x="694" y="5" on="0"/>
        <pt x="681" y="0" on="0"/>
        <pt x="675" y="0" on="1"/>
        <pt x="661" y="0" on="0"/>
        <pt x="630" y="2" on="0"/>
        <pt x="616" y="2" on="1"/>
        <pt x="498" y="2" on="1"/>
        <pt x="484" y="2" on="0"/>
        <pt x="454" y="0" on="0"/>
        <pt x="440" y="0" on="1"/>
        <pt x="438" y="0" on="0"/>
        <pt x="426" y="2" on="0"/>
        <pt x="426" y="10" on="1"/>
        <pt x="426" y="24" on="0"/>
        <pt x="438" y="29" on="0"/>
        <pt x="447" y="29" on="1"/>
        <pt x="469" y="29" on="0"/>
        <pt x="498" y="31" on="0"/>
        <pt x="518" y="37" on="0"/>
        <pt x="529" y="49" on="0"/>
        <pt x="533" y="60" on="1"/>
        <pt x="534" y="62" on="0"/>
        <pt x="542" y="95" on="0"/>
        <pt x="555" y="147" on="0"/>
        <pt x="570" y="209" on="0"/>
        <pt x="585" y="271" on="0"/>
        <pt x="599" y="325" on="0"/>
        <pt x="603" y="341" on="1"/>
        <pt x="300" y="341" on="1"/>
        <pt x="231" y="63" on="1"/>
        <pt x="229" y="57" on="0"/>
        <pt x="229" y="48" on="0"/>
        <pt x="229" y="47" on="1"/>
        <pt x="229" y="43" on="0"/>
        <pt x="231" y="37" on="0"/>
        <pt x="242" y="32" on="0"/>
        <pt x="267" y="29" on="0"/>
        <pt x="290" y="29" on="1"/>
        <pt x="301" y="29" on="0"/>
        <pt x="314" y="27" on="0"/>
        <pt x="314" y="19" on="1"/>
        <pt x="314" y="5" on="0"/>
        <pt x="301" y="0" on="0"/>
        <pt x="295" y="0" on="1"/>
        <pt x="281" y="0" on="0"/>
        <pt x="250" y="2" on="0"/>
        <pt x="236" y="2" on="1"/>
        <pt x="118" y="2" on="1"/>
        <pt x="104" y="2" on="0"/>
        <pt x="74" y="0" on="0"/>
        <pt x="60" y="0" on="1"/>
        <pt x="58" y="0" on="0"/>
        <pt x="46" y="2" on="0"/>
        <pt x="46" y="10" on="1"/>
        <pt x="46" y="24" on="0"/>
        <pt x="59" y="29" on="0"/>
        <pt x="76" y="29" on="1"/>
        <pt x="102" y="29" on="0"/>
        <pt x="131" y="33" on="0"/>
        <pt x="146" y="44" on="0"/>
        <pt x="153" y="61" on="0"/>
        <pt x="156" y="74" on="1"/>
        <pt x="291" y="612" on="1"/>
        <pt x="294" y="623" on="0"/>
        <pt x="295" y="633" on="0"/>
        <pt x="295" y="635" on="1"/>
        <pt x="295" y="639" on="0"/>
        <pt x="293" y="646" on="0"/>
        <pt x="282" y="651" on="0"/>
        <pt x="258" y="654" on="0"/>
        <pt x="235" y="654" on="1"/>
        <pt x="221" y="654" on="0"/>
        <pt x="209" y="656" on="0"/>
        <pt x="209" y="664" on="1"/>
        <pt x="209" y="678" on="0"/>
        <pt x="223" y="683" on="0"/>
        <pt x="228" y="683" on="1"/>
        <pt x="242" y="683" on="0"/>
        <pt x="273" y="681" on="0"/>
        <pt x="287" y="681" on="1"/>
        <pt x="405" y="681" on="1"/>
        <pt x="419" y="681" on="0"/>
        <pt x="449" y="683" on="0"/>
        <pt x="463" y="683" on="1"/>
        <pt x="468" y="683" on="0"/>
        <pt x="478" y="680" on="0"/>
        <pt x="478" y="672" on="1"/>
        <pt x="478" y="658" on="0"/>
        <pt x="464" y="654" on="0"/>
        <pt x="450" y="654" on="1"/>
        <pt x="423" y="654" on="0"/>
        <pt x="394" y="650" on="0"/>
        <pt x="378" y="640" on="0"/>
        <pt x="371" y="623" on="0"/>
        <pt x="368" y="610" on="1"/>
        <pt x="308" y="370" on="1"/>
        <pt x="610" y="370" on="1"/>
        <pt x="671" y="612" on="1"/>
        <pt x="674" y="623" on="0"/>
        <pt x="675" y="633" on="0"/>
        <pt x="675" y="635" on="1"/>
        <pt x="675" y="639" on="0"/>
        <pt x="673" y="646" on="0"/>
        <pt x="662" y="651" on="0"/>
        <pt x="638" y="654" on="0"/>
        <pt x="615" y="654" on="1"/>
        <pt x="601" y="654" on="0"/>
        <pt x="589" y="656" on="0"/>
        <pt x="589" y="664" on="1"/>
        <pt x="589" y="678" on="0"/>
        <pt x="603" y="683" on="0"/>
        <pt x="608" y="683" on="1"/>
        <pt x="622" y="683" on="0"/>
        <pt x="653" y="681" on="0"/>
        <pt x="667" y="681" on="1"/>
        <pt x="785" y="681" on="1"/>
        <pt x="799" y="681" on="0"/>
        <pt x="829" y="683" on="0"/>
        <pt x="843" y="683" on="1"/>
        <pt x="848" y="683" on="0"/>
        <pt x="858" y="680" on="0"/>
        <pt x="858" y="672" on="1"/>
        <pt x="858" y="658" on="0"/>
        <pt x="844" y="654" on="0"/>
        <pt x="830" y="654" on="1"/>
        <pt x="803" y="654" on="0"/>
        <pt x="774" y="650" on="0"/>
        <pt x="758" y="640" on="0"/>
        <pt x="751" y="623" on="0"/>
        <pt x="748" y="610" on="1"/>
      </contour>
    </TTGlyph>
    <TTGlyph name="I" xMin="41" yMin="0" xMax="482" yMax="683">
      <contour>
        <pt x="233" y="72" on="1"/>
        <pt x="230" y="60" on="0"/>
        <pt x="229" y="51" on="0"/>
        <pt x="229" y="49" on="1"/>
        <pt x="229" y="45" on="0"/>
        <pt x="231" y="37" on="0"/>
        <pt x="243" y="32" on="0"/>
        <pt x="268" y="29" on="0"/>
        <pt x="291" y="29" on="1"/>
        <pt x="308" y="29" on="0"/>
        <pt x="319" y="26" on="0"/>
        <pt x="319" y="18" on="1"/>
        <pt x="319" y="4" on="0"/>
        <pt x="305" y="0" on="0"/>
        <pt x="299" y="0" on="1"/>
        <pt x="284" y="0" on="0"/>
        <pt x="252" y="2" on="0"/>
        <pt x="237" y="2" on="1"/>
        <pt x="114" y="2" on="1"/>
        <pt x="100" y="2" on="0"/>
        <pt x="70" y="0" on="0"/>
        <pt x="56" y="0" on="1"/>
        <pt x="52" y="0" on="0"/>
        <pt x="41" y="2" on="0"/>
        <pt x="41" y="10" on="1"/>
        <pt x="41" y="24" on="0"/>
        <pt x="55" y="29" on="0"/>
        <pt x="72" y="29" on="1"/>
        <pt x="99" y="29" on="0"/>
        <pt x="130" y="33" on="0"/>
        <pt x="146" y="44" on="0"/>
        <pt x="153" y="61" on="0"/>
        <pt x="156" y="74" on="1"/>
        <pt x="291" y="613" on="1"/>
        <pt x="293" y="620" on="0"/>
        <pt x="295" y="630" on="0"/>
        <pt x="295" y="635" on="1"/>
        <pt x="295" y="639" on="0"/>
        <pt x="293" y="646" on="0"/>
        <pt x="281" y="651" on="0"/>
        <pt x="256" y="654" on="0"/>
        <pt x="233" y="654" on="1"/>
        <pt x="218" y="654" on="0"/>
        <pt x="205" y="656" on="0"/>
        <pt x="205" y="664" on="1"/>
        <pt x="205" y="678" on="0"/>
        <pt x="218" y="683" on="0"/>
        <pt x="224" y="683" on="1"/>
        <pt x="239" y="683" on="0"/>
        <pt x="272" y="681" on="0"/>
        <pt x="287" y="681" on="1"/>
        <pt x="410" y="681" on="1"/>
        <pt x="424" y="681" on="0"/>
        <pt x="454" y="683" on="0"/>
        <pt x="468" y="683" on="1"/>
        <pt x="470" y="683" on="0"/>
        <pt x="482" y="681" on="0"/>
        <pt x="482" y="673" on="1"/>
        <pt x="482" y="659" on="0"/>
        <pt x="469" y="654" on="0"/>
        <pt x="452" y="654" on="1"/>
        <pt x="425" y="654" on="0"/>
        <pt x="394" y="650" on="0"/>
        <pt x="378" y="639" on="0"/>
        <pt x="371" y="622" on="0"/>
        <pt x="368" y="609" on="1"/>
      </contour>
    </TTGlyph>
    <TTGlyph name="J" xMin="79" yMin="-21" xMax="619" yMax="683">
      <contour>
        <pt x="416" y="143" on="1"/>
        <pt x="407" y="107" on="0"/>
        <pt x="364" y="47" on="0"/>
        <pt x="305" y="4" on="0"/>
        <pt x="237" y="-21" on="0"/>
        <pt x="203" y="-21" on="1"/>
        <pt x="149" y="-21" on="0"/>
        <pt x="79" y="38" on="0"/>
        <pt x="79" y="86" on="1"/>
        <pt x="79" y="110" on="0"/>
        <pt x="93" y="140" on="0"/>
        <pt x="112" y="156" on="0"/>
        <pt x="132" y="161" on="0"/>
        <pt x="139" y="161" on="1"/>
        <pt x="162" y="161" on="0"/>
        <pt x="179" y="136" on="0"/>
        <pt x="179" y="124" on="1"/>
        <pt x="179" y="102" on="0"/>
        <pt x="145" y="66" on="0"/>
        <pt x="120" y="66" on="1"/>
        <pt x="115" y="66" on="0"/>
        <pt x="107" y="68" on="1"/>
        <pt x="112" y="48" on="0"/>
        <pt x="132" y="22" on="0"/>
        <pt x="159" y="6" on="0"/>
        <pt x="188" y="-1" on="0"/>
        <pt x="201" y="-1" on="1"/>
        <pt x="219" y="-1" on="0"/>
        <pt x="260" y="18" on="0"/>
        <pt x="299" y="55" on="0"/>
        <pt x="332" y="112" on="0"/>
        <pt x="342" y="150" on="1"/>
        <pt x="457" y="607" on="1"/>
        <pt x="460" y="619" on="0"/>
        <pt x="461" y="630" on="0"/>
        <pt x="461" y="631" on="1"/>
        <pt x="461" y="637" on="0"/>
        <pt x="459" y="645" on="0"/>
        <pt x="444" y="651" on="0"/>
        <pt x="411" y="654" on="0"/>
        <pt x="381" y="654" on="1"/>
        <pt x="356" y="654" on="1"/>
        <pt x="356" y="655" on="0"/>
        <pt x="348" y="657" on="0"/>
        <pt x="348" y="665" on="1"/>
        <pt x="348" y="679" on="0"/>
        <pt x="362" y="683" on="0"/>
        <pt x="369" y="683" on="1"/>
        <pt x="401" y="683" on="0"/>
        <pt x="465" y="681" on="0"/>
        <pt x="497" y="681" on="1"/>
        <pt x="552" y="681" on="1"/>
        <pt x="566" y="681" on="0"/>
        <pt x="593" y="683" on="0"/>
        <pt x="606" y="683" on="1"/>
        <pt x="609" y="683" on="0"/>
        <pt x="619" y="680" on="0"/>
        <pt x="619" y="672" on="1"/>
        <pt x="619" y="658" on="0"/>
        <pt x="605" y="654" on="0"/>
        <pt x="593" y="654" on="1"/>
        <pt x="575" y="654" on="0"/>
        <pt x="554" y="650" on="0"/>
        <pt x="542" y="641" on="0"/>
        <pt x="537" y="625" on="0"/>
        <pt x="534" y="614" on="1"/>
      </contour>
    </TTGlyph>
    <TTGlyph name="K" xMin="46" yMin="0" xMax="874" yMax="683">
      <contour>
        <pt x="639" y="74" on="1"/>
        <pt x="650" y="47" on="0"/>
        <pt x="676" y="30" on="0"/>
        <pt x="704" y="29" on="1"/>
        <pt x="712" y="29" on="0"/>
        <pt x="723" y="27" on="0"/>
        <pt x="723" y="19" on="1"/>
        <pt x="723" y="5" on="0"/>
        <pt x="711" y="0" on="0"/>
        <pt x="706" y="0" on="1"/>
        <pt x="695" y="0" on="0"/>
        <pt x="670" y="2" on="0"/>
        <pt x="659" y="2" on="1"/>
        <pt x="611" y="2" on="1"/>
        <pt x="585" y="2" on="0"/>
        <pt x="530" y="0" on="0"/>
        <pt x="504" y="0" on="1"/>
        <pt x="502" y="0" on="0"/>
        <pt x="490" y="2" on="0"/>
        <pt x="490" y="10" on="1"/>
        <pt x="490" y="24" on="0"/>
        <pt x="502" y="29" on="0"/>
        <pt x="509" y="29" on="1"/>
        <pt x="512" y="29" on="0"/>
        <pt x="529" y="30" on="0"/>
        <pt x="545" y="36" on="0"/>
        <pt x="558" y="49" on="0"/>
        <pt x="558" y="60" on="1"/>
        <pt x="558" y="69" on="0"/>
        <pt x="553" y="79" on="1"/>
        <pt x="538" y="116" on="0"/>
        <pt x="504" y="198" on="0"/>
        <pt x="471" y="276" on="0"/>
        <pt x="441" y="345" on="0"/>
        <pt x="430" y="369" on="1"/>
        <pt x="278" y="250" on="1"/>
        <pt x="239" y="95" on="1"/>
        <pt x="236" y="83" on="0"/>
        <pt x="229" y="52" on="0"/>
        <pt x="229" y="47" on="1"/>
        <pt x="229" y="43" on="0"/>
        <pt x="231" y="37" on="0"/>
        <pt x="242" y="32" on="0"/>
        <pt x="267" y="29" on="0"/>
        <pt x="290" y="29" on="1"/>
        <pt x="301" y="29" on="0"/>
        <pt x="314" y="27" on="0"/>
        <pt x="314" y="19" on="1"/>
        <pt x="314" y="5" on="0"/>
        <pt x="301" y="0" on="0"/>
        <pt x="295" y="0" on="1"/>
        <pt x="281" y="0" on="0"/>
        <pt x="250" y="2" on="0"/>
        <pt x="236" y="2" on="1"/>
        <pt x="119" y="2" on="1"/>
        <pt x="105" y="2" on="0"/>
        <pt x="75" y="0" on="0"/>
        <pt x="61" y="0" on="1"/>
        <pt x="56" y="0" on="0"/>
        <pt x="46" y="3" on="0"/>
        <pt x="46" y="11" on="1"/>
        <pt x="46" y="25" on="0"/>
        <pt x="61" y="29" on="0"/>
        <pt x="75" y="29" on="1"/>
        <pt x="101" y="29" on="0"/>
        <pt x="131" y="33" on="0"/>
        <pt x="146" y="44" on="0"/>
        <pt x="153" y="61" on="0"/>
        <pt x="156" y="74" on="1"/>
        <pt x="291" y="612" on="1"/>
        <pt x="294" y="623" on="0"/>
        <pt x="295" y="633" on="0"/>
        <pt x="295" y="635" on="1"/>
        <pt x="295" y="639" on="0"/>
        <pt x="293" y="646" on="0"/>
        <pt x="282" y="651" on="0"/>
        <pt x="257" y="654" on="0"/>
        <pt x="234" y="654" on="1"/>
        <pt x="223" y="654" on="0"/>
        <pt x="210" y="656" on="0"/>
        <pt x="210" y="664" on="1"/>
        <pt x="210" y="678" on="0"/>
        <pt x="223" y="683" on="0"/>
        <pt x="229" y="683" on="1"/>
        <pt x="243" y="683" on="0"/>
        <pt x="273" y="681" on="0"/>
        <pt x="287" y="681" on="1"/>
        <pt x="405" y="681" on="1"/>
        <pt x="419" y="681" on="0"/>
        <pt x="449" y="683" on="0"/>
        <pt x="463" y="683" on="1"/>
        <pt x="467" y="683" on="0"/>
        <pt x="478" y="681" on="0"/>
        <pt x="478" y="673" on="1"/>
        <pt x="478" y="659" on="0"/>
        <pt x="464" y="654" on="0"/>
        <pt x="450" y="654" on="1"/>
        <pt x="423" y="654" on="0"/>
        <pt x="394" y="650" on="0"/>
        <pt x="378" y="640" on="0"/>
        <pt x="371" y="623" on="0"/>
        <pt x="368" y="610" on="1"/>
        <pt x="285" y="280" on="1"/>
        <pt x="677" y="585" on="1"/>
        <pt x="680" y="587" on="0"/>
        <pt x="693" y="598" on="0"/>
        <pt x="705" y="612" on="0"/>
        <pt x="715" y="628" on="0"/>
        <pt x="715" y="635" on="1"/>
        <pt x="715" y="646" on="0"/>
        <pt x="699" y="653" on="0"/>
        <pt x="691" y="654" on="1"/>
        <pt x="686" y="654" on="0"/>
        <pt x="678" y="657" on="0"/>
        <pt x="678" y="665" on="1"/>
        <pt x="678" y="679" on="0"/>
        <pt x="692" y="683" on="0"/>
        <pt x="697" y="683" on="1"/>
        <pt x="720" y="683" on="0"/>
        <pt x="768" y="681" on="0"/>
        <pt x="791" y="681" on="1"/>
        <pt x="829" y="681" on="1"/>
        <pt x="837" y="681" on="0"/>
        <pt x="855" y="683" on="0"/>
        <pt x="863" y="683" on="1"/>
        <pt x="874" y="683" on="0"/>
        <pt x="874" y="672" on="1"/>
        <pt x="874" y="659" on="0"/>
        <pt x="862" y="655" on="0"/>
        <pt x="857" y="654" on="1"/>
        <pt x="831" y="652" on="0"/>
        <pt x="785" y="635" on="0"/>
        <pt x="731" y="601" on="0"/>
        <pt x="660" y="548" on="0"/>
        <pt x="610" y="509" on="1"/>
        <pt x="513" y="433" on="1"/>
        <pt x="500" y="423" on="0"/>
        <pt x="495" y="419" on="0"/>
        <pt x="495" y="418" on="1"/>
        <pt x="495" y="416" on="0"/>
        <pt x="499" y="406" on="0"/>
        <pt x="500" y="404" on="1"/>
      </contour>
    </TTGlyph>
    <TTGlyph name="L" xMin="46" yMin="0" xMax="631" yMax="683">
      <contour>
        <pt x="231" y="63" on="1"/>
        <pt x="229" y="56" on="0"/>
        <pt x="227" y="46" on="0"/>
        <pt x="227" y="41" on="1"/>
        <pt x="227" y="35" on="0"/>
        <pt x="231" y="31" on="0"/>
        <pt x="239" y="30" on="1"/>
        <pt x="244" y="29" on="0"/>
        <pt x="250" y="29" on="0"/>
        <pt x="261" y="29" on="1"/>
        <pt x="357" y="29" on="1"/>
        <pt x="420" y="29" on="0"/>
        <pt x="504" y="67" on="0"/>
        <pt x="559" y="126" on="0"/>
        <pt x="591" y="197" on="0"/>
        <pt x="603" y="230" on="1"/>
        <pt x="609" y="244" on="0"/>
        <pt x="611" y="251" on="0"/>
        <pt x="613" y="252" on="1"/>
        <pt x="615" y="255" on="0"/>
        <pt x="620" y="256" on="0"/>
        <pt x="621" y="256" on="1"/>
        <pt x="631" y="256" on="0"/>
        <pt x="631" y="246" on="1"/>
        <pt x="631" y="242" on="0"/>
        <pt x="627" y="232" on="1"/>
        <pt x="550" y="19" on="1"/>
        <pt x="545" y="5" on="0"/>
        <pt x="537" y="0" on="0"/>
        <pt x="520" y="0" on="1"/>
        <pt x="72" y="0" on="1"/>
        <pt x="57" y="0" on="0"/>
        <pt x="46" y="3" on="0"/>
        <pt x="46" y="11" on="1"/>
        <pt x="46" y="25" on="0"/>
        <pt x="61" y="29" on="0"/>
        <pt x="75" y="29" on="1"/>
        <pt x="101" y="29" on="0"/>
        <pt x="131" y="33" on="0"/>
        <pt x="146" y="44" on="0"/>
        <pt x="153" y="61" on="0"/>
        <pt x="156" y="74" on="1"/>
        <pt x="291" y="612" on="1"/>
        <pt x="294" y="623" on="0"/>
        <pt x="295" y="633" on="0"/>
        <pt x="295" y="635" on="1"/>
        <pt x="295" y="639" on="0"/>
        <pt x="293" y="646" on="0"/>
        <pt x="282" y="651" on="0"/>
        <pt x="257" y="654" on="0"/>
        <pt x="234" y="654" on="1"/>
        <pt x="223" y="654" on="0"/>
        <pt x="210" y="656" on="0"/>
        <pt x="210" y="664" on="1"/>
        <pt x="210" y="678" on="0"/>
        <pt x="223" y="683" on="0"/>
        <pt x="229" y="683" on="1"/>
        <pt x="243" y="683" on="0"/>
        <pt x="275" y="681" on="0"/>
        <pt x="289" y="681" on="1"/>
        <pt x="423" y="681" on="1"/>
        <pt x="438" y="681" on="0"/>
        <pt x="471" y="683" on="0"/>
        <pt x="486" y="683" on="1"/>
        <pt x="489" y="683" on="0"/>
        <pt x="501" y="681" on="0"/>
        <pt x="501" y="673" on="1"/>
        <pt x="501" y="659" on="0"/>
        <pt x="487" y="654" on="0"/>
        <pt x="467" y="654" on="1"/>
        <pt x="434" y="654" on="0"/>
        <pt x="397" y="650" on="0"/>
        <pt x="378" y="639" on="0"/>
        <pt x="370" y="620" on="0"/>
        <pt x="367" y="606" on="1"/>
      </contour>
    </TTGlyph>
    <TTGlyph name="Lambda" xMin="34" yMin="0" xMax="653" yMax="714">
      <contour>
        <pt x="493" y="696" on="1"/>
        <pt x="500" y="708" on="0"/>
        <pt x="509" y="714" on="0"/>
        <pt x="518" y="714" on="1"/>
        <pt x="529" y="714" on="0"/>
        <pt x="533" y="704" on="0"/>
        <pt x="534" y="691" on="1"/>
        <pt x="580" y="66" on="1"/>
        <pt x="581" y="55" on="0"/>
        <pt x="584" y="41" on="0"/>
        <pt x="594" y="32" on="0"/>
        <pt x="613" y="29" on="0"/>
        <pt x="631" y="29" on="1"/>
        <pt x="642" y="29" on="0"/>
        <pt x="653" y="27" on="0"/>
        <pt x="653" y="19" on="1"/>
        <pt x="653" y="5" on="0"/>
        <pt x="640" y="0" on="0"/>
        <pt x="635" y="0" on="1"/>
        <pt x="624" y="0" on="0"/>
        <pt x="598" y="2" on="0"/>
        <pt x="586" y="2" on="1"/>
        <pt x="534" y="2" on="1"/>
        <pt x="507" y="2" on="0"/>
        <pt x="451" y="0" on="0"/>
        <pt x="424" y="0" on="1"/>
        <pt x="422" y="0" on="0"/>
        <pt x="410" y="2" on="0"/>
        <pt x="410" y="10" on="1"/>
        <pt x="410" y="24" on="0"/>
        <pt x="423" y="29" on="0"/>
        <pt x="431" y="29" on="1"/>
        <pt x="458" y="29" on="0"/>
        <pt x="487" y="39" on="0"/>
        <pt x="499" y="53" on="0"/>
        <pt x="500" y="70" on="0"/>
        <pt x="499" y="78" on="1"/>
        <pt x="461" y="589" on="1"/>
        <pt x="182" y="104" on="1"/>
        <pt x="175" y="93" on="0"/>
        <pt x="167" y="75" on="0"/>
        <pt x="167" y="64" on="1"/>
        <pt x="167" y="44" on="0"/>
        <pt x="194" y="31" on="0"/>
        <pt x="211" y="29" on="1"/>
        <pt x="216" y="29" on="0"/>
        <pt x="224" y="26" on="0"/>
        <pt x="224" y="18" on="1"/>
        <pt x="224" y="4" on="0"/>
        <pt x="211" y="0" on="0"/>
        <pt x="206" y="0" on="1"/>
        <pt x="186" y="0" on="0"/>
        <pt x="141" y="2" on="0"/>
        <pt x="120" y="2" on="1"/>
        <pt x="74" y="2" on="0"/>
        <pt x="46" y="0" on="0"/>
        <pt x="45" y="0" on="1"/>
        <pt x="38" y="0" on="0"/>
        <pt x="34" y="8" on="0"/>
        <pt x="34" y="10" on="1"/>
        <pt x="34" y="24" on="0"/>
        <pt x="45" y="29" on="0"/>
        <pt x="48" y="29" on="1"/>
        <pt x="57" y="30" on="0"/>
        <pt x="82" y="34" on="0"/>
        <pt x="110" y="49" on="0"/>
        <pt x="141" y="81" on="0"/>
        <pt x="157" y="109" on="1"/>
      </contour>
    </TTGlyph>
    <TTGlyph name="M" xMin="49" yMin="0" xMax="1018" yMax="683">
      <contour>
        <pt x="771" y="63" on="1"/>
        <pt x="769" y="57" on="0"/>
        <pt x="769" y="48" on="0"/>
        <pt x="769" y="47" on="1"/>
        <pt x="769" y="43" on="0"/>
        <pt x="771" y="37" on="0"/>
        <pt x="782" y="32" on="0"/>
        <pt x="807" y="29" on="0"/>
        <pt x="830" y="29" on="1"/>
        <pt x="841" y="29" on="0"/>
        <pt x="854" y="27" on="0"/>
        <pt x="854" y="19" on="1"/>
        <pt x="854" y="5" on="0"/>
        <pt x="841" y="0" on="0"/>
        <pt x="835" y="0" on="1"/>
        <pt x="822" y="0" on="0"/>
        <pt x="793" y="2" on="0"/>
        <pt x="780" y="2" on="1"/>
        <pt x="662" y="2" on="1"/>
        <pt x="649" y="2" on="0"/>
        <pt x="621" y="0" on="0"/>
        <pt x="608" y="0" on="1"/>
        <pt x="603" y="0" on="0"/>
        <pt x="593" y="3" on="0"/>
        <pt x="593" y="11" on="1"/>
        <pt x="593" y="25" on="0"/>
        <pt x="608" y="29" on="0"/>
        <pt x="622" y="29" on="1"/>
        <pt x="648" y="29" on="0"/>
        <pt x="678" y="33" on="0"/>
        <pt x="693" y="44" on="0"/>
        <pt x="700" y="61" on="0"/>
        <pt x="703" y="74" on="1"/>
        <pt x="848" y="653" on="1"/>
        <pt x="847" y="653" on="1"/>
        <pt x="445" y="17" on="1"/>
        <pt x="441" y="10" on="0"/>
        <pt x="432" y="0" on="0"/>
        <pt x="424" y="0" on="1"/>
        <pt x="417" y="0" on="0"/>
        <pt x="413" y="9" on="0"/>
        <pt x="411" y="27" on="1"/>
        <pt x="328" y="648" on="1"/>
        <pt x="327" y="648" on="1"/>
        <pt x="189" y="97" on="1"/>
        <pt x="186" y="86" on="0"/>
        <pt x="185" y="80" on="0"/>
        <pt x="185" y="72" on="1"/>
        <pt x="185" y="45" on="0"/>
        <pt x="225" y="30" on="0"/>
        <pt x="250" y="29" on="1"/>
        <pt x="253" y="29" on="0"/>
        <pt x="264" y="26" on="0"/>
        <pt x="264" y="19" on="1"/>
        <pt x="264" y="5" on="0"/>
        <pt x="251" y="0" on="0"/>
        <pt x="246" y="0" on="1"/>
        <pt x="235" y="0" on="0"/>
        <pt x="212" y="2" on="0"/>
        <pt x="201" y="2" on="1"/>
        <pt x="153" y="2" on="1"/>
        <pt x="146" y="2" on="0"/>
        <pt x="121" y="1" on="0"/>
        <pt x="94" y="1" on="0"/>
        <pt x="70" y="0" on="0"/>
        <pt x="62" y="0" on="1"/>
        <pt x="59" y="0" on="0"/>
        <pt x="49" y="3" on="0"/>
        <pt x="49" y="11" on="1"/>
        <pt x="49" y="24" on="0"/>
        <pt x="62" y="29" on="0"/>
        <pt x="64" y="29" on="1"/>
        <pt x="114" y="31" on="0"/>
        <pt x="157" y="66" on="0"/>
        <pt x="166" y="102" on="1"/>
        <pt x="294" y="612" on="1"/>
        <pt x="297" y="623" on="0"/>
        <pt x="298" y="633" on="0"/>
        <pt x="298" y="635" on="1"/>
        <pt x="298" y="639" on="0"/>
        <pt x="296" y="646" on="0"/>
        <pt x="285" y="651" on="0"/>
        <pt x="260" y="654" on="0"/>
        <pt x="237" y="654" on="1"/>
        <pt x="226" y="654" on="0"/>
        <pt x="213" y="656" on="0"/>
        <pt x="213" y="664" on="1"/>
        <pt x="213" y="678" on="0"/>
        <pt x="227" y="683" on="0"/>
        <pt x="241" y="683" on="1"/>
        <pt x="365" y="683" on="1"/>
        <pt x="385" y="683" on="0"/>
        <pt x="393" y="678" on="0"/>
        <pt x="395" y="661" on="1"/>
        <pt x="470" y="89" on="1"/>
        <pt x="835" y="666" on="1"/>
        <pt x="843" y="678" on="0"/>
        <pt x="853" y="683" on="0"/>
        <pt x="872" y="683" on="1"/>
        <pt x="992" y="683" on="1"/>
        <pt x="1006" y="683" on="0"/>
        <pt x="1018" y="681" on="0"/>
        <pt x="1018" y="673" on="1"/>
        <pt x="1018" y="659" on="0"/>
        <pt x="1004" y="654" on="0"/>
        <pt x="990" y="654" on="1"/>
        <pt x="963" y="654" on="0"/>
        <pt x="934" y="650" on="0"/>
        <pt x="918" y="640" on="0"/>
        <pt x="911" y="623" on="0"/>
        <pt x="908" y="610" on="1"/>
      </contour>
    </TTGlyph>
    <TTGlyph name="N" xMin="46" yMin="0" xMax="858" yMax="683">
      <contour>
        <pt x="600" y="20" on="1"/>
        <pt x="597" y="7" on="0"/>
        <pt x="593" y="0" on="0"/>
        <pt x="585" y="0" on="1"/>
        <pt x="578" y="0" on="0"/>
        <pt x="573" y="9" on="0"/>
        <pt x="569" y="18" on="1"/>
        <pt x="331" y="611" on="1"/>
        <pt x="328" y="618" on="0"/>
        <pt x="326" y="624" on="0"/>
        <pt x="321" y="632" on="1"/>
        <pt x="186" y="97" on="1"/>
        <pt x="184" y="91" on="0"/>
        <pt x="182" y="78" on="0"/>
        <pt x="182" y="72" on="1"/>
        <pt x="182" y="45" on="0"/>
        <pt x="222" y="30" on="0"/>
        <pt x="247" y="29" on="1"/>
        <pt x="250" y="29" on="0"/>
        <pt x="261" y="26" on="0"/>
        <pt x="261" y="19" on="1"/>
        <pt x="261" y="5" on="0"/>
        <pt x="248" y="0" on="0"/>
        <pt x="243" y="0" on="1"/>
        <pt x="232" y="0" on="0"/>
        <pt x="209" y="2" on="0"/>
        <pt x="198" y="2" on="1"/>
        <pt x="150" y="2" on="1"/>
        <pt x="143" y="2" on="0"/>
        <pt x="118" y="1" on="0"/>
        <pt x="91" y="1" on="0"/>
        <pt x="67" y="0" on="0"/>
        <pt x="59" y="0" on="1"/>
        <pt x="57" y="0" on="0"/>
        <pt x="46" y="2" on="0"/>
        <pt x="46" y="10" on="1"/>
        <pt x="46" y="24" on="0"/>
        <pt x="57" y="29" on="0"/>
        <pt x="61" y="29" on="1"/>
        <pt x="111" y="31" on="0"/>
        <pt x="154" y="65" on="0"/>
        <pt x="163" y="102" on="1"/>
        <pt x="296" y="632" on="1"/>
        <pt x="297" y="634" on="0"/>
        <pt x="299" y="643" on="0"/>
        <pt x="299" y="645" on="1"/>
        <pt x="299" y="648" on="0"/>
        <pt x="280" y="652" on="0"/>
        <pt x="257" y="654" on="0"/>
        <pt x="237" y="654" on="0"/>
        <pt x="235" y="654" on="1"/>
        <pt x="221" y="654" on="0"/>
        <pt x="209" y="656" on="0"/>
        <pt x="209" y="664" on="1"/>
        <pt x="209" y="678" on="0"/>
        <pt x="223" y="683" on="0"/>
        <pt x="238" y="683" on="1"/>
        <pt x="360" y="683" on="1"/>
        <pt x="377" y="683" on="0"/>
        <pt x="385" y="678" on="0"/>
        <pt x="390" y="666" on="1"/>
        <pt x="604" y="134" on="1"/>
        <pt x="717" y="585" on="1"/>
        <pt x="719" y="596" on="0"/>
        <pt x="721" y="604" on="0"/>
        <pt x="721" y="611" on="1"/>
        <pt x="721" y="618" on="0"/>
        <pt x="718" y="632" on="0"/>
        <pt x="705" y="645" on="0"/>
        <pt x="680" y="653" on="0"/>
        <pt x="657" y="654" on="1"/>
        <pt x="652" y="654" on="0"/>
        <pt x="642" y="656" on="0"/>
        <pt x="642" y="664" on="1"/>
        <pt x="642" y="678" on="0"/>
        <pt x="655" y="683" on="0"/>
        <pt x="660" y="683" on="1"/>
        <pt x="671" y="683" on="0"/>
        <pt x="695" y="681" on="0"/>
        <pt x="706" y="681" on="1"/>
        <pt x="754" y="681" on="1"/>
        <pt x="762" y="681" on="0"/>
        <pt x="786" y="682" on="0"/>
        <pt x="813" y="682" on="0"/>
        <pt x="838" y="683" on="0"/>
        <pt x="845" y="683" on="1"/>
        <pt x="848" y="683" on="0"/>
        <pt x="858" y="680" on="0"/>
        <pt x="858" y="672" on="1"/>
        <pt x="858" y="659" on="0"/>
        <pt x="845" y="654" on="0"/>
        <pt x="843" y="654" on="1"/>
        <pt x="815" y="653" on="0"/>
        <pt x="778" y="641" on="0"/>
        <pt x="756" y="621" on="0"/>
        <pt x="744" y="594" on="0"/>
        <pt x="740" y="578" on="1"/>
      </contour>
    </TTGlyph>
    <TTGlyph name="O" xMin="48" yMin="-21" xMax="726" yMax="704">
      <contour>
        <pt x="726" y="438" on="1"/>
        <pt x="726" y="378" on="0"/>
        <pt x="692" y="263" on="0"/>
        <pt x="631" y="161" on="0"/>
        <pt x="549" y="76" on="0"/>
        <pt x="454" y="14" on="0"/>
        <pt x="350" y="-21" on="0"/>
        <pt x="297" y="-21" on="1"/>
        <pt x="243" y="-21" on="0"/>
        <pt x="151" y="17" on="0"/>
        <pt x="85" y="87" on="0"/>
        <pt x="48" y="184" on="0"/>
        <pt x="48" y="243" on="1"/>
        <pt x="48" y="330" on="0"/>
        <pt x="122" y="495" on="0"/>
        <pt x="243" y="625" on="0"/>
        <pt x="398" y="704" on="0"/>
        <pt x="478" y="704" on="1"/>
        <pt x="531" y="704" on="0"/>
        <pt x="621" y="667" on="0"/>
        <pt x="688" y="598" on="0"/>
        <pt x="726" y="500" on="0"/>
      </contour>
      <contour>
        <pt x="303" y="2" on="1"/>
        <pt x="359" y="2" on="0"/>
        <pt x="486" y="74" on="0"/>
        <pt x="541" y="151" on="1"/>
        <pt x="566" y="187" on="0"/>
        <pt x="605" y="271" on="0"/>
        <pt x="632" y="358" on="0"/>
        <pt x="646" y="441" on="0"/>
        <pt x="646" y="474" on="1"/>
        <pt x="646" y="528" on="0"/>
        <pt x="617" y="607" on="0"/>
        <pt x="568" y="658" on="0"/>
        <pt x="506" y="682" on="0"/>
        <pt x="473" y="682" on="1"/>
        <pt x="422" y="682" on="0"/>
        <pt x="304" y="624" on="0"/>
        <pt x="249" y="558" on="1"/>
        <pt x="218" y="521" on="0"/>
        <pt x="175" y="430" on="0"/>
        <pt x="147" y="339" on="0"/>
        <pt x="134" y="252" on="0"/>
        <pt x="134" y="218" on="1"/>
        <pt x="134" y="160" on="0"/>
        <pt x="164" y="77" on="0"/>
        <pt x="212" y="26" on="0"/>
        <pt x="272" y="2" on="0"/>
      </contour>
    </TTGlyph>
    <TTGlyph name="P" xMin="47" yMin="0" xMax="740" yMax="683">
      <contour>
        <pt x="232" y="63" on="1"/>
        <pt x="230" y="53" on="0"/>
        <pt x="230" y="46" on="1"/>
        <pt x="230" y="42" on="0"/>
        <pt x="232" y="36" on="0"/>
        <pt x="244" y="32" on="0"/>
        <pt x="269" y="29" on="0"/>
        <pt x="291" y="29" on="1"/>
        <pt x="302" y="29" on="0"/>
        <pt x="315" y="27" on="0"/>
        <pt x="315" y="19" on="1"/>
        <pt x="315" y="5" on="0"/>
        <pt x="302" y="0" on="0"/>
        <pt x="296" y="0" on="1"/>
        <pt x="282" y="0" on="0"/>
        <pt x="251" y="2" on="0"/>
        <pt x="237" y="2" on="1"/>
        <pt x="120" y="2" on="1"/>
        <pt x="106" y="2" on="0"/>
        <pt x="76" y="0" on="0"/>
        <pt x="62" y="0" on="1"/>
        <pt x="57" y="0" on="0"/>
        <pt x="47" y="3" on="0"/>
        <pt x="47" y="11" on="1"/>
        <pt x="47" y="25" on="0"/>
        <pt x="62" y="29" on="0"/>
        <pt x="76" y="29" on="1"/>
        <pt x="102" y="29" on="0"/>
        <pt x="132" y="33" on="0"/>
        <pt x="147" y="44" on="0"/>
        <pt x="154" y="61" on="0"/>
        <pt x="157" y="74" on="1"/>
        <pt x="292" y="612" on="1"/>
        <pt x="295" y="623" on="0"/>
        <pt x="296" y="633" on="0"/>
        <pt x="296" y="635" on="1"/>
        <pt x="296" y="639" on="0"/>
        <pt x="294" y="646" on="0"/>
        <pt x="283" y="651" on="0"/>
        <pt x="258" y="654" on="0"/>
        <pt x="235" y="654" on="1"/>
        <pt x="224" y="654" on="0"/>
        <pt x="211" y="656" on="0"/>
        <pt x="211" y="664" on="1"/>
        <pt x="211" y="678" on="0"/>
        <pt x="225" y="683" on="0"/>
        <pt x="239" y="683" on="1"/>
        <pt x="548" y="683" on="1"/>
        <pt x="595" y="683" on="0"/>
        <pt x="667" y="658" on="0"/>
        <pt x="715" y="617" on="0"/>
        <pt x="740" y="563" on="0"/>
        <pt x="740" y="534" on="1"/>
        <pt x="740" y="491" on="0"/>
        <pt x="693" y="413" on="0"/>
        <pt x="615" y="353" on="0"/>
        <pt x="516" y="318" on="0"/>
        <pt x="464" y="318" on="1"/>
        <pt x="296" y="318" on="1"/>
      </contour>
      <contour>
        <pt x="300" y="342" on="1"/>
        <pt x="441" y="342" on="1"/>
        <pt x="475" y="342" on="0"/>
        <pt x="528" y="354" on="0"/>
        <pt x="566" y="372" on="0"/>
        <pt x="591" y="391" on="0"/>
        <pt x="597" y="398" on="1"/>
        <pt x="614" y="415" on="0"/>
        <pt x="637" y="461" on="0"/>
        <pt x="651" y="507" on="0"/>
        <pt x="656" y="545" on="0"/>
        <pt x="656" y="555" on="1"/>
        <pt x="656" y="583" on="0"/>
        <pt x="634" y="621" on="0"/>
        <pt x="597" y="644" on="0"/>
        <pt x="547" y="654" on="0"/>
        <pt x="519" y="654" on="1"/>
        <pt x="420" y="654" on="1"/>
        <pt x="405" y="654" on="0"/>
        <pt x="388" y="652" on="0"/>
        <pt x="378" y="645" on="0"/>
        <pt x="371" y="629" on="0"/>
        <pt x="368" y="615" on="1"/>
      </contour>
    </TTGlyph>
    <TTGlyph name="Phi" xMin="22" yMin="0" xMax="629" yMax="683">
      <contour>
        <pt x="479" y="681" on="1"/>
        <pt x="496" y="681" on="0"/>
        <pt x="530" y="683" on="0"/>
        <pt x="547" y="683" on="1"/>
        <pt x="550" y="683" on="0"/>
        <pt x="562" y="681" on="0"/>
        <pt x="562" y="673" on="1"/>
        <pt x="562" y="659" on="0"/>
        <pt x="549" y="654" on="0"/>
        <pt x="532" y="654" on="1"/>
        <pt x="498" y="654" on="0"/>
        <pt x="459" y="650" on="0"/>
        <pt x="439" y="638" on="0"/>
        <pt x="431" y="616" on="0"/>
        <pt x="426" y="598" on="1"/>
        <pt x="423" y="586" on="0"/>
        <pt x="420" y="577" on="0"/>
        <pt x="419" y="572" on="0"/>
        <pt x="417" y="563" on="0"/>
        <pt x="414" y="550" on="1"/>
        <pt x="464" y="546" on="0"/>
        <pt x="544" y="516" on="0"/>
        <pt x="599" y="469" on="0"/>
        <pt x="629" y="410" on="0"/>
        <pt x="629" y="378" on="1"/>
        <pt x="629" y="334" on="0"/>
        <pt x="578" y="250" on="0"/>
        <pt x="491" y="183" on="0"/>
        <pt x="375" y="138" on="0"/>
        <pt x="310" y="133" on="1"/>
        <pt x="302" y="101" on="0"/>
        <pt x="290" y="57" on="0"/>
        <pt x="290" y="51" on="1"/>
        <pt x="290" y="46" on="0"/>
        <pt x="293" y="38" on="0"/>
        <pt x="309" y="32" on="0"/>
        <pt x="341" y="29" on="0"/>
        <pt x="371" y="29" on="1"/>
        <pt x="388" y="29" on="0"/>
        <pt x="399" y="26" on="0"/>
        <pt x="399" y="18" on="1"/>
        <pt x="399" y="4" on="0"/>
        <pt x="385" y="0" on="0"/>
        <pt x="378" y="0" on="1"/>
        <pt x="361" y="0" on="0"/>
        <pt x="327" y="2" on="0"/>
        <pt x="310" y="2" on="1"/>
        <pt x="172" y="2" on="1"/>
        <pt x="155" y="2" on="0"/>
        <pt x="121" y="0" on="0"/>
        <pt x="104" y="0" on="1"/>
        <pt x="99" y="0" on="0"/>
        <pt x="88" y="2" on="0"/>
        <pt x="88" y="10" on="1"/>
        <pt x="88" y="24" on="0"/>
        <pt x="102" y="29" on="0"/>
        <pt x="122" y="29" on="1"/>
        <pt x="155" y="29" on="0"/>
        <pt x="193" y="33" on="0"/>
        <pt x="212" y="45" on="0"/>
        <pt x="221" y="66" on="0"/>
        <pt x="225" y="84" on="1"/>
        <pt x="228" y="97" on="0"/>
        <pt x="230" y="105" on="0"/>
        <pt x="231" y="111" on="0"/>
        <pt x="234" y="119" on="0"/>
        <pt x="237" y="132" on="1"/>
        <pt x="185" y="137" on="0"/>
        <pt x="105" y="168" on="0"/>
        <pt x="50" y="215" on="0"/>
        <pt x="22" y="273" on="0"/>
        <pt x="22" y="305" on="1"/>
        <pt x="22" y="351" on="0"/>
        <pt x="75" y="436" on="0"/>
        <pt x="164" y="503" on="0"/>
        <pt x="279" y="546" on="0"/>
        <pt x="341" y="550" on="1"/>
        <pt x="344" y="560" on="0"/>
        <pt x="350" y="586" on="0"/>
        <pt x="356" y="610" on="0"/>
        <pt x="360" y="628" on="0"/>
        <pt x="360" y="631" on="1"/>
        <pt x="360" y="637" on="0"/>
        <pt x="358" y="645" on="0"/>
        <pt x="343" y="651" on="0"/>
        <pt x="313" y="654" on="0"/>
        <pt x="284" y="654" on="1"/>
        <pt x="269" y="654" on="0"/>
        <pt x="262" y="654" on="0"/>
        <pt x="260" y="655" on="1"/>
        <pt x="252" y="655" on="0"/>
        <pt x="252" y="664" on="1"/>
        <pt x="252" y="678" on="0"/>
        <pt x="264" y="683" on="0"/>
        <pt x="272" y="683" on="1"/>
        <pt x="289" y="683" on="0"/>
        <pt x="323" y="681" on="0"/>
        <pt x="340" y="681" on="1"/>
      </contour>
      <contour>
        <pt x="336" y="530" on="1"/>
        <pt x="266" y="522" on="0"/>
        <pt x="177" y="465" on="0"/>
        <pt x="125" y="391" on="0"/>
        <pt x="105" y="313" on="0"/>
        <pt x="105" y="284" on="1"/>
        <pt x="105" y="253" on="0"/>
        <pt x="126" y="206" on="0"/>
        <pt x="163" y="174" on="0"/>
        <pt x="213" y="156" on="0"/>
        <pt x="242" y="153" on="1"/>
      </contour>
      <contour>
        <pt x="315" y="153" on="1"/>
        <pt x="386" y="161" on="0"/>
        <pt x="476" y="220" on="0"/>
        <pt x="527" y="295" on="0"/>
        <pt x="546" y="372" on="0"/>
        <pt x="546" y="399" on="1"/>
        <pt x="546" y="430" on="0"/>
        <pt x="525" y="477" on="0"/>
        <pt x="488" y="509" on="0"/>
        <pt x="438" y="527" on="0"/>
        <pt x="409" y="530" on="1"/>
      </contour>
    </TTGlyph>
    <TTGlyph name="Pi" xMin="46" yMin="0" xMax="857" yMax="681">
      <contour>
        <pt x="611" y="63" on="1"/>
        <pt x="609" y="57" on="0"/>
        <pt x="609" y="48" on="0"/>
        <pt x="609" y="47" on="1"/>
        <pt x="609" y="43" on="0"/>
        <pt x="611" y="37" on="0"/>
        <pt x="622" y="32" on="0"/>
        <pt x="647" y="29" on="0"/>
        <pt x="670" y="29" on="1"/>
        <pt x="681" y="29" on="0"/>
        <pt x="694" y="27" on="0"/>
        <pt x="694" y="19" on="1"/>
        <pt x="694" y="5" on="0"/>
        <pt x="681" y="0" on="0"/>
        <pt x="675" y="0" on="1"/>
        <pt x="661" y="0" on="0"/>
        <pt x="630" y="2" on="0"/>
        <pt x="616" y="2" on="1"/>
        <pt x="498" y="2" on="1"/>
        <pt x="484" y="2" on="0"/>
        <pt x="454" y="0" on="0"/>
        <pt x="440" y="0" on="1"/>
        <pt x="438" y="0" on="0"/>
        <pt x="426" y="2" on="0"/>
        <pt x="426" y="10" on="1"/>
        <pt x="426" y="24" on="0"/>
        <pt x="439" y="29" on="0"/>
        <pt x="456" y="29" on="1"/>
        <pt x="482" y="29" on="0"/>
        <pt x="511" y="33" on="0"/>
        <pt x="526" y="44" on="0"/>
        <pt x="533" y="61" on="0"/>
        <pt x="536" y="74" on="1"/>
        <pt x="681" y="652" on="1"/>
        <pt x="378" y="652" on="1"/>
        <pt x="231" y="63" on="1"/>
        <pt x="229" y="57" on="0"/>
        <pt x="229" y="48" on="0"/>
        <pt x="229" y="47" on="1"/>
        <pt x="229" y="43" on="0"/>
        <pt x="231" y="37" on="0"/>
        <pt x="242" y="32" on="0"/>
        <pt x="267" y="29" on="0"/>
        <pt x="290" y="29" on="1"/>
        <pt x="301" y="29" on="0"/>
        <pt x="314" y="27" on="0"/>
        <pt x="314" y="19" on="1"/>
        <pt x="314" y="5" on="0"/>
        <pt x="301" y="0" on="0"/>
        <pt x="295" y="0" on="1"/>
        <pt x="281" y="0" on="0"/>
        <pt x="250" y="2" on="0"/>
        <pt x="236" y="2" on="1"/>
        <pt x="118" y="2" on="1"/>
        <pt x="104" y="2" on="0"/>
        <pt x="74" y="0" on="0"/>
        <pt x="60" y="0" on="1"/>
        <pt x="58" y="0" on="0"/>
        <pt x="46" y="2" on="0"/>
        <pt x="46" y="10" on="1"/>
        <pt x="46" y="24" on="0"/>
        <pt x="59" y="29" on="0"/>
        <pt x="76" y="29" on="1"/>
        <pt x="102" y="29" on="0"/>
        <pt x="131" y="33" on="0"/>
        <pt x="146" y="44" on="0"/>
        <pt x="153" y="61" on="0"/>
        <pt x="156" y="74" on="1"/>
        <pt x="292" y="616" on="1"/>
        <pt x="292" y="618" on="0"/>
        <pt x="295" y="629" on="0"/>
        <pt x="295" y="634" on="1"/>
        <pt x="295" y="638" on="0"/>
        <pt x="293" y="645" on="0"/>
        <pt x="281" y="649" on="0"/>
        <pt x="256" y="652" on="0"/>
        <pt x="233" y="652" on="1"/>
        <pt x="222" y="652" on="0"/>
        <pt x="209" y="654" on="0"/>
        <pt x="209" y="662" on="1"/>
        <pt x="209" y="676" on="0"/>
        <pt x="222" y="681" on="0"/>
        <pt x="237" y="681" on="1"/>
        <pt x="831" y="681" on="1"/>
        <pt x="844" y="681" on="0"/>
        <pt x="857" y="679" on="0"/>
        <pt x="857" y="671" on="1"/>
        <pt x="857" y="657" on="0"/>
        <pt x="844" y="652" on="0"/>
        <pt x="827" y="652" on="1"/>
        <pt x="801" y="652" on="0"/>
        <pt x="772" y="648" on="0"/>
        <pt x="757" y="637" on="0"/>
        <pt x="750" y="620" on="0"/>
        <pt x="747" y="606" on="1"/>
      </contour>
    </TTGlyph>
    <TTGlyph name="Psi" xMin="27" yMin="0" xMax="679" yMax="683">
      <contour>
        <pt x="292" y="155" on="1"/>
        <pt x="347" y="169" on="0"/>
        <pt x="421" y="233" on="0"/>
        <pt x="469" y="310" on="0"/>
        <pt x="494" y="387" on="0"/>
        <pt x="501" y="413" on="1"/>
        <pt x="509" y="445" on="0"/>
        <pt x="535" y="503" on="0"/>
        <pt x="552" y="523" on="1"/>
        <pt x="575" y="547" on="0"/>
        <pt x="611" y="555" on="0"/>
        <pt x="628" y="555" on="1"/>
        <pt x="653" y="555" on="1"/>
        <pt x="667" y="555" on="0"/>
        <pt x="679" y="553" on="0"/>
        <pt x="679" y="545" on="1"/>
        <pt x="679" y="539" on="0"/>
        <pt x="671" y="536" on="0"/>
        <pt x="665" y="535" on="1"/>
        <pt x="643" y="532" on="0"/>
        <pt x="611" y="502" on="0"/>
        <pt x="590" y="463" on="0"/>
        <pt x="576" y="419" on="0"/>
        <pt x="571" y="402" on="1"/>
        <pt x="556" y="350" on="0"/>
        <pt x="509" y="258" on="0"/>
        <pt x="440" y="186" on="0"/>
        <pt x="347" y="139" on="0"/>
        <pt x="286" y="133" on="1"/>
        <pt x="279" y="104" on="0"/>
        <pt x="271" y="71" on="0"/>
        <pt x="268" y="56" on="0"/>
        <pt x="267" y="52" on="0"/>
        <pt x="267" y="51" on="1"/>
        <pt x="267" y="45" on="0"/>
        <pt x="270" y="37" on="0"/>
        <pt x="286" y="32" on="0"/>
        <pt x="318" y="29" on="0"/>
        <pt x="348" y="29" on="1"/>
        <pt x="365" y="29" on="0"/>
        <pt x="376" y="26" on="0"/>
        <pt x="376" y="18" on="1"/>
        <pt x="376" y="4" on="0"/>
        <pt x="362" y="0" on="0"/>
        <pt x="356" y="0" on="1"/>
        <pt x="339" y="0" on="0"/>
        <pt x="304" y="2" on="0"/>
        <pt x="287" y="2" on="1"/>
        <pt x="149" y="2" on="1"/>
        <pt x="132" y="2" on="0"/>
        <pt x="98" y="0" on="0"/>
        <pt x="81" y="0" on="1"/>
        <pt x="76" y="0" on="0"/>
        <pt x="65" y="2" on="0"/>
        <pt x="65" y="10" on="1"/>
        <pt x="65" y="24" on="0"/>
        <pt x="79" y="29" on="0"/>
        <pt x="99" y="29" on="1"/>
        <pt x="132" y="29" on="0"/>
        <pt x="170" y="33" on="0"/>
        <pt x="189" y="45" on="0"/>
        <pt x="198" y="67" on="0"/>
        <pt x="202" y="85" on="1"/>
        <pt x="214" y="133" on="1"/>
        <pt x="134" y="144" on="0"/>
        <pt x="52" y="235" on="0"/>
        <pt x="52" y="315" on="1"/>
        <pt x="52" y="331" on="0"/>
        <pt x="56" y="362" on="0"/>
        <pt x="60" y="388" on="0"/>
        <pt x="65" y="408" on="0"/>
        <pt x="66" y="412" on="1"/>
        <pt x="70" y="429" on="0"/>
        <pt x="75" y="461" on="0"/>
        <pt x="75" y="477" on="1"/>
        <pt x="75" y="497" on="0"/>
        <pt x="67" y="519" on="0"/>
        <pt x="56" y="531" on="0"/>
        <pt x="44" y="534" on="0"/>
        <pt x="39" y="535" on="1"/>
        <pt x="37" y="535" on="0"/>
        <pt x="27" y="538" on="0"/>
        <pt x="27" y="545" on="1"/>
        <pt x="27" y="553" on="0"/>
        <pt x="40" y="555" on="0"/>
        <pt x="53" y="555" on="1"/>
        <pt x="77" y="555" on="1"/>
        <pt x="87" y="555" on="0"/>
        <pt x="111" y="553" on="0"/>
        <pt x="132" y="538" on="0"/>
        <pt x="147" y="506" on="0"/>
        <pt x="147" y="477" on="1"/>
        <pt x="147" y="458" on="0"/>
        <pt x="141" y="424" on="0"/>
        <pt x="136" y="402" on="1"/>
        <pt x="126" y="362" on="0"/>
        <pt x="121" y="309" on="0"/>
        <pt x="121" y="298" on="1"/>
        <pt x="121" y="239" on="0"/>
        <pt x="168" y="166" on="0"/>
        <pt x="219" y="154" on="1"/>
        <pt x="333" y="607" on="1"/>
        <pt x="336" y="619" on="0"/>
        <pt x="337" y="630" on="0"/>
        <pt x="337" y="631" on="1"/>
        <pt x="337" y="637" on="0"/>
        <pt x="335" y="645" on="0"/>
        <pt x="320" y="651" on="0"/>
        <pt x="288" y="654" on="0"/>
        <pt x="258" y="654" on="1"/>
        <pt x="242" y="654" on="0"/>
        <pt x="229" y="656" on="0"/>
        <pt x="229" y="664" on="1"/>
        <pt x="229" y="678" on="0"/>
        <pt x="242" y="683" on="0"/>
        <pt x="249" y="683" on="1"/>
        <pt x="266" y="683" on="0"/>
        <pt x="300" y="681" on="0"/>
        <pt x="317" y="681" on="1"/>
        <pt x="456" y="681" on="1"/>
        <pt x="473" y="681" on="0"/>
        <pt x="507" y="683" on="0"/>
        <pt x="524" y="683" on="1"/>
        <pt x="527" y="683" on="0"/>
        <pt x="539" y="681" on="0"/>
        <pt x="539" y="673" on="1"/>
        <pt x="539" y="659" on="0"/>
        <pt x="525" y="654" on="0"/>
        <pt x="505" y="654" on="1"/>
        <pt x="472" y="654" on="0"/>
        <pt x="435" y="650" on="0"/>
        <pt x="416" y="639" on="0"/>
        <pt x="408" y="620" on="0"/>
        <pt x="405" y="606" on="1"/>
      </contour>
    </TTGlyph>
    <TTGlyph name="Q" xMin="48" yMin="-194" xMax="726" yMax="704">
      <contour>
        <pt x="426" y="6" on="1"/>
        <pt x="430" y="-52" on="0"/>
        <pt x="457" y="-106" on="0"/>
        <pt x="495" y="-106" on="1"/>
        <pt x="528" y="-106" on="0"/>
        <pt x="596" y="-55" on="0"/>
        <pt x="613" y="-7" on="1"/>
        <pt x="617" y="9" on="0"/>
        <pt x="624" y="9" on="1"/>
        <pt x="633" y="9" on="0"/>
        <pt x="633" y="-1" on="1"/>
        <pt x="633" y="-3" on="0"/>
        <pt x="625" y="-32" on="0"/>
        <pt x="609" y="-75" on="0"/>
        <pt x="583" y="-124" on="0"/>
        <pt x="547" y="-166" on="0"/>
        <pt x="500" y="-194" on="0"/>
        <pt x="470" y="-194" on="1"/>
        <pt x="440" y="-194" on="0"/>
        <pt x="408" y="-170" on="0"/>
        <pt x="393" y="-136" on="0"/>
        <pt x="390" y="-101" on="0"/>
        <pt x="390" y="-90" on="1"/>
        <pt x="390" y="-83" on="0"/>
        <pt x="390" y="-72" on="0"/>
        <pt x="391" y="-55" on="0"/>
        <pt x="394" y="-29" on="0"/>
        <pt x="396" y="-6" on="1"/>
        <pt x="348" y="-21" on="0"/>
        <pt x="297" y="-21" on="1"/>
        <pt x="243" y="-21" on="0"/>
        <pt x="151" y="17" on="0"/>
        <pt x="85" y="87" on="0"/>
        <pt x="48" y="184" on="0"/>
        <pt x="48" y="243" on="1"/>
        <pt x="48" y="330" on="0"/>
        <pt x="122" y="495" on="0"/>
        <pt x="243" y="625" on="0"/>
        <pt x="398" y="704" on="0"/>
        <pt x="478" y="704" on="1"/>
        <pt x="531" y="704" on="0"/>
        <pt x="621" y="667" on="0"/>
        <pt x="688" y="598" on="0"/>
        <pt x="726" y="500" on="0"/>
        <pt x="726" y="438" on="1"/>
        <pt x="726" y="370" on="0"/>
        <pt x="681" y="238" on="0"/>
        <pt x="600" y="122" on="0"/>
        <pt x="491" y="32" on="0"/>
      </contour>
      <contour>
        <pt x="246" y="11" on="1"/>
        <pt x="243" y="16" on="0"/>
        <pt x="238" y="36" on="0"/>
        <pt x="238" y="44" on="1"/>
        <pt x="238" y="62" on="0"/>
        <pt x="254" y="99" on="0"/>
        <pt x="281" y="129" on="0"/>
        <pt x="318" y="147" on="0"/>
        <pt x="338" y="147" on="1"/>
        <pt x="363" y="147" on="0"/>
        <pt x="394" y="127" on="0"/>
        <pt x="413" y="95" on="0"/>
        <pt x="421" y="55" on="0"/>
        <pt x="423" y="36" on="1"/>
        <pt x="470" y="64" on="0"/>
        <pt x="540" y="139" on="0"/>
        <pt x="589" y="222" on="0"/>
        <pt x="621" y="309" on="0"/>
        <pt x="639" y="386" on="0"/>
        <pt x="646" y="450" on="0"/>
        <pt x="646" y="468" on="1"/>
        <pt x="646" y="517" on="0"/>
        <pt x="621" y="596" on="0"/>
        <pt x="575" y="652" on="0"/>
        <pt x="511" y="682" on="0"/>
        <pt x="472" y="682" on="1"/>
        <pt x="413" y="682" on="0"/>
        <pt x="277" y="603" on="0"/>
        <pt x="221" y="517" on="1"/>
        <pt x="196" y="479" on="0"/>
        <pt x="161" y="394" on="0"/>
        <pt x="139" y="312" on="0"/>
        <pt x="129" y="239" on="0"/>
        <pt x="129" y="213" on="1"/>
        <pt x="129" y="179" on="0"/>
        <pt x="143" y="114" on="0"/>
        <pt x="172" y="61" on="0"/>
        <pt x="216" y="21" on="0"/>
      </contour>
      <contour>
        <pt x="398" y="23" on="1"/>
        <pt x="399" y="28" on="0"/>
        <pt x="399" y="38" on="0"/>
        <pt x="399" y="43" on="1"/>
        <pt x="399" y="62" on="0"/>
        <pt x="394" y="93" on="0"/>
        <pt x="381" y="115" on="0"/>
        <pt x="357" y="127" on="0"/>
        <pt x="338" y="127" on="1"/>
        <pt x="321" y="127" on="0"/>
        <pt x="292" y="112" on="0"/>
        <pt x="270" y="88" on="0"/>
        <pt x="258" y="59" on="0"/>
        <pt x="258" y="45" on="1"/>
        <pt x="258" y="29" on="0"/>
        <pt x="269" y="11" on="0"/>
        <pt x="284" y="2" on="0"/>
        <pt x="299" y="1" on="0"/>
        <pt x="303" y="1" on="1"/>
        <pt x="324" y="1" on="0"/>
        <pt x="371" y="11" on="0"/>
      </contour>
    </TTGlyph>
    <TTGlyph name="R" xMin="47" yMin="-21" xMax="740" yMax="683">
      <contour>
        <pt x="302" y="352" on="1"/>
        <pt x="415" y="352" on="1"/>
        <pt x="465" y="352" on="0"/>
        <pt x="538" y="374" on="0"/>
        <pt x="588" y="410" on="0"/>
        <pt x="619" y="454" on="0"/>
        <pt x="636" y="498" on="0"/>
        <pt x="642" y="537" on="0"/>
        <pt x="642" y="550" on="1"/>
        <pt x="642" y="579" on="0"/>
        <pt x="619" y="619" on="0"/>
        <pt x="579" y="643" on="0"/>
        <pt x="524" y="654" on="0"/>
        <pt x="492" y="654" on="1"/>
        <pt x="420" y="654" on="1"/>
        <pt x="405" y="654" on="0"/>
        <pt x="388" y="652" on="0"/>
        <pt x="378" y="645" on="0"/>
        <pt x="371" y="629" on="0"/>
        <pt x="368" y="615" on="1"/>
      </contour>
      <contour>
        <pt x="507" y="340" on="1"/>
        <pt x="521" y="336" on="0"/>
        <pt x="555" y="319" on="0"/>
        <pt x="584" y="291" on="0"/>
        <pt x="604" y="251" on="0"/>
        <pt x="604" y="224" on="1"/>
        <pt x="604" y="218" on="0"/>
        <pt x="603" y="203" on="0"/>
        <pt x="599" y="175" on="1"/>
        <pt x="599" y="173" on="0"/>
        <pt x="594" y="142" on="0"/>
        <pt x="590" y="102" on="0"/>
        <pt x="586" y="64" on="0"/>
        <pt x="586" y="55" on="1"/>
        <pt x="586" y="21" on="0"/>
        <pt x="608" y="-1" on="0"/>
        <pt x="627" y="-1" on="1"/>
        <pt x="636" y="-1" on="0"/>
        <pt x="660" y="7" on="0"/>
        <pt x="685" y="27" on="0"/>
        <pt x="708" y="61" on="0"/>
        <pt x="717" y="88" on="1"/>
        <pt x="719" y="94" on="0"/>
        <pt x="723" y="102" on="0"/>
        <pt x="729" y="102" on="1"/>
        <pt x="740" y="102" on="0"/>
        <pt x="740" y="92" on="1"/>
        <pt x="740" y="87" on="0"/>
        <pt x="727" y="50" on="0"/>
        <pt x="698" y="10" on="0"/>
        <pt x="654" y="-21" on="0"/>
        <pt x="624" y="-21" on="1"/>
        <pt x="599" y="-21" on="0"/>
        <pt x="554" y="-8" on="0"/>
        <pt x="519" y="17" on="0"/>
        <pt x="499" y="56" on="0"/>
        <pt x="499" y="83" on="1"/>
        <pt x="499" y="97" on="0"/>
        <pt x="505" y="125" on="0"/>
        <pt x="513" y="159" on="1"/>
        <pt x="516" y="169" on="0"/>
        <pt x="522" y="192" on="0"/>
        <pt x="527" y="214" on="0"/>
        <pt x="530" y="233" on="0"/>
        <pt x="530" y="239" on="1"/>
        <pt x="530" y="251" on="0"/>
        <pt x="521" y="284" on="0"/>
        <pt x="497" y="312" on="0"/>
        <pt x="453" y="332" on="0"/>
        <pt x="417" y="332" on="1"/>
        <pt x="297" y="332" on="1"/>
        <pt x="230" y="63" on="1"/>
        <pt x="228" y="57" on="0"/>
        <pt x="228" y="48" on="0"/>
        <pt x="228" y="47" on="1"/>
        <pt x="228" y="43" on="0"/>
        <pt x="230" y="37" on="0"/>
        <pt x="241" y="32" on="0"/>
        <pt x="266" y="29" on="0"/>
        <pt x="289" y="29" on="1"/>
        <pt x="300" y="29" on="0"/>
        <pt x="313" y="27" on="0"/>
        <pt x="313" y="19" on="1"/>
        <pt x="313" y="5" on="0"/>
        <pt x="300" y="0" on="0"/>
        <pt x="294" y="0" on="1"/>
        <pt x="280" y="0" on="0"/>
        <pt x="251" y="2" on="0"/>
        <pt x="237" y="2" on="1"/>
        <pt x="119" y="2" on="1"/>
        <pt x="105" y="2" on="0"/>
        <pt x="75" y="0" on="0"/>
        <pt x="61" y="0" on="1"/>
        <pt x="59" y="0" on="0"/>
        <pt x="47" y="2" on="0"/>
        <pt x="47" y="10" on="1"/>
        <pt x="47" y="24" on="0"/>
        <pt x="60" y="29" on="0"/>
        <pt x="77" y="29" on="1"/>
        <pt x="103" y="29" on="0"/>
        <pt x="132" y="33" on="0"/>
        <pt x="147" y="44" on="0"/>
        <pt x="154" y="61" on="0"/>
        <pt x="157" y="74" on="1"/>
        <pt x="292" y="612" on="1"/>
        <pt x="295" y="623" on="0"/>
        <pt x="296" y="633" on="0"/>
        <pt x="296" y="635" on="1"/>
        <pt x="296" y="639" on="0"/>
        <pt x="294" y="646" on="0"/>
        <pt x="283" y="651" on="0"/>
        <pt x="259" y="654" on="0"/>
        <pt x="236" y="654" on="1"/>
        <pt x="222" y="654" on="0"/>
        <pt x="210" y="656" on="0"/>
        <pt x="210" y="664" on="1"/>
        <pt x="210" y="678" on="0"/>
        <pt x="224" y="683" on="0"/>
        <pt x="239" y="683" on="1"/>
        <pt x="510" y="683" on="1"/>
        <pt x="562" y="683" on="0"/>
        <pt x="643" y="658" on="0"/>
        <pt x="699" y="616" on="0"/>
        <pt x="728" y="562" on="0"/>
        <pt x="728" y="533" on="1"/>
        <pt x="728" y="501" on="0"/>
        <pt x="694" y="440" on="0"/>
        <pt x="634" y="389" on="0"/>
        <pt x="554" y="350" on="0"/>
      </contour>
    </TTGlyph>
    <TTGlyph name="S" xMin="51" yMin="-21" xMax="635" yMax="704">
      <contour>
        <pt x="581" y="475" on="1"/>
        <pt x="578" y="463" on="0"/>
        <pt x="574" y="456" on="0"/>
        <pt x="567" y="456" on="1"/>
        <pt x="565" y="456" on="0"/>
        <pt x="556" y="458" on="0"/>
        <pt x="556" y="465" on="1"/>
        <pt x="556" y="468" on="0"/>
        <pt x="561" y="502" on="0"/>
        <pt x="561" y="522" on="1"/>
        <pt x="561" y="594" on="0"/>
        <pt x="491" y="677" on="0"/>
        <pt x="417" y="677" on="1"/>
        <pt x="381" y="677" on="0"/>
        <pt x="316" y="648" on="0"/>
        <pt x="267" y="600" on="0"/>
        <pt x="237" y="539" on="0"/>
        <pt x="237" y="507" on="1"/>
        <pt x="237" y="481" on="0"/>
        <pt x="254" y="445" on="0"/>
        <pt x="267" y="432" on="1"/>
        <pt x="274" y="426" on="0"/>
        <pt x="286" y="418" on="0"/>
        <pt x="305" y="411" on="0"/>
        <pt x="336" y="402" on="0"/>
        <pt x="361" y="395" on="1"/>
        <pt x="396" y="386" on="0"/>
        <pt x="439" y="374" on="0"/>
        <pt x="467" y="364" on="0"/>
        <pt x="484" y="353" on="0"/>
        <pt x="492" y="345" on="1"/>
        <pt x="521" y="317" on="0"/>
        <pt x="540" y="261" on="0"/>
        <pt x="540" y="229" on="1"/>
        <pt x="540" y="182" on="0"/>
        <pt x="499" y="92" on="0"/>
        <pt x="431" y="22" on="0"/>
        <pt x="341" y="-21" on="0"/>
        <pt x="293" y="-21" on="1"/>
        <pt x="258" y="-21" on="0"/>
        <pt x="203" y="-7" on="0"/>
        <pt x="162" y="14" on="0"/>
        <pt x="133" y="42" on="0"/>
        <pt x="124" y="55" on="1"/>
        <pt x="78" y="-5" on="1"/>
        <pt x="69" y="-16" on="0"/>
        <pt x="64" y="-21" on="0"/>
        <pt x="61" y="-21" on="1"/>
        <pt x="59" y="-21" on="0"/>
        <pt x="51" y="-19" on="0"/>
        <pt x="51" y="-12" on="1"/>
        <pt x="51" y="-11" on="0"/>
        <pt x="55" y="2" on="0"/>
        <pt x="55" y="3" on="1"/>
        <pt x="106" y="208" on="1"/>
        <pt x="109" y="221" on="0"/>
        <pt x="113" y="227" on="0"/>
        <pt x="120" y="227" on="1"/>
        <pt x="126" y="227" on="0"/>
        <pt x="130" y="221" on="0"/>
        <pt x="130" y="218" on="1"/>
        <pt x="130" y="216" on="0"/>
        <pt x="129" y="210" on="0"/>
        <pt x="129" y="208" on="1"/>
        <pt x="127" y="200" on="0"/>
        <pt x="122" y="169" on="0"/>
        <pt x="122" y="155" on="1"/>
        <pt x="122" y="113" on="0"/>
        <pt x="153" y="57" on="0"/>
        <pt x="203" y="22" on="0"/>
        <pt x="264" y="8" on="0"/>
        <pt x="295" y="8" on="1"/>
        <pt x="333" y="8" on="0"/>
        <pt x="400" y="41" on="0"/>
        <pt x="451" y="94" on="0"/>
        <pt x="481" y="162" on="0"/>
        <pt x="481" y="197" on="1"/>
        <pt x="481" y="232" on="0"/>
        <pt x="460" y="268" on="0"/>
        <pt x="457" y="272" on="1"/>
        <pt x="449" y="280" on="0"/>
        <pt x="435" y="291" on="0"/>
        <pt x="417" y="299" on="0"/>
        <pt x="391" y="307" on="0"/>
        <pt x="372" y="312" on="1"/>
        <pt x="361" y="315" on="0"/>
        <pt x="330" y="323" on="0"/>
        <pt x="300" y="331" on="0"/>
        <pt x="276" y="338" on="0"/>
        <pt x="272" y="339" on="1"/>
        <pt x="235" y="352" on="0"/>
        <pt x="178" y="419" on="0"/>
        <pt x="178" y="475" on="1"/>
        <pt x="178" y="517" on="0"/>
        <pt x="218" y="600" on="0"/>
        <pt x="285" y="664" on="0"/>
        <pt x="372" y="704" on="0"/>
        <pt x="420" y="704" on="1"/>
        <pt x="436" y="704" on="0"/>
        <pt x="474" y="699" on="0"/>
        <pt x="513" y="682" on="0"/>
        <pt x="549" y="652" on="0"/>
        <pt x="561" y="628" on="1"/>
        <pt x="561" y="628" on="0"/>
        <pt x="575" y="645" on="0"/>
        <pt x="591" y="666" on="0"/>
        <pt x="607" y="685" on="0"/>
        <pt x="609" y="688" on="1"/>
        <pt x="618" y="699" on="0"/>
        <pt x="623" y="704" on="0"/>
        <pt x="626" y="704" on="1"/>
        <pt x="628" y="704" on="0"/>
        <pt x="635" y="702" on="0"/>
        <pt x="635" y="695" on="1"/>
      </contour>
    </TTGlyph>
    <TTGlyph name="Sigma" xMin="57" yMin="0" xMax="794" yMax="683">
      <contour>
        <pt x="121" y="38" on="1"/>
        <pt x="395" y="38" on="1"/>
        <pt x="460" y="38" on="0"/>
        <pt x="550" y="53" on="0"/>
        <pt x="614" y="92" on="0"/>
        <pt x="661" y="163" on="0"/>
        <pt x="683" y="218" on="1"/>
        <pt x="686" y="225" on="0"/>
        <pt x="691" y="232" on="0"/>
        <pt x="697" y="232" on="1"/>
        <pt x="707" y="232" on="0"/>
        <pt x="707" y="222" on="1"/>
        <pt x="707" y="221" on="0"/>
        <pt x="706" y="217" on="0"/>
        <pt x="703" y="209" on="1"/>
        <pt x="632" y="17" on="1"/>
        <pt x="627" y="5" on="0"/>
        <pt x="619" y="0" on="0"/>
        <pt x="602" y="0" on="1"/>
        <pt x="83" y="0" on="1"/>
        <pt x="69" y="0" on="0"/>
        <pt x="57" y="2" on="0"/>
        <pt x="57" y="10" on="1"/>
        <pt x="57" y="13" on="0"/>
        <pt x="62" y="18" on="0"/>
        <pt x="67" y="23" on="1"/>
        <pt x="372" y="304" on="1"/>
        <pt x="220" y="662" on="1"/>
        <pt x="220" y="678" on="0"/>
        <pt x="234" y="683" on="0"/>
        <pt x="249" y="683" on="1"/>
        <pt x="768" y="683" on="1"/>
        <pt x="783" y="683" on="0"/>
        <pt x="794" y="680" on="0"/>
        <pt x="794" y="671" on="1"/>
        <pt x="771" y="484" on="1"/>
        <pt x="769" y="470" on="0"/>
        <pt x="766" y="460" on="0"/>
        <pt x="758" y="460" on="1"/>
        <pt x="753" y="460" on="0"/>
        <pt x="748" y="467" on="0"/>
        <pt x="748" y="470" on="1"/>
        <pt x="748" y="482" on="0"/>
        <pt x="752" y="513" on="0"/>
        <pt x="752" y="527" on="1"/>
        <pt x="752" y="566" on="0"/>
        <pt x="733" y="615" on="0"/>
        <pt x="688" y="644" on="0"/>
        <pt x="614" y="654" on="0"/>
        <pt x="559" y="654" on="1"/>
        <pt x="314" y="654" on="1"/>
        <pt x="440" y="355" on="1"/>
        <pt x="441" y="353" on="0"/>
        <pt x="445" y="343" on="0"/>
        <pt x="445" y="342" on="1"/>
        <pt x="445" y="338" on="0"/>
        <pt x="441" y="334" on="0"/>
        <pt x="435" y="328" on="1"/>
      </contour>
    </TTGlyph>
    <TTGlyph name="T" xMin="24" yMin="0" xMax="692" yMax="678">
      <contour>
        <pt x="283" y="77" on="1"/>
        <pt x="280" y="65" on="0"/>
        <pt x="279" y="54" on="0"/>
        <pt x="279" y="53" on="1"/>
        <pt x="279" y="47" on="0"/>
        <pt x="282" y="38" on="0"/>
        <pt x="299" y="32" on="0"/>
        <pt x="335" y="29" on="0"/>
        <pt x="369" y="29" on="1"/>
        <pt x="389" y="29" on="0"/>
        <pt x="402" y="27" on="0"/>
        <pt x="402" y="19" on="1"/>
        <pt x="402" y="5" on="0"/>
        <pt x="389" y="0" on="0"/>
        <pt x="381" y="0" on="1"/>
        <pt x="362" y="0" on="0"/>
        <pt x="323" y="2" on="0"/>
        <pt x="304" y="2" on="1"/>
        <pt x="148" y="2" on="1"/>
        <pt x="129" y="2" on="0"/>
        <pt x="91" y="0" on="0"/>
        <pt x="72" y="0" on="1"/>
        <pt x="68" y="0" on="0"/>
        <pt x="56" y="2" on="0"/>
        <pt x="56" y="10" on="1"/>
        <pt x="56" y="24" on="0"/>
        <pt x="69" y="29" on="0"/>
        <pt x="88" y="29" on="1"/>
        <pt x="128" y="29" on="0"/>
        <pt x="172" y="33" on="0"/>
        <pt x="194" y="44" on="0"/>
        <pt x="202" y="63" on="0"/>
        <pt x="206" y="78" on="1"/>
        <pt x="340" y="615" on="1"/>
        <pt x="344" y="629" on="0"/>
        <pt x="345" y="636" on="0"/>
        <pt x="345" y="638" on="1"/>
        <pt x="345" y="646" on="0"/>
        <pt x="329" y="649" on="0"/>
        <pt x="311" y="649" on="1"/>
        <pt x="244" y="649" on="1"/>
        <pt x="194" y="649" on="0"/>
        <pt x="132" y="628" on="0"/>
        <pt x="92" y="584" on="0"/>
        <pt x="64" y="517" on="0"/>
        <pt x="48" y="472" on="1"/>
        <pt x="45" y="462" on="0"/>
        <pt x="40" y="455" on="0"/>
        <pt x="34" y="455" on="1"/>
        <pt x="24" y="455" on="0"/>
        <pt x="24" y="465" on="1"/>
        <pt x="24" y="466" on="0"/>
        <pt x="27" y="477" on="0"/>
        <pt x="28" y="479" on="1"/>
        <pt x="89" y="659" on="1"/>
        <pt x="91" y="666" on="0"/>
        <pt x="95" y="673" on="0"/>
        <pt x="101" y="677" on="0"/>
        <pt x="110" y="678" on="0"/>
        <pt x="119" y="678" on="1"/>
        <pt x="666" y="678" on="1"/>
        <pt x="681" y="678" on="0"/>
        <pt x="692" y="675" on="0"/>
        <pt x="692" y="667" on="1"/>
        <pt x="692" y="665" on="0"/>
        <pt x="692" y="660" on="0"/>
        <pt x="690" y="653" on="1"/>
        <pt x="661" y="476" on="1"/>
        <pt x="659" y="464" on="0"/>
        <pt x="656" y="455" on="0"/>
        <pt x="648" y="455" on="1"/>
        <pt x="643" y="455" on="0"/>
        <pt x="638" y="462" on="0"/>
        <pt x="638" y="465" on="1"/>
        <pt x="639" y="477" on="1"/>
        <pt x="644" y="505" on="0"/>
        <pt x="649" y="556" on="0"/>
        <pt x="649" y="567" on="1"/>
        <pt x="649" y="596" on="0"/>
        <pt x="631" y="629" on="0"/>
        <pt x="595" y="645" on="0"/>
        <pt x="540" y="649" on="0"/>
        <pt x="502" y="649" on="1"/>
        <pt x="486" y="649" on="0"/>
        <pt x="446" y="649" on="0"/>
        <pt x="440" y="647" on="1"/>
        <pt x="429" y="644" on="0"/>
        <pt x="422" y="628" on="0"/>
        <pt x="417" y="610" on="1"/>
      </contour>
    </TTGlyph>
    <TTGlyph name="Theta" xMin="48" yMin="-21" xMax="726" yMax="704">
      <contour>
        <pt x="726" y="438" on="1"/>
        <pt x="726" y="378" on="0"/>
        <pt x="692" y="263" on="0"/>
        <pt x="631" y="161" on="0"/>
        <pt x="549" y="76" on="0"/>
        <pt x="454" y="14" on="0"/>
        <pt x="350" y="-21" on="0"/>
        <pt x="297" y="-21" on="1"/>
        <pt x="243" y="-21" on="0"/>
        <pt x="151" y="17" on="0"/>
        <pt x="85" y="87" on="0"/>
        <pt x="48" y="184" on="0"/>
        <pt x="48" y="243" on="1"/>
        <pt x="48" y="330" on="0"/>
        <pt x="122" y="495" on="0"/>
        <pt x="243" y="625" on="0"/>
        <pt x="398" y="704" on="0"/>
        <pt x="478" y="704" on="1"/>
        <pt x="531" y="704" on="0"/>
        <pt x="621" y="667" on="0"/>
        <pt x="688" y="598" on="0"/>
        <pt x="726" y="500" on="0"/>
      </contour>
      <contour>
        <pt x="303" y="0" on="1"/>
        <pt x="360" y="0" on="0"/>
        <pt x="483" y="67" on="0"/>
        <pt x="534" y="132" on="1"/>
        <pt x="566" y="173" on="0"/>
        <pt x="610" y="265" on="0"/>
        <pt x="637" y="355" on="0"/>
        <pt x="648" y="437" on="0"/>
        <pt x="648" y="467" on="1"/>
        <pt x="648" y="525" on="0"/>
        <pt x="618" y="607" on="0"/>
        <pt x="568" y="660" on="0"/>
        <pt x="505" y="684" on="0"/>
        <pt x="473" y="684" on="1"/>
        <pt x="416" y="684" on="0"/>
        <pt x="289" y="614" on="0"/>
        <pt x="232" y="537" on="1"/>
        <pt x="206" y="501" on="0"/>
        <pt x="167" y="417" on="0"/>
        <pt x="140" y="332" on="0"/>
        <pt x="127" y="249" on="0"/>
        <pt x="127" y="215" on="1"/>
        <pt x="127" y="158" on="0"/>
        <pt x="157" y="77" on="0"/>
        <pt x="207" y="24" on="0"/>
        <pt x="270" y="0" on="0"/>
      </contour>
      <contour>
        <pt x="213" y="309" on="1"/>
        <pt x="213" y="307" on="0"/>
        <pt x="212" y="302" on="0"/>
        <pt x="208" y="289" on="1"/>
        <pt x="206" y="282" on="0"/>
        <pt x="203" y="275" on="0"/>
        <pt x="196" y="275" on="1"/>
        <pt x="186" y="275" on="0"/>
        <pt x="186" y="285" on="1"/>
        <pt x="186" y="287" on="0"/>
        <pt x="193" y="316" on="0"/>
        <pt x="202" y="352" on="0"/>
        <pt x="210" y="385" on="0"/>
        <pt x="211" y="389" on="1"/>
        <pt x="214" y="401" on="0"/>
        <pt x="218" y="409" on="0"/>
        <pt x="225" y="409" on="1"/>
        <pt x="235" y="409" on="0"/>
        <pt x="235" y="399" on="1"/>
        <pt x="235" y="397" on="0"/>
        <pt x="231" y="378" on="0"/>
        <pt x="230" y="375" on="1"/>
        <pt x="563" y="375" on="1"/>
        <pt x="563" y="377" on="0"/>
        <pt x="564" y="382" on="0"/>
        <pt x="568" y="395" on="1"/>
        <pt x="570" y="402" on="0"/>
        <pt x="573" y="409" on="0"/>
        <pt x="580" y="409" on="1"/>
        <pt x="590" y="409" on="0"/>
        <pt x="590" y="399" on="1"/>
        <pt x="590" y="398" on="0"/>
        <pt x="583" y="368" on="0"/>
        <pt x="574" y="332" on="0"/>
        <pt x="566" y="300" on="0"/>
        <pt x="565" y="295" on="1"/>
        <pt x="562" y="283" on="0"/>
        <pt x="558" y="275" on="0"/>
        <pt x="551" y="275" on="1"/>
        <pt x="541" y="275" on="0"/>
        <pt x="541" y="285" on="1"/>
        <pt x="541" y="287" on="0"/>
        <pt x="545" y="306" on="0"/>
        <pt x="546" y="309" on="1"/>
      </contour>
    </TTGlyph>
    <TTGlyph name="U" xMin="68" yMin="-21" xMax="739" yMax="683">
      <contour>
        <pt x="595" y="585" on="1"/>
        <pt x="598" y="596" on="0"/>
        <pt x="599" y="604" on="0"/>
        <pt x="599" y="611" on="1"/>
        <pt x="599" y="618" on="0"/>
        <pt x="596" y="632" on="0"/>
        <pt x="583" y="645" on="0"/>
        <pt x="558" y="653" on="0"/>
        <pt x="535" y="654" on="1"/>
        <pt x="530" y="654" on="0"/>
        <pt x="520" y="656" on="0"/>
        <pt x="520" y="664" on="1"/>
        <pt x="520" y="678" on="0"/>
        <pt x="533" y="683" on="0"/>
        <pt x="538" y="683" on="1"/>
        <pt x="539" y="683" on="0"/>
        <pt x="586" y="681" on="0"/>
        <pt x="633" y="681" on="1"/>
        <pt x="680" y="681" on="1"/>
        <pt x="691" y="681" on="0"/>
        <pt x="715" y="683" on="0"/>
        <pt x="726" y="683" on="1"/>
        <pt x="729" y="683" on="0"/>
        <pt x="739" y="680" on="0"/>
        <pt x="739" y="672" on="1"/>
        <pt x="739" y="656" on="0"/>
        <pt x="727" y="654" on="1"/>
        <pt x="694" y="653" on="0"/>
        <pt x="655" y="639" on="0"/>
        <pt x="633" y="616" on="0"/>
        <pt x="623" y="585" on="0"/>
        <pt x="618" y="565" on="1"/>
        <pt x="580" y="415" on="1"/>
        <pt x="577" y="405" on="0"/>
        <pt x="568" y="366" on="0"/>
        <pt x="557" y="321" on="0"/>
        <pt x="546" y="279" on="0"/>
        <pt x="542" y="265" on="1"/>
        <pt x="537" y="245" on="0"/>
        <pt x="525" y="199" on="0"/>
        <pt x="520" y="186" on="1"/>
        <pt x="501" y="138" on="0"/>
        <pt x="442" y="62" on="0"/>
        <pt x="372" y="8" on="0"/>
        <pt x="294" y="-21" on="0"/>
        <pt x="256" y="-21" on="1"/>
        <pt x="215" y="-21" on="0"/>
        <pt x="146" y="7" on="0"/>
        <pt x="96" y="57" on="0"/>
        <pt x="68" y="127" on="0"/>
        <pt x="68" y="168" on="1"/>
        <pt x="68" y="188" on="0"/>
        <pt x="75" y="225" on="0"/>
        <pt x="77" y="233" on="1"/>
        <pt x="164" y="583" on="1"/>
        <pt x="168" y="596" on="0"/>
        <pt x="176" y="630" on="0"/>
        <pt x="176" y="635" on="1"/>
        <pt x="176" y="639" on="0"/>
        <pt x="174" y="646" on="0"/>
        <pt x="163" y="651" on="0"/>
        <pt x="139" y="654" on="0"/>
        <pt x="116" y="654" on="1"/>
        <pt x="102" y="654" on="0"/>
        <pt x="90" y="656" on="0"/>
        <pt x="90" y="664" on="1"/>
        <pt x="90" y="678" on="0"/>
        <pt x="104" y="683" on="0"/>
        <pt x="109" y="683" on="1"/>
        <pt x="123" y="683" on="0"/>
        <pt x="154" y="681" on="0"/>
        <pt x="168" y="681" on="1"/>
        <pt x="286" y="681" on="1"/>
        <pt x="300" y="681" on="0"/>
        <pt x="330" y="683" on="0"/>
        <pt x="344" y="683" on="1"/>
        <pt x="349" y="683" on="0"/>
        <pt x="359" y="680" on="0"/>
        <pt x="359" y="672" on="1"/>
        <pt x="359" y="658" on="0"/>
        <pt x="345" y="654" on="0"/>
        <pt x="331" y="654" on="1"/>
        <pt x="304" y="654" on="0"/>
        <pt x="275" y="650" on="0"/>
        <pt x="259" y="640" on="0"/>
        <pt x="252" y="623" on="0"/>
        <pt x="249" y="610" on="1"/>
        <pt x="151" y="217" on="1"/>
        <pt x="143" y="184" on="0"/>
        <pt x="140" y="142" on="0"/>
        <pt x="140" y="139" on="1"/>
        <pt x="140" y="76" on="0"/>
        <pt x="207" y="8" on="0"/>
        <pt x="261" y="8" on="1"/>
        <pt x="296" y="8" on="0"/>
        <pt x="372" y="38" on="0"/>
        <pt x="439" y="95" on="0"/>
        <pt x="493" y="178" on="0"/>
        <pt x="506" y="230" on="1"/>
      </contour>
    </TTGlyph>
    <TTGlyph name="Upsilon" xMin="27" yMin="0" xMax="686" yMax="704">
      <contour>
        <pt x="243" y="260" on="1"/>
        <pt x="256" y="311" on="0"/>
        <pt x="272" y="378" on="0"/>
        <pt x="281" y="426" on="0"/>
        <pt x="284" y="464" on="0"/>
        <pt x="284" y="488" on="1"/>
        <pt x="284" y="500" on="0"/>
        <pt x="281" y="550" on="0"/>
        <pt x="261" y="600" on="0"/>
        <pt x="217" y="638" on="0"/>
        <pt x="177" y="638" on="1"/>
        <pt x="140" y="638" on="0"/>
        <pt x="70" y="593" on="0"/>
        <pt x="56" y="553" on="1"/>
        <pt x="53" y="545" on="0"/>
        <pt x="47" y="537" on="0"/>
        <pt x="38" y="537" on="1"/>
        <pt x="36" y="537" on="0"/>
        <pt x="27" y="539" on="0"/>
        <pt x="27" y="545" on="1"/>
        <pt x="27" y="554" on="0"/>
        <pt x="48" y="605" on="0"/>
        <pt x="90" y="661" on="0"/>
        <pt x="153" y="704" on="0"/>
        <pt x="194" y="704" on="1"/>
        <pt x="235" y="704" on="0"/>
        <pt x="289" y="671" on="0"/>
        <pt x="320" y="617" on="0"/>
        <pt x="333" y="547" on="0"/>
        <pt x="333" y="511" on="1"/>
        <pt x="333" y="496" on="0"/>
        <pt x="332" y="475" on="0"/>
        <pt x="330" y="455" on="1"/>
        <pt x="344" y="490" on="0"/>
        <pt x="390" y="576" on="0"/>
        <pt x="455" y="652" on="0"/>
        <pt x="539" y="704" on="0"/>
        <pt x="591" y="704" on="1"/>
        <pt x="619" y="704" on="0"/>
        <pt x="655" y="683" on="0"/>
        <pt x="677" y="650" on="0"/>
        <pt x="686" y="611" on="0"/>
        <pt x="686" y="594" on="1"/>
        <pt x="686" y="582" on="0"/>
        <pt x="684" y="569" on="0"/>
        <pt x="682" y="558" on="1"/>
        <pt x="680" y="548" on="0"/>
        <pt x="675" y="537" on="0"/>
        <pt x="664" y="537" on="1"/>
        <pt x="662" y="537" on="0"/>
        <pt x="653" y="539" on="0"/>
        <pt x="653" y="545" on="1"/>
        <pt x="653" y="548" on="0"/>
        <pt x="655" y="556" on="0"/>
        <pt x="655" y="567" on="1"/>
        <pt x="655" y="601" on="0"/>
        <pt x="608" y="638" on="0"/>
        <pt x="575" y="638" on="1"/>
        <pt x="533" y="638" on="0"/>
        <pt x="460" y="592" on="0"/>
        <pt x="401" y="511" on="0"/>
        <pt x="356" y="402" on="0"/>
        <pt x="340" y="339" on="1"/>
        <pt x="338" y="330" on="0"/>
        <pt x="326" y="283" on="0"/>
        <pt x="311" y="225" on="0"/>
        <pt x="295" y="161" on="0"/>
        <pt x="282" y="106" on="0"/>
        <pt x="272" y="68" on="0"/>
        <pt x="271" y="64" on="1"/>
        <pt x="269" y="56" on="0"/>
        <pt x="269" y="51" on="1"/>
        <pt x="269" y="45" on="0"/>
        <pt x="272" y="37" on="0"/>
        <pt x="288" y="32" on="0"/>
        <pt x="320" y="29" on="0"/>
        <pt x="350" y="29" on="1"/>
        <pt x="367" y="29" on="0"/>
        <pt x="378" y="26" on="0"/>
        <pt x="378" y="18" on="1"/>
        <pt x="378" y="4" on="0"/>
        <pt x="364" y="0" on="0"/>
        <pt x="357" y="0" on="1"/>
        <pt x="340" y="0" on="0"/>
        <pt x="303" y="2" on="0"/>
        <pt x="286" y="2" on="1"/>
        <pt x="146" y="2" on="1"/>
        <pt x="129" y="2" on="0"/>
        <pt x="95" y="0" on="0"/>
        <pt x="78" y="0" on="1"/>
        <pt x="73" y="0" on="0"/>
        <pt x="62" y="2" on="0"/>
        <pt x="62" y="10" on="1"/>
        <pt x="62" y="24" on="0"/>
        <pt x="75" y="29" on="0"/>
        <pt x="85" y="29" on="1"/>
        <pt x="106" y="29" on="0"/>
        <pt x="156" y="31" on="0"/>
        <pt x="172" y="36" on="1"/>
        <pt x="184" y="40" on="0"/>
        <pt x="194" y="67" on="0"/>
        <pt x="198" y="81" on="1"/>
      </contour>
    </TTGlyph>
    <TTGlyph name="V" xMin="54" yMin="-21" xMax="753" yMax="683">
      <contour>
        <pt x="258" y="-2" on="1"/>
        <pt x="250" y="-14" on="0"/>
        <pt x="240" y="-21" on="0"/>
        <pt x="231" y="-21" on="1"/>
        <pt x="220" y="-21" on="0"/>
        <pt x="216" y="-13" on="0"/>
        <pt x="214" y="3" on="1"/>
        <pt x="134" y="620" on="1"/>
        <pt x="133" y="629" on="0"/>
        <pt x="129" y="642" on="0"/>
        <pt x="118" y="650" on="0"/>
        <pt x="96" y="654" on="0"/>
        <pt x="77" y="654" on="1"/>
        <pt x="65" y="654" on="0"/>
        <pt x="54" y="657" on="0"/>
        <pt x="54" y="665" on="1"/>
        <pt x="54" y="679" on="0"/>
        <pt x="67" y="683" on="0"/>
        <pt x="72" y="683" on="1"/>
        <pt x="73" y="683" on="0"/>
        <pt x="121" y="681" on="0"/>
        <pt x="176" y="681" on="1"/>
        <pt x="232" y="681" on="1"/>
        <pt x="245" y="681" on="0"/>
        <pt x="273" y="683" on="0"/>
        <pt x="286" y="683" on="1"/>
        <pt x="288" y="683" on="0"/>
        <pt x="300" y="681" on="0"/>
        <pt x="300" y="673" on="1"/>
        <pt x="300" y="659" on="0"/>
        <pt x="287" y="654" on="0"/>
        <pt x="276" y="654" on="1"/>
        <pt x="272" y="654" on="0"/>
        <pt x="251" y="652" on="0"/>
        <pt x="230" y="646" on="0"/>
        <pt x="213" y="634" on="0"/>
        <pt x="213" y="623" on="1"/>
        <pt x="283" y="84" on="1"/>
        <pt x="597" y="582" on="1"/>
        <pt x="597" y="582" on="0"/>
        <pt x="602" y="590" on="0"/>
        <pt x="608" y="602" on="0"/>
        <pt x="612" y="615" on="0"/>
        <pt x="612" y="621" on="1"/>
        <pt x="612" y="630" on="0"/>
        <pt x="599" y="652" on="0"/>
        <pt x="571" y="654" on="1"/>
        <pt x="568" y="654" on="0"/>
        <pt x="558" y="657" on="0"/>
        <pt x="558" y="664" on="1"/>
        <pt x="558" y="678" on="0"/>
        <pt x="570" y="683" on="0"/>
        <pt x="576" y="683" on="1"/>
        <pt x="597" y="683" on="0"/>
        <pt x="641" y="681" on="0"/>
        <pt x="663" y="681" on="1"/>
        <pt x="677" y="681" on="0"/>
        <pt x="728" y="683" on="0"/>
        <pt x="742" y="683" on="1"/>
        <pt x="749" y="683" on="0"/>
        <pt x="753" y="676" on="0"/>
        <pt x="753" y="673" on="1"/>
        <pt x="753" y="659" on="0"/>
        <pt x="743" y="655" on="0"/>
        <pt x="735" y="654" on="1"/>
        <pt x="697" y="651" on="0"/>
        <pt x="645" y="613" on="0"/>
        <pt x="619" y="572" on="1"/>
      </contour>
    </TTGlyph>
    <TTGlyph name="W" xMin="53" yMin="-21" xMax="1026" yMax="683">
      <contour>
        <pt x="574" y="-2" on="1"/>
        <pt x="568" y="-13" on="0"/>
        <pt x="561" y="-21" on="0"/>
        <pt x="553" y="-21" on="1"/>
        <pt x="544" y="-21" on="0"/>
        <pt x="540" y="-11" on="0"/>
        <pt x="539" y="2" on="1"/>
        <pt x="502" y="519" on="1"/>
        <pt x="204" y="-2" on="1"/>
        <pt x="197" y="-13" on="0"/>
        <pt x="191" y="-21" on="0"/>
        <pt x="183" y="-21" on="1"/>
        <pt x="174" y="-21" on="0"/>
        <pt x="170" y="-11" on="0"/>
        <pt x="169" y="2" on="1"/>
        <pt x="125" y="616" on="1"/>
        <pt x="124" y="628" on="0"/>
        <pt x="122" y="643" on="0"/>
        <pt x="112" y="651" on="0"/>
        <pt x="93" y="654" on="0"/>
        <pt x="75" y="654" on="1"/>
        <pt x="64" y="654" on="0"/>
        <pt x="53" y="656" on="0"/>
        <pt x="53" y="664" on="1"/>
        <pt x="53" y="678" on="0"/>
        <pt x="66" y="683" on="0"/>
        <pt x="71" y="683" on="1"/>
        <pt x="82" y="683" on="0"/>
        <pt x="108" y="681" on="0"/>
        <pt x="119" y="681" on="1"/>
        <pt x="171" y="681" on="1"/>
        <pt x="198" y="681" on="0"/>
        <pt x="253" y="683" on="0"/>
        <pt x="279" y="683" on="1"/>
        <pt x="284" y="683" on="0"/>
        <pt x="294" y="680" on="0"/>
        <pt x="294" y="672" on="1"/>
        <pt x="294" y="658" on="0"/>
        <pt x="280" y="654" on="0"/>
        <pt x="272" y="654" on="1"/>
        <pt x="247" y="654" on="0"/>
        <pt x="219" y="645" on="0"/>
        <pt x="206" y="633" on="0"/>
        <pt x="204" y="621" on="0"/>
        <pt x="204" y="617" on="1"/>
        <pt x="241" y="101" on="1"/>
        <pt x="500" y="556" on="1"/>
        <pt x="497" y="592" on="1"/>
        <pt x="496" y="615" on="0"/>
        <pt x="492" y="640" on="0"/>
        <pt x="483" y="652" on="0"/>
        <pt x="464" y="654" on="0"/>
        <pt x="447" y="654" on="1"/>
        <pt x="434" y="654" on="0"/>
        <pt x="423" y="656" on="0"/>
        <pt x="423" y="664" on="1"/>
        <pt x="423" y="678" on="0"/>
        <pt x="436" y="683" on="0"/>
        <pt x="441" y="683" on="1"/>
        <pt x="452" y="683" on="0"/>
        <pt x="478" y="681" on="0"/>
        <pt x="489" y="681" on="1"/>
        <pt x="541" y="681" on="1"/>
        <pt x="568" y="681" on="0"/>
        <pt x="623" y="683" on="0"/>
        <pt x="649" y="683" on="1"/>
        <pt x="653" y="683" on="0"/>
        <pt x="664" y="681" on="0"/>
        <pt x="664" y="673" on="1"/>
        <pt x="664" y="659" on="0"/>
        <pt x="651" y="654" on="0"/>
        <pt x="641" y="654" on="1"/>
        <pt x="599" y="653" on="0"/>
        <pt x="574" y="631" on="0"/>
        <pt x="574" y="622" on="1"/>
        <pt x="610" y="101" on="1"/>
        <pt x="883" y="579" on="1"/>
        <pt x="891" y="592" on="0"/>
        <pt x="897" y="606" on="0"/>
        <pt x="897" y="616" on="1"/>
        <pt x="897" y="628" on="0"/>
        <pt x="886" y="642" on="0"/>
        <pt x="871" y="650" on="0"/>
        <pt x="853" y="654" on="0"/>
        <pt x="845" y="654" on="1"/>
        <pt x="840" y="654" on="0"/>
        <pt x="831" y="657" on="0"/>
        <pt x="831" y="664" on="1"/>
        <pt x="831" y="678" on="0"/>
        <pt x="844" y="683" on="0"/>
        <pt x="849" y="683" on="1"/>
        <pt x="871" y="683" on="0"/>
        <pt x="916" y="681" on="0"/>
        <pt x="939" y="681" on="1"/>
        <pt x="964" y="681" on="0"/>
        <pt x="993" y="682" on="0"/>
        <pt x="1008" y="682" on="0"/>
        <pt x="1013" y="683" on="0"/>
        <pt x="1014" y="683" on="1"/>
        <pt x="1016" y="683" on="0"/>
        <pt x="1026" y="680" on="0"/>
        <pt x="1026" y="672" on="1"/>
        <pt x="1026" y="660" on="0"/>
        <pt x="1015" y="655" on="0"/>
        <pt x="1008" y="654" on="1"/>
        <pt x="986" y="652" on="0"/>
        <pt x="954" y="637" on="0"/>
        <pt x="930" y="614" on="0"/>
        <pt x="912" y="587" on="0"/>
        <pt x="903" y="572" on="1"/>
      </contour>
    </TTGlyph>
    <TTGlyph name="X" xMin="25" yMin="0" xMax="838" yMax="683">
      <contour>
        <pt x="650" y="594" on="1"/>
        <pt x="658" y="603" on="0"/>
        <pt x="663" y="618" on="0"/>
        <pt x="664" y="623" on="1"/>
        <pt x="665" y="625" on="1"/>
        <pt x="665" y="639" on="0"/>
        <pt x="644" y="652" on="0"/>
        <pt x="632" y="654" on="1"/>
        <pt x="627" y="654" on="0"/>
        <pt x="619" y="657" on="0"/>
        <pt x="619" y="665" on="1"/>
        <pt x="619" y="679" on="0"/>
        <pt x="633" y="683" on="0"/>
        <pt x="638" y="683" on="1"/>
        <pt x="661" y="683" on="0"/>
        <pt x="712" y="681" on="0"/>
        <pt x="736" y="681" on="1"/>
        <pt x="782" y="681" on="1"/>
        <pt x="793" y="681" on="0"/>
        <pt x="814" y="683" on="0"/>
        <pt x="825" y="683" on="1"/>
        <pt x="828" y="683" on="0"/>
        <pt x="838" y="680" on="0"/>
        <pt x="838" y="672" on="1"/>
        <pt x="838" y="659" on="0"/>
        <pt x="826" y="655" on="0"/>
        <pt x="818" y="654" on="1"/>
        <pt x="788" y="652" on="0"/>
        <pt x="741" y="636" on="0"/>
        <pt x="703" y="611" on="0"/>
        <pt x="670" y="580" on="0"/>
        <pt x="654" y="563" on="1"/>
        <pt x="647" y="555" on="0"/>
        <pt x="620" y="526" on="0"/>
        <pt x="612" y="518" on="1"/>
        <pt x="485" y="382" on="1"/>
        <pt x="617" y="72" on="1"/>
        <pt x="623" y="58" on="0"/>
        <pt x="633" y="42" on="0"/>
        <pt x="648" y="33" on="0"/>
        <pt x="674" y="29" on="0"/>
        <pt x="696" y="29" on="1"/>
        <pt x="703" y="29" on="0"/>
        <pt x="715" y="27" on="0"/>
        <pt x="715" y="19" on="1"/>
        <pt x="715" y="5" on="0"/>
        <pt x="702" y="0" on="0"/>
        <pt x="697" y="0" on="1"/>
        <pt x="684" y="0" on="0"/>
        <pt x="657" y="2" on="0"/>
        <pt x="643" y="2" on="1"/>
        <pt x="533" y="2" on="1"/>
        <pt x="520" y="2" on="0"/>
        <pt x="492" y="0" on="0"/>
        <pt x="479" y="0" on="1"/>
        <pt x="475" y="0" on="0"/>
        <pt x="464" y="2" on="0"/>
        <pt x="464" y="10" on="1"/>
        <pt x="464" y="24" on="0"/>
        <pt x="476" y="29" on="0"/>
        <pt x="481" y="29" on="1"/>
        <pt x="505" y="31" on="0"/>
        <pt x="535" y="51" on="0"/>
        <pt x="535" y="58" on="1"/>
        <pt x="535" y="59" on="0"/>
        <pt x="531" y="69" on="0"/>
        <pt x="530" y="71" on="1"/>
        <pt x="425" y="317" on="1"/>
        <pt x="417" y="309" on="0"/>
        <pt x="391" y="281" on="0"/>
        <pt x="362" y="251" on="0"/>
        <pt x="336" y="223" on="0"/>
        <pt x="328" y="214" on="1"/>
        <pt x="239" y="117" on="1"/>
        <pt x="217" y="94" on="0"/>
        <pt x="198" y="71" on="0"/>
        <pt x="198" y="58" on="1"/>
        <pt x="198" y="46" on="0"/>
        <pt x="216" y="31" on="0"/>
        <pt x="231" y="29" on="1"/>
        <pt x="236" y="29" on="0"/>
        <pt x="244" y="26" on="0"/>
        <pt x="244" y="18" on="1"/>
        <pt x="244" y="4" on="0"/>
        <pt x="230" y="0" on="0"/>
        <pt x="225" y="0" on="1"/>
        <pt x="202" y="0" on="0"/>
        <pt x="151" y="2" on="0"/>
        <pt x="127" y="2" on="1"/>
        <pt x="80" y="2" on="1"/>
        <pt x="69" y="2" on="0"/>
        <pt x="48" y="0" on="0"/>
        <pt x="37" y="0" on="1"/>
        <pt x="29" y="0" on="0"/>
        <pt x="25" y="8" on="0"/>
        <pt x="25" y="10" on="1"/>
        <pt x="25" y="24" on="0"/>
        <pt x="36" y="28" on="0"/>
        <pt x="45" y="29" on="1"/>
        <pt x="73" y="31" on="0"/>
        <pt x="117" y="45" on="0"/>
        <pt x="154" y="68" on="0"/>
        <pt x="185" y="95" on="0"/>
        <pt x="198" y="110" on="1"/>
        <pt x="415" y="342" on="1"/>
        <pt x="296" y="620" on="1"/>
        <pt x="292" y="629" on="0"/>
        <pt x="285" y="642" on="0"/>
        <pt x="271" y="650" on="0"/>
        <pt x="246" y="654" on="0"/>
        <pt x="224" y="654" on="1"/>
        <pt x="214" y="654" on="0"/>
        <pt x="202" y="656" on="0"/>
        <pt x="202" y="664" on="1"/>
        <pt x="202" y="678" on="0"/>
        <pt x="214" y="683" on="0"/>
        <pt x="220" y="683" on="1"/>
        <pt x="221" y="683" on="0"/>
        <pt x="280" y="681" on="0"/>
        <pt x="326" y="681" on="1"/>
        <pt x="384" y="681" on="1"/>
        <pt x="397" y="681" on="0"/>
        <pt x="425" y="683" on="0"/>
        <pt x="438" y="683" on="1"/>
        <pt x="443" y="683" on="0"/>
        <pt x="453" y="680" on="0"/>
        <pt x="453" y="672" on="1"/>
        <pt x="453" y="659" on="0"/>
        <pt x="441" y="654" on="0"/>
        <pt x="436" y="654" on="1"/>
        <pt x="427" y="653" on="0"/>
        <pt x="391" y="643" on="0"/>
        <pt x="381" y="625" on="1"/>
        <pt x="475" y="406" on="1"/>
      </contour>
    </TTGlyph>
    <TTGlyph name="Xi" xMin="52" yMin="0" xMax="765" yMax="678">
      <contour>
        <pt x="743" y="552" on="1"/>
        <pt x="741" y="538" on="0"/>
        <pt x="737" y="531" on="0"/>
        <pt x="730" y="531" on="1"/>
        <pt x="720" y="531" on="0"/>
        <pt x="720" y="541" on="1"/>
        <pt x="720" y="544" on="0"/>
        <pt x="722" y="556" on="0"/>
        <pt x="722" y="559" on="1"/>
        <pt x="724" y="570" on="0"/>
        <pt x="728" y="589" on="0"/>
        <pt x="728" y="603" on="1"/>
        <pt x="728" y="611" on="0"/>
        <pt x="723" y="613" on="0"/>
        <pt x="717" y="614" on="1"/>
        <pt x="704" y="616" on="0"/>
        <pt x="672" y="617" on="0"/>
        <pt x="657" y="617" on="1"/>
        <pt x="308" y="617" on="1"/>
        <pt x="305" y="617" on="0"/>
        <pt x="282" y="617" on="0"/>
        <pt x="256" y="615" on="0"/>
        <pt x="234" y="613" on="0"/>
        <pt x="231" y="610" on="1"/>
        <pt x="228" y="606" on="0"/>
        <pt x="220" y="589" on="0"/>
        <pt x="213" y="570" on="0"/>
        <pt x="207" y="553" on="0"/>
        <pt x="206" y="550" on="1"/>
        <pt x="203" y="539" on="0"/>
        <pt x="199" y="531" on="0"/>
        <pt x="192" y="531" on="1"/>
        <pt x="182" y="531" on="0"/>
        <pt x="182" y="541" on="1"/>
        <pt x="182" y="544" on="0"/>
        <pt x="184" y="554" on="0"/>
        <pt x="185" y="556" on="1"/>
        <pt x="218" y="659" on="1"/>
        <pt x="220" y="666" on="0"/>
        <pt x="224" y="673" on="0"/>
        <pt x="230" y="677" on="0"/>
        <pt x="239" y="678" on="0"/>
        <pt x="248" y="678" on="1"/>
        <pt x="739" y="678" on="1"/>
        <pt x="753" y="678" on="0"/>
        <pt x="765" y="676" on="0"/>
        <pt x="765" y="668" on="1"/>
      </contour>
      <contour>
        <pt x="515" y="61" on="1"/>
        <pt x="522" y="61" on="0"/>
        <pt x="547" y="61" on="0"/>
        <pt x="573" y="63" on="0"/>
        <pt x="593" y="67" on="0"/>
        <pt x="596" y="70" on="1"/>
        <pt x="602" y="80" on="0"/>
        <pt x="617" y="120" on="0"/>
        <pt x="623" y="138" on="1"/>
        <pt x="626" y="149" on="0"/>
        <pt x="631" y="158" on="0"/>
        <pt x="637" y="158" on="1"/>
        <pt x="648" y="158" on="0"/>
        <pt x="648" y="148" on="1"/>
        <pt x="648" y="145" on="0"/>
        <pt x="637" y="107" on="0"/>
        <pt x="623" y="62" on="0"/>
        <pt x="609" y="22" on="0"/>
        <pt x="607" y="15" on="1"/>
        <pt x="604" y="4" on="0"/>
        <pt x="596" y="0" on="0"/>
        <pt x="579" y="0" on="1"/>
        <pt x="78" y="0" on="1"/>
        <pt x="65" y="0" on="0"/>
        <pt x="52" y="2" on="0"/>
        <pt x="52" y="10" on="1"/>
        <pt x="52" y="13" on="0"/>
        <pt x="58" y="49" on="0"/>
        <pt x="67" y="91" on="0"/>
        <pt x="75" y="130" on="0"/>
        <pt x="76" y="136" on="1"/>
        <pt x="78" y="149" on="0"/>
        <pt x="82" y="158" on="0"/>
        <pt x="89" y="158" on="1"/>
        <pt x="100" y="158" on="0"/>
        <pt x="100" y="148" on="1"/>
        <pt x="100" y="147" on="0"/>
        <pt x="99" y="142" on="0"/>
        <pt x="97" y="133" on="1"/>
        <pt x="94" y="118" on="0"/>
        <pt x="92" y="99" on="0"/>
        <pt x="90" y="85" on="0"/>
        <pt x="90" y="73" on="0"/>
        <pt x="90" y="65" on="1"/>
        <pt x="107" y="63" on="0"/>
        <pt x="146" y="61" on="0"/>
        <pt x="163" y="61" on="1"/>
      </contour>
      <contour>
        <pt x="238" y="409" on="1"/>
        <pt x="241" y="421" on="0"/>
        <pt x="245" y="430" on="0"/>
        <pt x="252" y="430" on="1"/>
        <pt x="263" y="430" on="0"/>
        <pt x="263" y="420" on="1"/>
        <pt x="263" y="418" on="0"/>
        <pt x="256" y="391" on="0"/>
        <pt x="254" y="383" on="1"/>
        <pt x="590" y="383" on="1"/>
        <pt x="596" y="410" on="1"/>
        <pt x="599" y="422" on="0"/>
        <pt x="603" y="430" on="0"/>
        <pt x="610" y="430" on="1"/>
        <pt x="621" y="430" on="0"/>
        <pt x="621" y="420" on="1"/>
        <pt x="621" y="416" on="0"/>
        <pt x="619" y="408" on="0"/>
        <pt x="618" y="405" on="1"/>
        <pt x="590" y="295" on="1"/>
        <pt x="587" y="283" on="0"/>
        <pt x="583" y="275" on="0"/>
        <pt x="576" y="275" on="1"/>
        <pt x="566" y="275" on="0"/>
        <pt x="566" y="285" on="1"/>
        <pt x="566" y="288" on="0"/>
        <pt x="572" y="313" on="0"/>
        <pt x="574" y="322" on="1"/>
        <pt x="239" y="322" on="1"/>
        <pt x="232" y="295" on="1"/>
        <pt x="229" y="283" on="0"/>
        <pt x="225" y="275" on="0"/>
        <pt x="218" y="275" on="1"/>
        <pt x="208" y="275" on="0"/>
        <pt x="208" y="285" on="1"/>
      </contour>
    </TTGlyph>
    <TTGlyph name="Y" xMin="33" yMin="0" xMax="747" yMax="683">
      <contour>
        <pt x="337" y="283" on="1"/>
        <pt x="330" y="275" on="0"/>
        <pt x="327" y="266" on="0"/>
        <pt x="322" y="250" on="1"/>
        <pt x="286" y="106" on="1"/>
        <pt x="282" y="91" on="0"/>
        <pt x="273" y="52" on="0"/>
        <pt x="273" y="47" on="1"/>
        <pt x="273" y="43" on="0"/>
        <pt x="275" y="36" on="0"/>
        <pt x="287" y="32" on="0"/>
        <pt x="312" y="29" on="0"/>
        <pt x="335" y="29" on="1"/>
        <pt x="348" y="29" on="0"/>
        <pt x="359" y="26" on="0"/>
        <pt x="359" y="18" on="1"/>
        <pt x="359" y="4" on="0"/>
        <pt x="345" y="0" on="0"/>
        <pt x="340" y="0" on="1"/>
        <pt x="326" y="0" on="0"/>
        <pt x="297" y="2" on="0"/>
        <pt x="283" y="2" on="1"/>
        <pt x="165" y="2" on="1"/>
        <pt x="151" y="2" on="0"/>
        <pt x="121" y="0" on="0"/>
        <pt x="107" y="0" on="1"/>
        <pt x="105" y="0" on="0"/>
        <pt x="93" y="2" on="0"/>
        <pt x="93" y="10" on="1"/>
        <pt x="93" y="24" on="0"/>
        <pt x="105" y="29" on="0"/>
        <pt x="118" y="29" on="1"/>
        <pt x="142" y="29" on="0"/>
        <pt x="171" y="32" on="0"/>
        <pt x="189" y="39" on="0"/>
        <pt x="197" y="52" on="0"/>
        <pt x="200" y="62" on="1"/>
        <pt x="201" y="65" on="0"/>
        <pt x="209" y="97" on="0"/>
        <pt x="221" y="143" on="0"/>
        <pt x="234" y="196" on="0"/>
        <pt x="245" y="241" on="0"/>
        <pt x="252" y="271" on="0"/>
        <pt x="252" y="272" on="1"/>
        <pt x="252" y="274" on="0"/>
        <pt x="249" y="287" on="0"/>
        <pt x="248" y="289" on="1"/>
        <pt x="124" y="622" on="1"/>
        <pt x="117" y="639" on="0"/>
        <pt x="94" y="654" on="0"/>
        <pt x="57" y="654" on="1"/>
        <pt x="46" y="654" on="0"/>
        <pt x="33" y="656" on="0"/>
        <pt x="33" y="664" on="1"/>
        <pt x="33" y="678" on="0"/>
        <pt x="46" y="683" on="0"/>
        <pt x="51" y="683" on="1"/>
        <pt x="64" y="683" on="0"/>
        <pt x="91" y="681" on="0"/>
        <pt x="105" y="681" on="1"/>
        <pt x="216" y="681" on="1"/>
        <pt x="229" y="681" on="0"/>
        <pt x="257" y="683" on="0"/>
        <pt x="270" y="683" on="1"/>
        <pt x="275" y="683" on="0"/>
        <pt x="285" y="680" on="0"/>
        <pt x="285" y="672" on="1"/>
        <pt x="285" y="658" on="0"/>
        <pt x="271" y="654" on="0"/>
        <pt x="262" y="654" on="1"/>
        <pt x="258" y="654" on="0"/>
        <pt x="240" y="653" on="0"/>
        <pt x="222" y="648" on="0"/>
        <pt x="209" y="639" on="0"/>
        <pt x="209" y="631" on="1"/>
        <pt x="209" y="629" on="0"/>
        <pt x="210" y="624" on="0"/>
        <pt x="215" y="613" on="1"/>
        <pt x="328" y="309" on="1"/>
        <pt x="566" y="582" on="1"/>
        <pt x="581" y="599" on="0"/>
        <pt x="594" y="623" on="0"/>
        <pt x="594" y="631" on="1"/>
        <pt x="594" y="636" on="0"/>
        <pt x="587" y="652" on="0"/>
        <pt x="564" y="654" on="1"/>
        <pt x="562" y="654" on="0"/>
        <pt x="551" y="657" on="0"/>
        <pt x="551" y="664" on="1"/>
        <pt x="551" y="678" on="0"/>
        <pt x="564" y="683" on="0"/>
        <pt x="569" y="683" on="1"/>
        <pt x="590" y="683" on="0"/>
        <pt x="635" y="681" on="0"/>
        <pt x="657" y="681" on="1"/>
        <pt x="698" y="681" on="1"/>
        <pt x="707" y="681" on="0"/>
        <pt x="726" y="683" on="0"/>
        <pt x="735" y="683" on="1"/>
        <pt x="737" y="683" on="0"/>
        <pt x="747" y="681" on="0"/>
        <pt x="747" y="673" on="1"/>
        <pt x="747" y="660" on="0"/>
        <pt x="735" y="655" on="0"/>
        <pt x="727" y="654" on="1"/>
        <pt x="701" y="652" on="0"/>
        <pt x="644" y="629" on="0"/>
        <pt x="611" y="595" on="1"/>
        <pt x="588" y="572" on="1"/>
      </contour>
    </TTGlyph>
    <TTGlyph name="Z" xMin="57" yMin="0" xMax="711" yMax="683">
      <contour>
        <pt x="151" y="31" on="1"/>
        <pt x="324" y="31" on="1"/>
        <pt x="389" y="31" on="0"/>
        <pt x="475" y="59" on="0"/>
        <pt x="532" y="113" on="0"/>
        <pt x="568" y="190" on="0"/>
        <pt x="584" y="238" on="1"/>
        <pt x="590" y="257" on="0"/>
        <pt x="595" y="264" on="0"/>
        <pt x="601" y="264" on="1"/>
        <pt x="611" y="264" on="0"/>
        <pt x="611" y="254" on="1"/>
        <pt x="611" y="251" on="0"/>
        <pt x="609" y="242" on="0"/>
        <pt x="608" y="240" on="1"/>
        <pt x="538" y="19" on="1"/>
        <pt x="534" y="6" on="0"/>
        <pt x="525" y="0" on="0"/>
        <pt x="508" y="0" on="1"/>
        <pt x="81" y="0" on="1"/>
        <pt x="67" y="0" on="0"/>
        <pt x="57" y="2" on="0"/>
        <pt x="57" y="8" on="1"/>
        <pt x="57" y="16" on="0"/>
        <pt x="63" y="26" on="0"/>
        <pt x="70" y="34" on="1"/>
        <pt x="618" y="654" on="1"/>
        <pt x="454" y="654" on="1"/>
        <pt x="395" y="654" on="0"/>
        <pt x="314" y="629" on="0"/>
        <pt x="259" y="583" on="0"/>
        <pt x="224" y="518" on="0"/>
        <pt x="210" y="477" on="1"/>
        <pt x="207" y="467" on="0"/>
        <pt x="202" y="460" on="0"/>
        <pt x="196" y="460" on="1"/>
        <pt x="191" y="460" on="0"/>
        <pt x="186" y="467" on="0"/>
        <pt x="186" y="470" on="1"/>
        <pt x="186" y="472" on="0"/>
        <pt x="187" y="476" on="0"/>
        <pt x="189" y="484" on="1"/>
        <pt x="244" y="664" on="1"/>
        <pt x="246" y="671" on="0"/>
        <pt x="250" y="678" on="0"/>
        <pt x="256" y="682" on="0"/>
        <pt x="265" y="683" on="0"/>
        <pt x="274" y="683" on="1"/>
        <pt x="687" y="683" on="1"/>
        <pt x="704" y="683" on="0"/>
        <pt x="711" y="680" on="0"/>
        <pt x="711" y="675" on="1"/>
        <pt x="711" y="667" on="0"/>
        <pt x="705" y="657" on="0"/>
        <pt x="700" y="652" on="1"/>
      </contour>
    </TTGlyph>
    <TTGlyph name="a" xMin="40" yMin="-10" xMax="485" yMax="441">
      <contour>
        <pt x="350" y="315" on="1"/>
        <pt x="351" y="317" on="0"/>
        <pt x="354" y="330" on="0"/>
        <pt x="354" y="331" on="1"/>
        <pt x="354" y="334" on="0"/>
        <pt x="348" y="363" on="0"/>
        <pt x="331" y="395" on="0"/>
        <pt x="300" y="421" on="0"/>
        <pt x="275" y="421" on="1"/>
        <pt x="246" y="421" on="0"/>
        <pt x="181" y="368" on="0"/>
        <pt x="155" y="315" on="1"/>
        <pt x="148" y="299" on="0"/>
        <pt x="130" y="245" on="0"/>
        <pt x="115" y="185" on="0"/>
        <pt x="105" y="127" on="0"/>
        <pt x="105" y="106" on="1"/>
        <pt x="105" y="61" on="0"/>
        <pt x="138" y="10" on="0"/>
        <pt x="169" y="10" on="1"/>
        <pt x="189" y="10" on="0"/>
        <pt x="231" y="30" on="0"/>
        <pt x="268" y="61" on="0"/>
        <pt x="295" y="100" on="0"/>
        <pt x="301" y="119" on="1"/>
      </contour>
      <contour>
        <pt x="365" y="375" on="1"/>
        <pt x="366" y="380" on="0"/>
        <pt x="370" y="395" on="0"/>
        <pt x="379" y="411" on="0"/>
        <pt x="395" y="422" on="0"/>
        <pt x="407" y="422" on="1"/>
        <pt x="418" y="422" on="0"/>
        <pt x="433" y="408" on="0"/>
        <pt x="433" y="397" on="1"/>
        <pt x="433" y="395" on="0"/>
        <pt x="429" y="376" on="0"/>
        <pt x="419" y="334" on="0"/>
        <pt x="401" y="261" on="0"/>
        <pt x="387" y="205" on="1"/>
        <pt x="381" y="183" on="0"/>
        <pt x="372" y="148" on="0"/>
        <pt x="367" y="129" on="1"/>
        <pt x="360" y="100" on="0"/>
        <pt x="355" y="73" on="0"/>
        <pt x="355" y="56" on="1"/>
        <pt x="355" y="41" on="0"/>
        <pt x="364" y="10" on="0"/>
        <pt x="386" y="10" on="1"/>
        <pt x="401" y="10" on="0"/>
        <pt x="424" y="32" on="0"/>
        <pt x="442" y="66" on="0"/>
        <pt x="455" y="110" on="0"/>
        <pt x="461" y="132" on="1"/>
        <pt x="464" y="143" on="0"/>
        <pt x="468" y="152" on="0"/>
        <pt x="475" y="152" on="1"/>
        <pt x="485" y="152" on="0"/>
        <pt x="485" y="143" on="1"/>
        <pt x="485" y="142" on="0"/>
        <pt x="480" y="120" on="0"/>
        <pt x="472" y="90" on="0"/>
        <pt x="461" y="57" on="0"/>
        <pt x="455" y="44" on="1"/>
        <pt x="428" y="-10" on="0"/>
        <pt x="383" y="-10" on="1"/>
        <pt x="372" y="-10" on="0"/>
        <pt x="345" y="-3" on="0"/>
        <pt x="319" y="15" on="0"/>
        <pt x="300" y="44" on="0"/>
        <pt x="296" y="66" on="1"/>
        <pt x="286" y="54" on="0"/>
        <pt x="258" y="27" on="0"/>
        <pt x="225" y="4" on="0"/>
        <pt x="187" y="-10" on="0"/>
        <pt x="166" y="-10" on="1"/>
        <pt x="141" y="-10" on="0"/>
        <pt x="95" y="11" on="0"/>
        <pt x="60" y="52" on="0"/>
        <pt x="40" y="110" on="0"/>
        <pt x="40" y="147" on="1"/>
        <pt x="40" y="203" on="0"/>
        <pt x="82" y="308" on="0"/>
        <pt x="149" y="391" on="0"/>
        <pt x="233" y="441" on="0"/>
        <pt x="275" y="441" on="1"/>
        <pt x="295" y="441" on="0"/>
        <pt x="324" y="428" on="0"/>
        <pt x="346" y="408" on="0"/>
        <pt x="361" y="385" on="0"/>
      </contour>
    </TTGlyph>
    <TTGlyph name="alpha" xMin="40" yMin="-10" xMax="589" yMax="441">
      <contour>
        <pt x="463" y="168" on="1"/>
        <pt x="510" y="230" on="0"/>
        <pt x="554" y="339" on="0"/>
        <pt x="564" y="372" on="1"/>
        <pt x="567" y="386" on="0"/>
        <pt x="571" y="393" on="0"/>
        <pt x="578" y="393" on="1"/>
        <pt x="580" y="393" on="0"/>
        <pt x="589" y="391" on="0"/>
        <pt x="589" y="384" on="1"/>
        <pt x="589" y="384" on="0"/>
        <pt x="578" y="340" on="0"/>
        <pt x="550" y="270" on="0"/>
        <pt x="501" y="181" on="0"/>
        <pt x="463" y="135" on="1"/>
        <pt x="463" y="112" on="0"/>
        <pt x="464" y="67" on="0"/>
        <pt x="470" y="32" on="0"/>
        <pt x="482" y="10" on="0"/>
        <pt x="494" y="10" on="1"/>
        <pt x="512" y="10" on="0"/>
        <pt x="543" y="38" on="0"/>
        <pt x="550" y="57" on="1"/>
        <pt x="552" y="63" on="0"/>
        <pt x="556" y="68" on="0"/>
        <pt x="562" y="68" on="1"/>
        <pt x="564" y="68" on="0"/>
        <pt x="572" y="66" on="0"/>
        <pt x="572" y="59" on="1"/>
        <pt x="572" y="54" on="0"/>
        <pt x="562" y="31" on="0"/>
        <pt x="542" y="8" on="0"/>
        <pt x="511" y="-10" on="0"/>
        <pt x="491" y="-10" on="1"/>
        <pt x="424" y="-10" on="0"/>
        <pt x="403" y="74" on="1"/>
        <pt x="349" y="29" on="0"/>
        <pt x="243" y="-10" on="0"/>
        <pt x="196" y="-10" on="1"/>
        <pt x="158" y="-10" on="0"/>
        <pt x="99" y="17" on="0"/>
        <pt x="60" y="63" on="0"/>
        <pt x="40" y="123" on="0"/>
        <pt x="40" y="156" on="1"/>
        <pt x="40" y="209" on="0"/>
        <pt x="85" y="312" on="0"/>
        <pt x="159" y="392" on="0"/>
        <pt x="253" y="441" on="0"/>
        <pt x="302" y="441" on="1"/>
        <pt x="342" y="441" on="0"/>
        <pt x="402" y="410" on="0"/>
        <pt x="443" y="357" on="0"/>
        <pt x="463" y="289" on="0"/>
        <pt x="463" y="253" on="1"/>
      </contour>
      <contour>
        <pt x="400" y="98" on="1"/>
        <pt x="399" y="106" on="0"/>
        <pt x="398" y="119" on="0"/>
        <pt x="398" y="134" on="1"/>
        <pt x="398" y="153" on="0"/>
        <pt x="399" y="191" on="0"/>
        <pt x="399" y="210" on="1"/>
        <pt x="399" y="242" on="0"/>
        <pt x="396" y="315" on="0"/>
        <pt x="378" y="379" on="0"/>
        <pt x="338" y="421" on="0"/>
        <pt x="302" y="421" on="1"/>
        <pt x="268" y="421" on="0"/>
        <pt x="191" y="373" on="0"/>
        <pt x="160" y="320" on="1"/>
        <pt x="148" y="299" on="0"/>
        <pt x="129" y="244" on="0"/>
        <pt x="115" y="187" on="0"/>
        <pt x="107" y="136" on="0"/>
        <pt x="107" y="120" on="1"/>
        <pt x="107" y="102" on="0"/>
        <pt x="115" y="64" on="0"/>
        <pt x="136" y="31" on="0"/>
        <pt x="171" y="10" on="0"/>
        <pt x="198" y="10" on="1"/>
        <pt x="211" y="10" on="0"/>
        <pt x="253" y="15" on="0"/>
        <pt x="305" y="33" on="0"/>
        <pt x="367" y="68" on="0"/>
      </contour>
    </TTGlyph>
    <TTGlyph name="b" xMin="45" yMin="-10" xMax="403" yMax="694">
      <contour>
        <pt x="158" y="378" on="1"/>
        <pt x="165" y="386" on="0"/>
        <pt x="189" y="407" on="0"/>
        <pt x="220" y="427" on="0"/>
        <pt x="257" y="441" on="0"/>
        <pt x="276" y="441" on="1"/>
        <pt x="304" y="441" on="0"/>
        <pt x="351" y="418" on="0"/>
        <pt x="384" y="376" on="0"/>
        <pt x="403" y="319" on="0"/>
        <pt x="403" y="284" on="1"/>
        <pt x="403" y="230" on="0"/>
        <pt x="362" y="124" on="0"/>
        <pt x="295" y="41" on="0"/>
        <pt x="211" y="-10" on="0"/>
        <pt x="167" y="-10" on="1"/>
        <pt x="143" y="-10" on="0"/>
        <pt x="98" y="10" on="0"/>
        <pt x="65" y="49" on="0"/>
        <pt x="45" y="107" on="0"/>
        <pt x="45" y="145" on="1"/>
        <pt x="45" y="155" on="0"/>
        <pt x="46" y="181" on="0"/>
        <pt x="50" y="200" on="1"/>
        <pt x="51" y="205" on="0"/>
        <pt x="61" y="245" on="0"/>
        <pt x="75" y="301" on="0"/>
        <pt x="91" y="367" on="0"/>
        <pt x="107" y="428" on="0"/>
        <pt x="119" y="475" on="0"/>
        <pt x="121" y="485" on="1"/>
        <pt x="145" y="581" on="1"/>
        <pt x="148" y="595" on="0"/>
        <pt x="157" y="630" on="0"/>
        <pt x="157" y="635" on="1"/>
        <pt x="157" y="639" on="0"/>
        <pt x="155" y="646" on="0"/>
        <pt x="146" y="651" on="0"/>
        <pt x="125" y="654" on="0"/>
        <pt x="106" y="654" on="1"/>
        <pt x="98" y="654" on="0"/>
        <pt x="86" y="656" on="0"/>
        <pt x="86" y="664" on="1"/>
        <pt x="86" y="678" on="0"/>
        <pt x="99" y="683" on="0"/>
        <pt x="117" y="685" on="1"/>
        <pt x="131" y="686" on="0"/>
        <pt x="154" y="688" on="0"/>
        <pt x="167" y="689" on="1"/>
        <pt x="174" y="690" on="0"/>
        <pt x="192" y="692" on="0"/>
        <pt x="209" y="693" on="0"/>
        <pt x="222" y="694" on="0"/>
        <pt x="222" y="694" on="1"/>
        <pt x="224" y="694" on="0"/>
        <pt x="234" y="692" on="0"/>
        <pt x="234" y="684" on="1"/>
        <pt x="234" y="680" on="0"/>
        <pt x="232" y="672" on="0"/>
        <pt x="231" y="669" on="1"/>
      </contour>
      <contour>
        <pt x="168" y="10" on="1"/>
        <pt x="185" y="10" on="0"/>
        <pt x="219" y="27" on="0"/>
        <pt x="250" y="55" on="0"/>
        <pt x="276" y="92" on="0"/>
        <pt x="285" y="112" on="1"/>
        <pt x="294" y="132" on="0"/>
        <pt x="313" y="189" on="0"/>
        <pt x="328" y="251" on="0"/>
        <pt x="338" y="307" on="0"/>
        <pt x="338" y="325" on="1"/>
        <pt x="338" y="364" on="0"/>
        <pt x="307" y="421" on="0"/>
        <pt x="274" y="421" on="1"/>
        <pt x="249" y="421" on="0"/>
        <pt x="202" y="393" on="0"/>
        <pt x="167" y="358" on="0"/>
        <pt x="146" y="327" on="0"/>
        <pt x="145" y="324" on="1"/>
        <pt x="144" y="319" on="0"/>
        <pt x="137" y="293" on="0"/>
        <pt x="129" y="265" on="0"/>
        <pt x="123" y="239" on="0"/>
        <pt x="122" y="234" on="1"/>
        <pt x="115" y="208" on="0"/>
        <pt x="107" y="172" on="0"/>
        <pt x="103" y="146" on="0"/>
        <pt x="101" y="124" on="0"/>
        <pt x="101" y="112" on="1"/>
        <pt x="101" y="83" on="0"/>
        <pt x="113" y="44" on="0"/>
        <pt x="132" y="20" on="0"/>
        <pt x="156" y="10" on="0"/>
      </contour>
    </TTGlyph>
    <TTGlyph name="beta" xMin="27" yMin="-194" xMax="566" yMax="705">
      <contour>
        <pt x="566" y="582" on="1"/>
        <pt x="566" y="522" on="0"/>
        <pt x="504" y="433" on="0"/>
        <pt x="450" y="404" on="1"/>
        <pt x="488" y="375" on="0"/>
        <pt x="523" y="299" on="0"/>
        <pt x="523" y="251" on="1"/>
        <pt x="523" y="195" on="0"/>
        <pt x="476" y="100" on="0"/>
        <pt x="399" y="30" on="0"/>
        <pt x="299" y="-10" on="0"/>
        <pt x="245" y="-10" on="1"/>
        <pt x="223" y="-10" on="0"/>
        <pt x="181" y="6" on="0"/>
        <pt x="148" y="34" on="0"/>
        <pt x="125" y="71" on="0"/>
        <pt x="121" y="92" on="1"/>
        <pt x="51" y="-188" on="1"/>
        <pt x="50" y="-194" on="0"/>
        <pt x="38" y="-194" on="1"/>
        <pt x="34" y="-194" on="0"/>
        <pt x="27" y="-190" on="0"/>
        <pt x="29" y="-184" on="1"/>
        <pt x="187" y="443" on="1"/>
        <pt x="197" y="482" on="0"/>
        <pt x="237" y="574" on="0"/>
        <pt x="297" y="652" on="0"/>
        <pt x="376" y="705" on="0"/>
        <pt x="424" y="705" on="1"/>
        <pt x="458" y="705" on="0"/>
        <pt x="511" y="683" on="0"/>
        <pt x="547" y="649" on="0"/>
        <pt x="566" y="605" on="0"/>
      </contour>
      <contour>
        <pt x="392" y="405" on="1"/>
        <pt x="371" y="411" on="0"/>
        <pt x="342" y="411" on="1"/>
        <pt x="309" y="411" on="0"/>
        <pt x="296" y="402" on="1"/>
        <pt x="307" y="398" on="0"/>
        <pt x="330" y="397" on="0"/>
        <pt x="341" y="397" on="1"/>
        <pt x="355" y="397" on="0"/>
        <pt x="380" y="400" on="0"/>
      </contour>
      <contour>
        <pt x="514" y="591" on="1"/>
        <pt x="514" y="608" on="0"/>
        <pt x="506" y="641" on="0"/>
        <pt x="485" y="668" on="0"/>
        <pt x="449" y="685" on="0"/>
        <pt x="422" y="685" on="1"/>
        <pt x="386" y="685" on="0"/>
        <pt x="319" y="644" on="0"/>
        <pt x="263" y="575" on="0"/>
        <pt x="220" y="485" on="0"/>
        <pt x="208" y="436" on="1"/>
        <pt x="143" y="173" on="1"/>
        <pt x="140" y="162" on="0"/>
        <pt x="139" y="143" on="0"/>
        <pt x="139" y="136" on="1"/>
        <pt x="139" y="111" on="0"/>
        <pt x="153" y="65" on="0"/>
        <pt x="181" y="30" on="0"/>
        <pt x="223" y="10" on="0"/>
        <pt x="250" y="10" on="1"/>
        <pt x="276" y="10" on="0"/>
        <pt x="329" y="27" on="0"/>
        <pt x="378" y="59" on="0"/>
        <pt x="418" y="104" on="0"/>
        <pt x="430" y="132" on="1"/>
        <pt x="444" y="164" on="0"/>
        <pt x="465" y="236" on="0"/>
        <pt x="465" y="280" on="1"/>
        <pt x="465" y="318" on="0"/>
        <pt x="443" y="370" on="0"/>
        <pt x="419" y="390" on="1"/>
        <pt x="397" y="384" on="0"/>
        <pt x="356" y="377" on="0"/>
        <pt x="334" y="377" on="1"/>
        <pt x="325" y="377" on="0"/>
        <pt x="304" y="378" on="0"/>
        <pt x="286" y="383" on="0"/>
        <pt x="274" y="393" on="0"/>
        <pt x="274" y="401" on="1"/>
        <pt x="274" y="412" on="0"/>
        <pt x="290" y="424" on="0"/>
        <pt x="312" y="430" on="0"/>
        <pt x="337" y="431" on="0"/>
        <pt x="347" y="431" on="1"/>
        <pt x="366" y="431" on="0"/>
        <pt x="404" y="426" on="0"/>
        <pt x="422" y="419" on="1"/>
        <pt x="446" y="433" on="0"/>
        <pt x="481" y="475" on="0"/>
        <pt x="504" y="522" on="0"/>
        <pt x="514" y="570" on="0"/>
      </contour>
    </TTGlyph>
    <TTGlyph name="c" xMin="40" yMin="-10" xMax="418" yMax="441">
      <contour>
        <pt x="391" y="376" on="1"/>
        <pt x="384" y="392" on="0"/>
        <pt x="358" y="410" on="0"/>
        <pt x="331" y="419" on="0"/>
        <pt x="308" y="421" on="0"/>
        <pt x="303" y="421" on="1"/>
        <pt x="279" y="421" on="0"/>
        <pt x="236" y="403" on="0"/>
        <pt x="199" y="374" on="0"/>
        <pt x="170" y="338" on="0"/>
        <pt x="160" y="320" on="1"/>
        <pt x="147" y="295" on="0"/>
        <pt x="127" y="235" on="0"/>
        <pt x="113" y="180" on="0"/>
        <pt x="107" y="133" on="0"/>
        <pt x="107" y="120" on="1"/>
        <pt x="107" y="101" on="0"/>
        <pt x="116" y="62" on="0"/>
        <pt x="137" y="30" on="0"/>
        <pt x="172" y="10" on="0"/>
        <pt x="198" y="10" on="1"/>
        <pt x="212" y="10" on="0"/>
        <pt x="259" y="17" on="0"/>
        <pt x="314" y="39" on="0"/>
        <pt x="371" y="78" on="0"/>
        <pt x="395" y="110" on="1"/>
        <pt x="402" y="117" on="0"/>
        <pt x="406" y="120" on="0"/>
        <pt x="408" y="120" on="1"/>
        <pt x="411" y="120" on="0"/>
        <pt x="418" y="114" on="0"/>
        <pt x="418" y="109" on="1"/>
        <pt x="418" y="104" on="0"/>
        <pt x="387" y="66" on="0"/>
        <pt x="329" y="24" on="0"/>
        <pt x="247" y="-10" on="0"/>
        <pt x="196" y="-10" on="1"/>
        <pt x="158" y="-10" on="0"/>
        <pt x="99" y="17" on="0"/>
        <pt x="60" y="63" on="0"/>
        <pt x="40" y="123" on="0"/>
        <pt x="40" y="156" on="1"/>
        <pt x="40" y="209" on="0"/>
        <pt x="85" y="312" on="0"/>
        <pt x="159" y="392" on="0"/>
        <pt x="253" y="441" on="0"/>
        <pt x="302" y="441" on="1"/>
        <pt x="354" y="441" on="0"/>
        <pt x="417" y="392" on="0"/>
        <pt x="417" y="356" on="1"/>
        <pt x="417" y="326" on="0"/>
        <pt x="384" y="296" on="0"/>
        <pt x="366" y="296" on="1"/>
        <pt x="352" y="296" on="0"/>
        <pt x="332" y="313" on="0"/>
        <pt x="332" y="328" on="1"/>
        <pt x="332" y="340" on="0"/>
        <pt x="344" y="360" on="0"/>
        <pt x="349" y="364" on="1"/>
        <pt x="360" y="373" on="0"/>
        <pt x="377" y="376" on="0"/>
      </contour>
    </TTGlyph>
    <TTGlyph name="chi" xMin="31" yMin="-204" xMax="582" yMax="441">
      <contour>
        <pt x="556" y="419" on="1"/>
        <pt x="564" y="427" on="0"/>
        <pt x="570" y="430" on="0"/>
        <pt x="572" y="430" on="1"/>
        <pt x="582" y="430" on="0"/>
        <pt x="582" y="420" on="1"/>
        <pt x="582" y="417" on="0"/>
        <pt x="579" y="413" on="0"/>
        <pt x="573" y="406" on="1"/>
        <pt x="336" y="136" on="1"/>
        <pt x="349" y="89" on="0"/>
        <pt x="382" y="-22" on="0"/>
        <pt x="402" y="-73" on="1"/>
        <pt x="419" y="-115" on="0"/>
        <pt x="442" y="-160" on="0"/>
        <pt x="458" y="-181" on="0"/>
        <pt x="470" y="-184" on="0"/>
        <pt x="475" y="-184" on="1"/>
        <pt x="487" y="-184" on="0"/>
        <pt x="520" y="-163" on="0"/>
        <pt x="528" y="-142" on="1"/>
        <pt x="530" y="-136" on="0"/>
        <pt x="534" y="-130" on="0"/>
        <pt x="540" y="-130" on="1"/>
        <pt x="544" y="-130" on="0"/>
        <pt x="551" y="-134" on="0"/>
        <pt x="551" y="-139" on="1"/>
        <pt x="551" y="-144" on="0"/>
        <pt x="541" y="-166" on="0"/>
        <pt x="521" y="-188" on="0"/>
        <pt x="489" y="-204" on="0"/>
        <pt x="468" y="-204" on="1"/>
        <pt x="436" y="-204" on="0"/>
        <pt x="395" y="-188" on="0"/>
        <pt x="368" y="-162" on="0"/>
        <pt x="352" y="-131" on="0"/>
        <pt x="346" y="-117" on="1"/>
        <pt x="340" y="-103" on="0"/>
        <pt x="333" y="-83" on="0"/>
        <pt x="321" y="-46" on="0"/>
        <pt x="300" y="18" on="0"/>
        <pt x="282" y="76" on="1"/>
        <pt x="166" y="-56" on="1"/>
        <pt x="156" y="-67" on="0"/>
        <pt x="125" y="-103" on="0"/>
        <pt x="92" y="-142" on="0"/>
        <pt x="61" y="-178" on="0"/>
        <pt x="50" y="-188" on="1"/>
        <pt x="45" y="-193" on="0"/>
        <pt x="40" y="-193" on="1"/>
        <pt x="37" y="-193" on="0"/>
        <pt x="31" y="-189" on="0"/>
        <pt x="31" y="-183" on="1"/>
        <pt x="31" y="-182" on="0"/>
        <pt x="33" y="-175" on="0"/>
        <pt x="40" y="-167" on="1"/>
        <pt x="276" y="101" on="1"/>
        <pt x="266" y="137" on="0"/>
        <pt x="250" y="192" on="0"/>
        <pt x="236" y="237" on="0"/>
        <pt x="222" y="278" on="0"/>
        <pt x="213" y="301" on="1"/>
        <pt x="206" y="319" on="0"/>
        <pt x="189" y="361" on="0"/>
        <pt x="170" y="397" on="0"/>
        <pt x="149" y="421" on="0"/>
        <pt x="138" y="421" on="1"/>
        <pt x="135" y="421" on="0"/>
        <pt x="121" y="418" on="0"/>
        <pt x="105" y="408" on="0"/>
        <pt x="89" y="391" on="0"/>
        <pt x="83" y="376" on="1"/>
        <pt x="82" y="373" on="0"/>
        <pt x="78" y="367" on="0"/>
        <pt x="72" y="367" on="1"/>
        <pt x="61" y="367" on="0"/>
        <pt x="61" y="376" on="1"/>
        <pt x="61" y="381" on="0"/>
        <pt x="71" y="402" on="0"/>
        <pt x="92" y="424" on="0"/>
        <pt x="123" y="441" on="0"/>
        <pt x="144" y="441" on="1"/>
        <pt x="170" y="441" on="0"/>
        <pt x="217" y="425" on="0"/>
        <pt x="231" y="413" on="1"/>
        <pt x="236" y="408" on="0"/>
        <pt x="245" y="397" on="0"/>
        <pt x="257" y="376" on="0"/>
        <pt x="272" y="338" on="0"/>
        <pt x="284" y="306" on="1"/>
        <pt x="293" y="280" on="0"/>
        <pt x="303" y="251" on="0"/>
        <pt x="310" y="226" on="0"/>
        <pt x="320" y="192" on="0"/>
        <pt x="330" y="161" on="1"/>
      </contour>
    </TTGlyph>
    <TTGlyph name="comma" xMin="87" yMin="-193" xMax="195" yMax="97">
      <contour>
        <pt x="195" y="-4" on="1"/>
        <pt x="195" y="-47" on="0"/>
        <pt x="171" y="-117" on="0"/>
        <pt x="140" y="-166" on="0"/>
        <pt x="113" y="-193" on="0"/>
        <pt x="110" y="-193" on="1"/>
        <pt x="100" y="-193" on="0"/>
        <pt x="100" y="-183" on="1"/>
        <pt x="100" y="-181" on="0"/>
        <pt x="103" y="-176" on="0"/>
        <pt x="111" y="-167" on="1"/>
        <pt x="133" y="-143" on="0"/>
        <pt x="158" y="-95" on="0"/>
        <pt x="171" y="-52" on="0"/>
        <pt x="175" y="-16" on="0"/>
        <pt x="175" y="-4" on="1"/>
        <pt x="175" y="0" on="0"/>
        <pt x="175" y="15" on="0"/>
        <pt x="173" y="15" on="1"/>
        <pt x="171" y="15" on="0"/>
        <pt x="169" y="13" on="1"/>
        <pt x="156" y="0" on="0"/>
        <pt x="136" y="0" on="1"/>
        <pt x="110" y="0" on="0"/>
        <pt x="87" y="32" on="0"/>
        <pt x="87" y="49" on="1"/>
        <pt x="87" y="66" on="0"/>
        <pt x="111" y="97" on="0"/>
        <pt x="135" y="97" on="1"/>
        <pt x="166" y="97" on="0"/>
        <pt x="195" y="40" on="0"/>
      </contour>
    </TTGlyph>
    <TTGlyph name="d" xMin="40" yMin="-10" xMax="506" yMax="694">
      <contour>
        <pt x="362" y="109" on="1"/>
        <pt x="357" y="88" on="0"/>
        <pt x="355" y="59" on="0"/>
        <pt x="355" y="56" on="1"/>
        <pt x="355" y="41" on="0"/>
        <pt x="364" y="10" on="0"/>
        <pt x="386" y="10" on="1"/>
        <pt x="401" y="10" on="0"/>
        <pt x="424" y="32" on="0"/>
        <pt x="442" y="66" on="0"/>
        <pt x="455" y="110" on="0"/>
        <pt x="461" y="132" on="1"/>
        <pt x="464" y="143" on="0"/>
        <pt x="468" y="152" on="0"/>
        <pt x="475" y="152" on="1"/>
        <pt x="485" y="152" on="0"/>
        <pt x="485" y="143" on="1"/>
        <pt x="485" y="142" on="0"/>
        <pt x="480" y="120" on="0"/>
        <pt x="472" y="90" on="0"/>
        <pt x="461" y="57" on="0"/>
        <pt x="455" y="44" on="1"/>
        <pt x="428" y="-10" on="0"/>
        <pt x="383" y="-10" on="1"/>
        <pt x="372" y="-10" on="0"/>
        <pt x="345" y="-3" on="0"/>
        <pt x="319" y="15" on="0"/>
        <pt x="300" y="44" on="0"/>
        <pt x="296" y="66" on="1"/>
        <pt x="286" y="54" on="0"/>
        <pt x="258" y="27" on="0"/>
        <pt x="225" y="4" on="0"/>
        <pt x="187" y="-10" on="0"/>
        <pt x="166" y="-10" on="1"/>
        <pt x="141" y="-10" on="0"/>
        <pt x="95" y="11" on="0"/>
        <pt x="60" y="52" on="0"/>
        <pt x="40" y="110" on="0"/>
        <pt x="40" y="147" on="1"/>
        <pt x="40" y="203" on="0"/>
        <pt x="82" y="308" on="0"/>
        <pt x="149" y="391" on="0"/>
        <pt x="233" y="441" on="0"/>
        <pt x="275" y="441" on="1"/>
        <pt x="295" y="441" on="0"/>
        <pt x="324" y="428" on="0"/>
        <pt x="346" y="408" on="0"/>
        <pt x="361" y="385" on="0"/>
        <pt x="365" y="375" on="1"/>
        <pt x="426" y="618" on="1"/>
        <pt x="427" y="620" on="0"/>
        <pt x="429" y="630" on="0"/>
        <pt x="429" y="635" on="1"/>
        <pt x="429" y="639" on="0"/>
        <pt x="427" y="646" on="0"/>
        <pt x="418" y="651" on="0"/>
        <pt x="397" y="654" on="0"/>
        <pt x="379" y="654" on="1"/>
        <pt x="368" y="654" on="0"/>
        <pt x="357" y="656" on="0"/>
        <pt x="357" y="664" on="1"/>
        <pt x="357" y="678" on="0"/>
        <pt x="370" y="683" on="0"/>
        <pt x="389" y="685" on="1"/>
        <pt x="403" y="686" on="0"/>
        <pt x="426" y="688" on="0"/>
        <pt x="439" y="689" on="1"/>
        <pt x="441" y="689" on="0"/>
        <pt x="458" y="691" on="0"/>
        <pt x="478" y="693" on="0"/>
        <pt x="494" y="694" on="0"/>
        <pt x="494" y="694" on="1"/>
        <pt x="496" y="694" on="0"/>
        <pt x="506" y="692" on="0"/>
        <pt x="506" y="684" on="1"/>
        <pt x="506" y="680" on="0"/>
        <pt x="504" y="672" on="0"/>
        <pt x="503" y="669" on="1"/>
      </contour>
      <contour>
        <pt x="350" y="315" on="1"/>
        <pt x="351" y="317" on="0"/>
        <pt x="354" y="330" on="0"/>
        <pt x="354" y="331" on="1"/>
        <pt x="354" y="334" on="0"/>
        <pt x="348" y="363" on="0"/>
        <pt x="331" y="395" on="0"/>
        <pt x="300" y="421" on="0"/>
        <pt x="275" y="421" on="1"/>
        <pt x="246" y="421" on="0"/>
        <pt x="181" y="368" on="0"/>
        <pt x="155" y="315" on="1"/>
        <pt x="148" y="299" on="0"/>
        <pt x="130" y="245" on="0"/>
        <pt x="115" y="185" on="0"/>
        <pt x="105" y="127" on="0"/>
        <pt x="105" y="106" on="1"/>
        <pt x="105" y="61" on="0"/>
        <pt x="138" y="10" on="0"/>
        <pt x="169" y="10" on="1"/>
        <pt x="189" y="10" on="0"/>
        <pt x="231" y="30" on="0"/>
        <pt x="268" y="61" on="0"/>
        <pt x="295" y="100" on="0"/>
        <pt x="301" y="119" on="1"/>
      </contour>
    </TTGlyph>
    <TTGlyph name="delta" xMin="40" yMin="-12" xMax="444" yMax="710">
      <contour>
        <pt x="260" y="436" on="1"/>
        <pt x="234" y="486" on="0"/>
        <pt x="201" y="571" on="0"/>
        <pt x="201" y="608" on="1"/>
        <pt x="201" y="646" on="0"/>
        <pt x="232" y="688" on="0"/>
        <pt x="272" y="707" on="0"/>
        <pt x="310" y="710" on="0"/>
        <pt x="316" y="710" on="1"/>
        <pt x="329" y="710" on="0"/>
        <pt x="359" y="708" on="0"/>
        <pt x="394" y="700" on="1"/>
        <pt x="420" y="694" on="0"/>
        <pt x="444" y="684" on="0"/>
        <pt x="444" y="670" on="1"/>
        <pt x="444" y="658" on="0"/>
        <pt x="424" y="633" on="0"/>
        <pt x="408" y="633" on="1"/>
        <pt x="398" y="633" on="0"/>
        <pt x="370" y="647" on="0"/>
        <pt x="363" y="652" on="1"/>
        <pt x="340" y="665" on="0"/>
        <pt x="306" y="680" on="0"/>
        <pt x="283" y="680" on="1"/>
        <pt x="267" y="680" on="0"/>
        <pt x="245" y="670" on="0"/>
        <pt x="231" y="656" on="0"/>
        <pt x="226" y="639" on="0"/>
        <pt x="226" y="633" on="1"/>
        <pt x="226" y="615" on="0"/>
        <pt x="246" y="570" on="0"/>
        <pt x="275" y="523" on="0"/>
        <pt x="309" y="479" on="0"/>
        <pt x="323" y="461" on="1"/>
        <pt x="332" y="449" on="0"/>
        <pt x="356" y="415" on="0"/>
        <pt x="376" y="372" on="0"/>
        <pt x="390" y="317" on="0"/>
        <pt x="390" y="283" on="1"/>
        <pt x="390" y="233" on="0"/>
        <pt x="361" y="128" on="0"/>
        <pt x="309" y="43" on="0"/>
        <pt x="236" y="-12" on="0"/>
        <pt x="192" y="-12" on="1"/>
        <pt x="162" y="-12" on="0"/>
        <pt x="107" y="10" on="0"/>
        <pt x="65" y="53" on="0"/>
        <pt x="40" y="115" on="0"/>
        <pt x="40" y="155" on="1"/>
        <pt x="40" y="199" on="0"/>
        <pt x="73" y="289" on="0"/>
        <pt x="131" y="367" on="0"/>
        <pt x="212" y="424" on="0"/>
      </contour>
      <contour>
        <pt x="271" y="417" on="1"/>
        <pt x="237" y="408" on="0"/>
        <pt x="185" y="367" on="0"/>
        <pt x="146" y="313" on="0"/>
        <pt x="121" y="252" on="0"/>
        <pt x="105" y="194" on="0"/>
        <pt x="98" y="143" on="0"/>
        <pt x="98" y="127" on="1"/>
        <pt x="98" y="92" on="0"/>
        <pt x="117" y="46" on="0"/>
        <pt x="145" y="19" on="0"/>
        <pt x="178" y="8" on="0"/>
        <pt x="193" y="8" on="1"/>
        <pt x="226" y="8" on="0"/>
        <pt x="276" y="60" on="0"/>
        <pt x="308" y="133" on="0"/>
        <pt x="324" y="214" on="0"/>
        <pt x="324" y="243" on="1"/>
        <pt x="324" y="267" on="0"/>
        <pt x="318" y="306" on="0"/>
        <pt x="305" y="344" on="0"/>
        <pt x="285" y="387" on="0"/>
      </contour>
    </TTGlyph>
    <TTGlyph name="dotlessi" xMin="27" yMin="-10" xMax="283" yMax="441">
      <contour>
        <pt x="283" y="143" on="1"/>
        <pt x="283" y="140" on="0"/>
        <pt x="269" y="92" on="0"/>
        <pt x="238" y="36" on="0"/>
        <pt x="190" y="-10" on="0"/>
        <pt x="155" y="-10" on="1"/>
        <pt x="119" y="-10" on="0"/>
        <pt x="76" y="37" on="0"/>
        <pt x="76" y="71" on="1"/>
        <pt x="76" y="85" on="0"/>
        <pt x="83" y="109" on="0"/>
        <pt x="88" y="121" on="1"/>
        <pt x="158" y="307" on="1"/>
        <pt x="164" y="324" on="0"/>
        <pt x="179" y="368" on="0"/>
        <pt x="179" y="388" on="1"/>
        <pt x="179" y="412" on="0"/>
        <pt x="160" y="421" on="0"/>
        <pt x="153" y="421" on="1"/>
        <pt x="124" y="421" on="0"/>
        <pt x="70" y="360" on="0"/>
        <pt x="52" y="297" on="1"/>
        <pt x="49" y="286" on="0"/>
        <pt x="45" y="279" on="0"/>
        <pt x="38" y="279" on="1"/>
        <pt x="33" y="279" on="0"/>
        <pt x="27" y="285" on="0"/>
        <pt x="27" y="288" on="1"/>
        <pt x="27" y="290" on="0"/>
        <pt x="33" y="314" on="0"/>
        <pt x="47" y="348" on="0"/>
        <pt x="67" y="387" on="0"/>
        <pt x="96" y="419" on="0"/>
        <pt x="133" y="441" on="0"/>
        <pt x="156" y="441" on="1"/>
        <pt x="193" y="441" on="0"/>
        <pt x="235" y="393" on="0"/>
        <pt x="235" y="361" on="1"/>
        <pt x="235" y="347" on="0"/>
        <pt x="227" y="322" on="0"/>
        <pt x="225" y="316" on="1"/>
        <pt x="155" y="130" on="1"/>
        <pt x="147" y="107" on="0"/>
        <pt x="132" y="63" on="0"/>
        <pt x="132" y="43" on="1"/>
        <pt x="132" y="20" on="0"/>
        <pt x="149" y="10" on="0"/>
        <pt x="158" y="10" on="1"/>
        <pt x="183" y="10" on="0"/>
        <pt x="239" y="64" on="0"/>
        <pt x="258" y="132" on="1"/>
        <pt x="262" y="145" on="0"/>
        <pt x="266" y="152" on="0"/>
        <pt x="273" y="152" on="1"/>
        <pt x="283" y="152" on="0"/>
      </contour>
    </TTGlyph>
    <TTGlyph name="e" xMin="45" yMin="-10" xMax="418" yMax="441">
      <contour>
        <pt x="126" y="232" on="1"/>
        <pt x="115" y="184" on="0"/>
        <pt x="111" y="140" on="0"/>
        <pt x="111" y="129" on="1"/>
        <pt x="111" y="73" on="0"/>
        <pt x="155" y="10" on="0"/>
        <pt x="198" y="10" on="1"/>
        <pt x="212" y="10" on="0"/>
        <pt x="259" y="17" on="0"/>
        <pt x="314" y="39" on="0"/>
        <pt x="371" y="78" on="0"/>
        <pt x="395" y="110" on="1"/>
        <pt x="402" y="117" on="0"/>
        <pt x="406" y="120" on="0"/>
        <pt x="408" y="120" on="1"/>
        <pt x="411" y="120" on="0"/>
        <pt x="418" y="114" on="0"/>
        <pt x="418" y="109" on="1"/>
        <pt x="418" y="104" on="0"/>
        <pt x="387" y="66" on="0"/>
        <pt x="329" y="24" on="0"/>
        <pt x="247" y="-10" on="0"/>
        <pt x="196" y="-10" on="1"/>
        <pt x="162" y="-10" on="0"/>
        <pt x="106" y="16" on="0"/>
        <pt x="67" y="63" on="0"/>
        <pt x="45" y="129" on="0"/>
        <pt x="45" y="168" on="1"/>
        <pt x="45" y="235" on="0"/>
        <pt x="95" y="337" on="0"/>
        <pt x="172" y="406" on="0"/>
        <pt x="262" y="441" on="0"/>
        <pt x="301" y="441" on="1"/>
        <pt x="351" y="441" on="0"/>
        <pt x="405" y="390" on="0"/>
        <pt x="405" y="357" on="1"/>
        <pt x="405" y="350" on="0"/>
        <pt x="400" y="324" on="0"/>
        <pt x="384" y="293" on="0"/>
        <pt x="351" y="263" on="0"/>
        <pt x="322" y="252" on="1"/>
        <pt x="304" y="245" on="0"/>
        <pt x="262" y="237" on="0"/>
        <pt x="223" y="233" on="0"/>
        <pt x="189" y="232" on="0"/>
        <pt x="179" y="232" on="1"/>
      </contour>
      <contour>
        <pt x="173" y="252" on="1"/>
        <pt x="184" y="252" on="0"/>
        <pt x="222" y="253" on="0"/>
        <pt x="266" y="259" on="0"/>
        <pt x="313" y="271" on="0"/>
        <pt x="351" y="295" on="0"/>
        <pt x="375" y="331" on="0"/>
        <pt x="375" y="357" on="1"/>
        <pt x="375" y="386" on="0"/>
        <pt x="334" y="421" on="0"/>
        <pt x="301" y="421" on="1"/>
        <pt x="289" y="421" on="0"/>
        <pt x="245" y="412" on="0"/>
        <pt x="195" y="377" on="0"/>
        <pt x="147" y="310" on="0"/>
        <pt x="131" y="252" on="1"/>
      </contour>
    </TTGlyph>
    <TTGlyph name="eightoldstyle" xMin="41" yMin="-21" xMax="448" yMax="665">
      <contour>
        <pt x="275" y="373" on="1"/>
        <pt x="320" y="397" on="0"/>
        <pt x="381" y="470" on="0"/>
        <pt x="381" y="517" on="1"/>
        <pt x="381" y="544" on="0"/>
        <pt x="359" y="590" on="0"/>
        <pt x="321" y="623" on="0"/>
        <pt x="271" y="641" on="0"/>
        <pt x="244" y="641" on="1"/>
        <pt x="219" y="641" on="0"/>
        <pt x="170" y="626" on="0"/>
        <pt x="132" y="599" on="0"/>
        <pt x="108" y="559" on="0"/>
        <pt x="108" y="534" on="1"/>
        <pt x="108" y="515" on="0"/>
        <pt x="120" y="487" on="0"/>
        <pt x="139" y="465" on="0"/>
        <pt x="161" y="448" on="0"/>
        <pt x="170" y="442" on="1"/>
        <pt x="179" y="436" on="0"/>
        <pt x="208" y="418" on="0"/>
        <pt x="238" y="398" on="0"/>
        <pt x="266" y="379" on="0"/>
      </contour>
      <contour>
        <pt x="349" y="325" on="1"/>
        <pt x="360" y="318" on="0"/>
        <pt x="394" y="292" on="0"/>
        <pt x="426" y="253" on="0"/>
        <pt x="448" y="200" on="0"/>
        <pt x="448" y="164" on="1"/>
        <pt x="448" y="125" on="0"/>
        <pt x="416" y="58" on="0"/>
        <pt x="360" y="8" on="0"/>
        <pt x="286" y="-21" on="0"/>
        <pt x="244" y="-21" on="1"/>
        <pt x="205" y="-21" on="0"/>
        <pt x="132" y="4" on="0"/>
        <pt x="75" y="49" on="0"/>
        <pt x="41" y="112" on="0"/>
        <pt x="41" y="151" on="1"/>
        <pt x="41" y="188" on="0"/>
        <pt x="70" y="246" on="0"/>
        <pt x="113" y="292" on="0"/>
        <pt x="166" y="326" on="0"/>
        <pt x="190" y="338" on="1"/>
        <pt x="183" y="343" on="0"/>
        <pt x="155" y="361" on="0"/>
        <pt x="147" y="366" on="1"/>
        <pt x="121" y="383" on="0"/>
        <pt x="90" y="420" on="0"/>
        <pt x="73" y="457" on="0"/>
        <pt x="68" y="490" on="0"/>
        <pt x="68" y="502" on="1"/>
        <pt x="68" y="536" on="0"/>
        <pt x="96" y="596" on="0"/>
        <pt x="144" y="640" on="0"/>
        <pt x="209" y="665" on="0"/>
        <pt x="245" y="665" on="1"/>
        <pt x="280" y="665" on="0"/>
        <pt x="344" y="643" on="0"/>
        <pt x="392" y="604" on="0"/>
        <pt x="421" y="550" on="0"/>
        <pt x="421" y="518" on="1"/>
        <pt x="421" y="485" on="0"/>
        <pt x="394" y="435" on="0"/>
        <pt x="355" y="396" on="0"/>
        <pt x="312" y="369" on="0"/>
        <pt x="296" y="360" on="1"/>
      </contour>
      <contour>
        <pt x="211" y="324" on="1"/>
        <pt x="174" y="305" on="0"/>
        <pt x="126" y="262" on="0"/>
        <pt x="98" y="217" on="0"/>
        <pt x="86" y="172" on="0"/>
        <pt x="86" y="151" on="1"/>
        <pt x="86" y="119" on="0"/>
        <pt x="112" y="66" on="0"/>
        <pt x="155" y="27" on="0"/>
        <pt x="213" y="6" on="0"/>
        <pt x="245" y="6" on="1"/>
        <pt x="276" y="6" on="0"/>
        <pt x="333" y="25" on="0"/>
        <pt x="377" y="59" on="0"/>
        <pt x="403" y="106" on="0"/>
        <pt x="403" y="135" on="1"/>
        <pt x="403" y="158" on="0"/>
        <pt x="387" y="194" on="0"/>
        <pt x="366" y="220" on="0"/>
        <pt x="344" y="237" on="0"/>
        <pt x="338" y="241" on="1"/>
        <pt x="334" y="243" on="0"/>
        <pt x="308" y="260" on="0"/>
        <pt x="271" y="284" on="0"/>
        <pt x="230" y="312" on="0"/>
      </contour>
    </TTGlyph>
    <TTGlyph name="epsilon" xMin="26" yMin="-21" xMax="422" yMax="452">
      <contour>
        <pt x="139" y="228" on="1"/>
        <pt x="90" y="202" on="0"/>
        <pt x="49" y="135" on="0"/>
        <pt x="49" y="109" on="1"/>
        <pt x="49" y="82" on="0"/>
        <pt x="77" y="49" on="0"/>
        <pt x="119" y="29" on="0"/>
        <pt x="170" y="22" on="0"/>
        <pt x="193" y="22" on="1"/>
        <pt x="238" y="22" on="0"/>
        <pt x="294" y="35" on="0"/>
        <pt x="329" y="54" on="0"/>
        <pt x="345" y="74" on="0"/>
        <pt x="349" y="81" on="1"/>
        <pt x="355" y="90" on="0"/>
        <pt x="360" y="90" on="1"/>
        <pt x="369" y="90" on="0"/>
        <pt x="369" y="81" on="1"/>
        <pt x="369" y="76" on="0"/>
        <pt x="348" y="43" on="0"/>
        <pt x="304" y="7" on="0"/>
        <pt x="234" y="-21" on="0"/>
        <pt x="184" y="-21" on="1"/>
        <pt x="148" y="-21" on="0"/>
        <pt x="90" y="-2" on="0"/>
        <pt x="48" y="32" on="0"/>
        <pt x="26" y="77" on="0"/>
        <pt x="26" y="103" on="1"/>
        <pt x="26" y="140" on="0"/>
        <pt x="74" y="214" on="0"/>
        <pt x="118" y="239" on="1"/>
        <pt x="105" y="248" on="0"/>
        <pt x="77" y="283" on="0"/>
        <pt x="77" y="311" on="1"/>
        <pt x="77" y="339" on="0"/>
        <pt x="114" y="390" on="0"/>
        <pt x="174" y="429" on="0"/>
        <pt x="253" y="452" on="0"/>
        <pt x="295" y="452" on="1"/>
        <pt x="321" y="452" on="0"/>
        <pt x="367" y="440" on="0"/>
        <pt x="402" y="422" on="0"/>
        <pt x="422" y="403" on="0"/>
        <pt x="422" y="396" on="1"/>
        <pt x="422" y="387" on="0"/>
        <pt x="406" y="371" on="0"/>
        <pt x="397" y="371" on="1"/>
        <pt x="392" y="371" on="0"/>
        <pt x="386" y="375" on="0"/>
        <pt x="381" y="378" on="1"/>
        <pt x="349" y="401" on="0"/>
        <pt x="299" y="409" on="0"/>
        <pt x="286" y="409" on="1"/>
        <pt x="253" y="409" on="0"/>
        <pt x="186" y="396" on="0"/>
        <pt x="132" y="371" on="0"/>
        <pt x="99" y="334" on="0"/>
        <pt x="99" y="311" on="1"/>
        <pt x="99" y="294" on="0"/>
        <pt x="119" y="262" on="0"/>
        <pt x="142" y="251" on="1"/>
        <pt x="168" y="262" on="0"/>
        <pt x="213" y="269" on="0"/>
        <pt x="232" y="269" on="1"/>
        <pt x="270" y="269" on="0"/>
        <pt x="302" y="258" on="0"/>
        <pt x="302" y="244" on="1"/>
        <pt x="302" y="233" on="0"/>
        <pt x="285" y="221" on="0"/>
        <pt x="261" y="216" on="0"/>
        <pt x="234" y="215" on="0"/>
        <pt x="224" y="215" on="1"/>
        <pt x="210" y="215" on="0"/>
        <pt x="163" y="218" on="0"/>
      </contour>
      <contour>
        <pt x="170" y="240" on="1"/>
        <pt x="185" y="236" on="0"/>
        <pt x="210" y="235" on="0"/>
        <pt x="224" y="235" on="1"/>
        <pt x="238" y="235" on="0"/>
        <pt x="253" y="235" on="0"/>
        <pt x="264" y="237" on="0"/>
        <pt x="273" y="240" on="0"/>
        <pt x="279" y="243" on="1"/>
        <pt x="267" y="246" on="0"/>
        <pt x="251" y="249" on="0"/>
        <pt x="230" y="249" on="1"/>
        <pt x="225" y="249" on="0"/>
        <pt x="190" y="247" on="0"/>
      </contour>
    </TTGlyph>
    <TTGlyph name="eta" xMin="27" yMin="-215" xMax="483" yMax="441">
      <contour>
        <pt x="360" y="-181" on="1"/>
        <pt x="354" y="-204" on="0"/>
        <pt x="329" y="-215" on="0"/>
        <pt x="322" y="-215" on="1"/>
        <pt x="311" y="-215" on="0"/>
        <pt x="295" y="-201" on="0"/>
        <pt x="295" y="-190" on="1"/>
        <pt x="295" y="-185" on="0"/>
        <pt x="297" y="-177" on="0"/>
        <pt x="298" y="-173" on="1"/>
        <pt x="414" y="287" on="1"/>
        <pt x="418" y="301" on="0"/>
        <pt x="423" y="329" on="0"/>
        <pt x="423" y="351" on="1"/>
        <pt x="423" y="381" on="0"/>
        <pt x="399" y="421" on="0"/>
        <pt x="369" y="421" on="1"/>
        <pt x="340" y="421" on="0"/>
        <pt x="290" y="399" on="0"/>
        <pt x="270" y="381" on="1"/>
        <pt x="256" y="369" on="0"/>
        <pt x="233" y="340" on="0"/>
        <pt x="217" y="314" on="0"/>
        <pt x="207" y="295" on="0"/>
        <pt x="206" y="293" on="1"/>
        <pt x="151" y="71" on="1"/>
        <pt x="149" y="64" on="0"/>
        <pt x="144" y="44" on="0"/>
        <pt x="140" y="26" on="0"/>
        <pt x="136" y="13" on="0"/>
        <pt x="135" y="11" on="1"/>
        <pt x="129" y="0" on="0"/>
        <pt x="110" y="-10" on="0"/>
        <pt x="101" y="-10" on="1"/>
        <pt x="90" y="-10" on="0"/>
        <pt x="75" y="4" on="0"/>
        <pt x="75" y="15" on="1"/>
        <pt x="75" y="17" on="0"/>
        <pt x="79" y="34" on="0"/>
        <pt x="84" y="58" on="0"/>
        <pt x="90" y="83" on="0"/>
        <pt x="93" y="93" on="1"/>
        <pt x="95" y="100" on="0"/>
        <pt x="100" y="122" on="0"/>
        <pt x="106" y="146" on="0"/>
        <pt x="112" y="168" on="0"/>
        <pt x="113" y="175" on="1"/>
        <pt x="141" y="283" on="1"/>
        <pt x="146" y="306" on="0"/>
        <pt x="158" y="358" on="0"/>
        <pt x="158" y="375" on="1"/>
        <pt x="158" y="398" on="0"/>
        <pt x="144" y="421" on="0"/>
        <pt x="127" y="421" on="1"/>
        <pt x="112" y="421" on="0"/>
        <pt x="89" y="401" on="0"/>
        <pt x="72" y="368" on="0"/>
        <pt x="59" y="325" on="0"/>
        <pt x="53" y="303" on="1"/>
        <pt x="48" y="286" on="0"/>
        <pt x="44" y="279" on="0"/>
        <pt x="38" y="279" on="1"/>
        <pt x="33" y="279" on="0"/>
        <pt x="27" y="285" on="0"/>
        <pt x="27" y="288" on="1"/>
        <pt x="27" y="290" on="0"/>
        <pt x="32" y="311" on="0"/>
        <pt x="41" y="342" on="0"/>
        <pt x="52" y="376" on="0"/>
        <pt x="59" y="389" on="1"/>
        <pt x="73" y="418" on="0"/>
        <pt x="108" y="441" on="0"/>
        <pt x="130" y="441" on="1"/>
        <pt x="163" y="441" on="0"/>
        <pt x="216" y="396" on="0"/>
        <pt x="218" y="353" on="1"/>
        <pt x="225" y="362" on="0"/>
        <pt x="250" y="392" on="0"/>
        <pt x="287" y="421" on="0"/>
        <pt x="339" y="441" on="0"/>
        <pt x="372" y="441" on="1"/>
        <pt x="429" y="441" on="0"/>
        <pt x="483" y="381" on="0"/>
        <pt x="483" y="336" on="1"/>
        <pt x="483" y="316" on="0"/>
        <pt x="479" y="292" on="0"/>
        <pt x="475" y="277" on="1"/>
      </contour>
    </TTGlyph>
    <TTGlyph name="f" xMin="51" yMin="-204" xMax="546" yMax="704">
      <contour>
        <pt x="361" y="402" on="1"/>
        <pt x="360" y="395" on="0"/>
        <pt x="351" y="344" on="0"/>
        <pt x="338" y="274" on="0"/>
        <pt x="322" y="192" on="0"/>
        <pt x="307" y="114" on="0"/>
        <pt x="294" y="48" on="0"/>
        <pt x="289" y="29" on="1"/>
        <pt x="286" y="17" on="0"/>
        <pt x="275" y="-28" on="0"/>
        <pt x="258" y="-80" on="0"/>
        <pt x="233" y="-133" on="0"/>
        <pt x="201" y="-176" on="0"/>
        <pt x="160" y="-204" on="0"/>
        <pt x="134" y="-204" on="1"/>
        <pt x="119" y="-204" on="0"/>
        <pt x="90" y="-196" on="0"/>
        <pt x="66" y="-179" on="0"/>
        <pt x="51" y="-155" on="0"/>
        <pt x="51" y="-139" on="1"/>
        <pt x="51" y="-110" on="0"/>
        <pt x="86" y="-84" on="0"/>
        <pt x="101" y="-84" on="1"/>
        <pt x="115" y="-84" on="0"/>
        <pt x="135" y="-101" on="0"/>
        <pt x="135" y="-116" on="1"/>
        <pt x="135" y="-116" on="0"/>
        <pt x="133" y="-131" on="0"/>
        <pt x="124" y="-148" on="0"/>
        <pt x="103" y="-164" on="0"/>
        <pt x="84" y="-165" on="1"/>
        <pt x="91" y="-172" on="0"/>
        <pt x="107" y="-180" on="0"/>
        <pt x="122" y="-183" on="0"/>
        <pt x="133" y="-184" on="0"/>
        <pt x="134" y="-184" on="1"/>
        <pt x="153" y="-184" on="0"/>
        <pt x="178" y="-158" on="0"/>
        <pt x="196" y="-115" on="0"/>
        <pt x="210" y="-57" on="0"/>
        <pt x="216" y="-24" on="1"/>
        <pt x="225" y="16" on="0"/>
        <pt x="247" y="133" on="0"/>
        <pt x="270" y="255" on="0"/>
        <pt x="291" y="367" on="0"/>
        <pt x="298" y="402" on="1"/>
        <pt x="234" y="402" on="1"/>
        <pt x="219" y="402" on="0"/>
        <pt x="208" y="405" on="0"/>
        <pt x="208" y="413" on="1"/>
        <pt x="208" y="427" on="0"/>
        <pt x="223" y="431" on="0"/>
        <pt x="237" y="431" on="1"/>
        <pt x="304" y="431" on="1"/>
        <pt x="313" y="480" on="0"/>
        <pt x="326" y="546" on="0"/>
        <pt x="337" y="590" on="0"/>
        <pt x="348" y="620" on="0"/>
        <pt x="355" y="633" on="1"/>
        <pt x="370" y="662" on="0"/>
        <pt x="428" y="704" on="0"/>
        <pt x="460" y="704" on="1"/>
        <pt x="493" y="704" on="0"/>
        <pt x="546" y="671" on="0"/>
        <pt x="546" y="639" on="1"/>
        <pt x="546" y="610" on="0"/>
        <pt x="511" y="584" on="0"/>
        <pt x="496" y="584" on="1"/>
        <pt x="482" y="584" on="0"/>
        <pt x="462" y="601" on="0"/>
        <pt x="462" y="616" on="1"/>
        <pt x="462" y="629" on="0"/>
        <pt x="484" y="663" on="0"/>
        <pt x="513" y="666" on="1"/>
        <pt x="505" y="673" on="0"/>
        <pt x="477" y="684" on="0"/>
        <pt x="461" y="684" on="1"/>
        <pt x="441" y="684" on="0"/>
        <pt x="413" y="655" on="0"/>
        <pt x="408" y="637" on="1"/>
        <pt x="402" y="613" on="0"/>
        <pt x="381" y="509" on="0"/>
        <pt x="367" y="431" on="1"/>
        <pt x="448" y="431" on="1"/>
        <pt x="462" y="431" on="0"/>
        <pt x="474" y="429" on="0"/>
        <pt x="474" y="421" on="1"/>
        <pt x="474" y="407" on="0"/>
        <pt x="461" y="402" on="0"/>
        <pt x="446" y="402" on="1"/>
      </contour>
    </TTGlyph>
    <TTGlyph name="fiveoldstyle" xMin="49" yMin="-215" xMax="440" yMax="451">
      <contour>
        <pt x="128" y="161" on="1"/>
        <pt x="157" y="190" on="0"/>
        <pt x="225" y="213" on="0"/>
        <pt x="257" y="213" on="1"/>
        <pt x="295" y="213" on="0"/>
        <pt x="361" y="180" on="0"/>
        <pt x="411" y="123" on="0"/>
        <pt x="440" y="46" on="0"/>
        <pt x="440" y="1" on="1"/>
        <pt x="440" y="-45" on="0"/>
        <pt x="406" y="-124" on="0"/>
        <pt x="347" y="-182" on="0"/>
        <pt x="271" y="-215" on="0"/>
        <pt x="229" y="-215" on="1"/>
        <pt x="189" y="-215" on="0"/>
        <pt x="122" y="-184" on="0"/>
        <pt x="75" y="-133" on="0"/>
        <pt x="49" y="-70" on="0"/>
        <pt x="49" y="-37" on="1"/>
        <pt x="49" y="-23" on="0"/>
        <pt x="58" y="-5" on="0"/>
        <pt x="71" y="5" on="0"/>
        <pt x="86" y="9" on="0"/>
        <pt x="92" y="9" on="1"/>
        <pt x="113" y="9" on="0"/>
        <pt x="135" y="-19" on="0"/>
        <pt x="135" y="-34" on="1"/>
        <pt x="135" y="-54" on="0"/>
        <pt x="108" y="-77" on="0"/>
        <pt x="92" y="-77" on="1"/>
        <pt x="89" y="-77" on="0"/>
        <pt x="78" y="-75" on="0"/>
        <pt x="76" y="-74" on="1"/>
        <pt x="90" y="-124" on="0"/>
        <pt x="173" y="-188" on="0"/>
        <pt x="227" y="-188" on="1"/>
        <pt x="264" y="-188" on="0"/>
        <pt x="316" y="-154" on="0"/>
        <pt x="329" y="-136" on="1"/>
        <pt x="350" y="-107" on="0"/>
        <pt x="363" y="-38" on="0"/>
        <pt x="363" y="6" on="1"/>
        <pt x="363" y="44" on="0"/>
        <pt x="356" y="101" on="0"/>
        <pt x="345" y="125" on="1"/>
        <pt x="342" y="132" on="0"/>
        <pt x="329" y="155" on="0"/>
        <pt x="307" y="177" on="0"/>
        <pt x="275" y="193" on="0"/>
        <pt x="254" y="193" on="1"/>
        <pt x="244" y="193" on="0"/>
        <pt x="214" y="189" on="0"/>
        <pt x="180" y="176" on="0"/>
        <pt x="144" y="151" on="0"/>
        <pt x="129" y="130" on="1"/>
        <pt x="121" y="121" on="0"/>
        <pt x="117" y="117" on="0"/>
        <pt x="113" y="117" on="1"/>
        <pt x="104" y="117" on="0"/>
        <pt x="101" y="127" on="0"/>
        <pt x="101" y="143" on="1"/>
        <pt x="101" y="427" on="1"/>
        <pt x="101" y="444" on="0"/>
        <pt x="104" y="451" on="0"/>
        <pt x="109" y="451" on="1"/>
        <pt x="110" y="451" on="0"/>
        <pt x="114" y="450" on="0"/>
        <pt x="121" y="447" on="1"/>
        <pt x="163" y="430" on="0"/>
        <pt x="232" y="421" on="0"/>
        <pt x="251" y="421" on="1"/>
        <pt x="282" y="421" on="0"/>
        <pt x="347" y="433" on="0"/>
        <pt x="381" y="447" on="1"/>
        <pt x="389" y="450" on="0"/>
        <pt x="393" y="451" on="0"/>
        <pt x="394" y="451" on="1"/>
        <pt x="399" y="451" on="0"/>
        <pt x="402" y="445" on="0"/>
        <pt x="402" y="442" on="1"/>
        <pt x="402" y="438" on="0"/>
        <pt x="377" y="408" on="0"/>
        <pt x="329" y="375" on="0"/>
        <pt x="261" y="350" on="0"/>
        <pt x="218" y="350" on="1"/>
        <pt x="202" y="350" on="0"/>
        <pt x="157" y="355" on="0"/>
        <pt x="128" y="365" on="1"/>
      </contour>
    </TTGlyph>
    <TTGlyph name="fouroldstyle" xMin="27" yMin="-194" xMax="462" yMax="462">
      <contour>
        <pt x="360" y="29" on="1"/>
        <pt x="436" y="29" on="1"/>
        <pt x="453" y="29" on="0"/>
        <pt x="462" y="25" on="0"/>
        <pt x="462" y="14" on="1"/>
        <pt x="462" y="3" on="0"/>
        <pt x="453" y="0" on="0"/>
        <pt x="436" y="0" on="1"/>
        <pt x="360" y="0" on="1"/>
        <pt x="360" y="-119" on="1"/>
        <pt x="360" y="-133" on="0"/>
        <pt x="362" y="-151" on="0"/>
        <pt x="375" y="-161" on="0"/>
        <pt x="402" y="-165" on="0"/>
        <pt x="427" y="-165" on="1"/>
        <pt x="446" y="-165" on="0"/>
        <pt x="455" y="-169" on="0"/>
        <pt x="455" y="-180" on="1"/>
        <pt x="455" y="-190" on="0"/>
        <pt x="447" y="-194" on="0"/>
        <pt x="439" y="-194" on="1"/>
        <pt x="425" y="-194" on="0"/>
        <pt x="395" y="-192" on="0"/>
        <pt x="381" y="-192" on="1"/>
        <pt x="266" y="-192" on="1"/>
        <pt x="253" y="-192" on="0"/>
        <pt x="225" y="-194" on="0"/>
        <pt x="212" y="-194" on="1"/>
        <pt x="204" y="-194" on="0"/>
        <pt x="196" y="-190" on="0"/>
        <pt x="196" y="-180" on="1"/>
        <pt x="196" y="-169" on="0"/>
        <pt x="205" y="-165" on="0"/>
        <pt x="220" y="-165" on="1"/>
        <pt x="247" y="-165" on="0"/>
        <pt x="275" y="-162" on="0"/>
        <pt x="289" y="-152" on="0"/>
        <pt x="291" y="-134" on="0"/>
        <pt x="291" y="-119" on="1"/>
        <pt x="291" y="0" on="1"/>
        <pt x="54" y="0" on="1"/>
        <pt x="37" y="0" on="0"/>
        <pt x="27" y="4" on="0"/>
        <pt x="27" y="18" on="1"/>
        <pt x="27" y="26" on="0"/>
        <pt x="29" y="33" on="0"/>
        <pt x="35" y="41" on="1"/>
        <pt x="325" y="449" on="1"/>
        <pt x="331" y="458" on="0"/>
        <pt x="337" y="462" on="0"/>
        <pt x="345" y="462" on="1"/>
        <pt x="356" y="462" on="0"/>
        <pt x="360" y="453" on="0"/>
        <pt x="360" y="436" on="1"/>
      </contour>
      <contour>
        <pt x="296" y="372" on="1"/>
        <pt x="53" y="29" on="1"/>
        <pt x="296" y="29" on="1"/>
      </contour>
    </TTGlyph>
    <TTGlyph name="g" xMin="18" yMin="-204" xMax="467" yMax="441">
      <contour>
        <pt x="388" y="333" on="1"/>
        <pt x="388" y="335" on="0"/>
        <pt x="382" y="363" on="0"/>
        <pt x="365" y="395" on="0"/>
        <pt x="334" y="421" on="0"/>
        <pt x="309" y="421" on="1"/>
        <pt x="277" y="421" on="0"/>
        <pt x="215" y="367" on="0"/>
        <pt x="193" y="325" on="1"/>
        <pt x="185" y="308" on="0"/>
        <pt x="166" y="253" on="0"/>
        <pt x="151" y="193" on="0"/>
        <pt x="141" y="135" on="0"/>
        <pt x="141" y="115" on="1"/>
        <pt x="141" y="63" on="0"/>
        <pt x="180" y="20" on="0"/>
        <pt x="205" y="20" on="1"/>
        <pt x="228" y="20" on="0"/>
        <pt x="288" y="52" on="0"/>
        <pt x="319" y="92" on="1"/>
        <pt x="329" y="103" on="0"/>
        <pt x="335" y="115" on="0"/>
        <pt x="338" y="127" on="1"/>
      </contour>
      <contour>
        <pt x="400" y="375" on="1"/>
        <pt x="402" y="395" on="0"/>
        <pt x="423" y="422" on="0"/>
        <pt x="441" y="422" on="1"/>
        <pt x="452" y="422" on="0"/>
        <pt x="467" y="408" on="0"/>
        <pt x="467" y="397" on="1"/>
        <pt x="467" y="395" on="0"/>
        <pt x="466" y="390" on="0"/>
        <pt x="464" y="381" on="1"/>
        <pt x="353" y="-67" on="1"/>
        <pt x="348" y="-87" on="0"/>
        <pt x="318" y="-135" on="0"/>
        <pt x="266" y="-176" on="0"/>
        <pt x="192" y="-204" on="0"/>
        <pt x="144" y="-204" on="1"/>
        <pt x="80" y="-204" on="0"/>
        <pt x="18" y="-178" on="0"/>
        <pt x="18" y="-147" on="1"/>
        <pt x="18" y="-122" on="0"/>
        <pt x="50" y="-94" on="0"/>
        <pt x="68" y="-94" on="1"/>
        <pt x="85" y="-94" on="0"/>
        <pt x="102" y="-114" on="0"/>
        <pt x="102" y="-126" on="1"/>
        <pt x="102" y="-130" on="0"/>
        <pt x="99" y="-144" on="0"/>
        <pt x="90" y="-158" on="0"/>
        <pt x="74" y="-171" on="0"/>
        <pt x="62" y="-174" on="1"/>
        <pt x="81" y="-180" on="0"/>
        <pt x="119" y="-184" on="0"/>
        <pt x="142" y="-184" on="1"/>
        <pt x="150" y="-184" on="0"/>
        <pt x="172" y="-183" on="0"/>
        <pt x="198" y="-175" on="0"/>
        <pt x="228" y="-158" on="0"/>
        <pt x="243" y="-143" on="1"/>
        <pt x="257" y="-130" on="0"/>
        <pt x="273" y="-106" on="0"/>
        <pt x="285" y="-80" on="0"/>
        <pt x="294" y="-49" on="0"/>
        <pt x="299" y="-28" on="1"/>
        <pt x="321" y="62" on="1"/>
        <pt x="314" y="55" on="0"/>
        <pt x="291" y="33" on="0"/>
        <pt x="260" y="14" on="0"/>
        <pt x="223" y="0" on="0"/>
        <pt x="203" y="0" on="1"/>
        <pt x="179" y="0" on="0"/>
        <pt x="133" y="19" on="0"/>
        <pt x="98" y="58" on="0"/>
        <pt x="76" y="116" on="0"/>
        <pt x="76" y="155" on="1"/>
        <pt x="76" y="211" on="0"/>
        <pt x="118" y="314" on="0"/>
        <pt x="185" y="394" on="0"/>
        <pt x="268" y="441" on="0"/>
        <pt x="309" y="441" on="1"/>
        <pt x="328" y="441" on="0"/>
        <pt x="357" y="429" on="0"/>
        <pt x="380" y="409" on="0"/>
        <pt x="395" y="386" on="0"/>
      </contour>
    </TTGlyph>
    <TTGlyph name="gamma" xMin="19" yMin="-214" xMax="532" yMax="441">
      <contour>
        <pt x="378" y="122" on="1"/>
        <pt x="403" y="188" on="0"/>
        <pt x="435" y="263" on="0"/>
        <pt x="446" y="289" on="1"/>
        <pt x="457" y="315" on="0"/>
        <pt x="480" y="363" on="0"/>
        <pt x="500" y="402" on="0"/>
        <pt x="512" y="426" on="0"/>
        <pt x="513" y="427" on="1"/>
        <pt x="515" y="430" on="0"/>
        <pt x="520" y="431" on="0"/>
        <pt x="522" y="431" on="1"/>
        <pt x="529" y="431" on="0"/>
        <pt x="532" y="424" on="0"/>
        <pt x="532" y="423" on="1"/>
        <pt x="532" y="421" on="0"/>
        <pt x="516" y="389" on="0"/>
        <pt x="511" y="377" on="1"/>
        <pt x="481" y="318" on="0"/>
        <pt x="431" y="202" on="0"/>
        <pt x="395" y="106" on="0"/>
        <pt x="373" y="40" on="0"/>
        <pt x="372" y="31" on="1"/>
        <pt x="371" y="22" on="0"/>
        <pt x="364" y="-21" on="0"/>
        <pt x="353" y="-76" on="0"/>
        <pt x="340" y="-134" on="0"/>
        <pt x="325" y="-183" on="0"/>
        <pt x="310" y="-214" on="0"/>
        <pt x="302" y="-214" on="1"/>
        <pt x="296" y="-214" on="0"/>
        <pt x="291" y="-203" on="0"/>
        <pt x="291" y="-197" on="1"/>
        <pt x="291" y="-187" on="0"/>
        <pt x="302" y="-134" on="0"/>
        <pt x="318" y="-71" on="0"/>
        <pt x="336" y="-6" on="0"/>
        <pt x="343" y="17" on="1"/>
        <pt x="348" y="32" on="0"/>
        <pt x="356" y="74" on="0"/>
        <pt x="356" y="121" on="1"/>
        <pt x="356" y="158" on="0"/>
        <pt x="345" y="247" on="0"/>
        <pt x="312" y="323" on="0"/>
        <pt x="249" y="375" on="0"/>
        <pt x="197" y="375" on="1"/>
        <pt x="171" y="375" on="0"/>
        <pt x="122" y="358" on="0"/>
        <pt x="82" y="328" on="0"/>
        <pt x="51" y="287" on="0"/>
        <pt x="43" y="264" on="1"/>
        <pt x="39" y="254" on="0"/>
        <pt x="36" y="249" on="0"/>
        <pt x="29" y="249" on="1"/>
        <pt x="27" y="249" on="0"/>
        <pt x="19" y="251" on="0"/>
        <pt x="19" y="258" on="1"/>
        <pt x="19" y="268" on="0"/>
        <pt x="44" y="327" on="0"/>
        <pt x="92" y="391" on="0"/>
        <pt x="163" y="441" on="0"/>
        <pt x="209" y="441" on="1"/>
        <pt x="236" y="441" on="0"/>
        <pt x="277" y="423" on="0"/>
        <pt x="307" y="394" on="0"/>
        <pt x="329" y="357" on="0"/>
        <pt x="336" y="338" on="1"/>
        <pt x="350" y="304" on="0"/>
        <pt x="366" y="242" on="0"/>
        <pt x="375" y="187" on="0"/>
        <pt x="377" y="140" on="0"/>
      </contour>
    </TTGlyph>
    <TTGlyph name="greater" xMin="82" yMin="-28" xMax="679" yMax="527">
      <contour>
        <pt x="118" y="-21" on="1"/>
        <pt x="107" y="-26" on="0"/>
        <pt x="103" y="-28" on="0"/>
        <pt x="101" y="-28" on="1"/>
        <pt x="92" y="-28" on="0"/>
        <pt x="82" y="-16" on="0"/>
        <pt x="82" y="-10" on="1"/>
        <pt x="82" y="-5" on="0"/>
        <pt x="87" y="5" on="0"/>
        <pt x="102" y="12" on="1"/>
        <pt x="617" y="250" on="1"/>
        <pt x="103" y="487" on="1"/>
        <pt x="93" y="492" on="0"/>
        <pt x="82" y="500" on="0"/>
        <pt x="82" y="509" on="1"/>
        <pt x="82" y="515" on="0"/>
        <pt x="92" y="527" on="0"/>
        <pt x="101" y="527" on="1"/>
        <pt x="103" y="527" on="0"/>
        <pt x="108" y="525" on="0"/>
        <pt x="118" y="520" on="1"/>
        <pt x="659" y="271" on="1"/>
        <pt x="673" y="265" on="0"/>
        <pt x="679" y="255" on="0"/>
        <pt x="679" y="250" on="1"/>
        <pt x="679" y="245" on="0"/>
        <pt x="673" y="235" on="0"/>
        <pt x="659" y="228" on="1"/>
      </contour>
    </TTGlyph>
    <TTGlyph name="h" xMin="55" yMin="-10" xMax="535" yMax="694">
      <contour>
        <pt x="204" y="362" on="1"/>
        <pt x="266" y="441" on="0"/>
        <pt x="352" y="441" on="1"/>
        <pt x="409" y="441" on="0"/>
        <pt x="463" y="381" on="0"/>
        <pt x="463" y="336" on="1"/>
        <pt x="463" y="314" on="0"/>
        <pt x="448" y="252" on="0"/>
        <pt x="428" y="188" on="0"/>
        <pt x="407" y="130" on="0"/>
        <pt x="400" y="112" on="1"/>
        <pt x="397" y="104" on="0"/>
        <pt x="384" y="63" on="0"/>
        <pt x="384" y="43" on="1"/>
        <pt x="384" y="19" on="0"/>
        <pt x="402" y="10" on="0"/>
        <pt x="410" y="10" on="1"/>
        <pt x="440" y="10" on="0"/>
        <pt x="493" y="72" on="0"/>
        <pt x="510" y="132" on="1"/>
        <pt x="514" y="145" on="0"/>
        <pt x="518" y="152" on="0"/>
        <pt x="525" y="152" on="1"/>
        <pt x="535" y="152" on="0"/>
        <pt x="535" y="143" on="1"/>
        <pt x="535" y="141" on="0"/>
        <pt x="521" y="92" on="0"/>
        <pt x="491" y="36" on="0"/>
        <pt x="442" y="-10" on="0"/>
        <pt x="407" y="-10" on="1"/>
        <pt x="371" y="-10" on="0"/>
        <pt x="328" y="37" on="0"/>
        <pt x="328" y="71" on="1"/>
        <pt x="328" y="85" on="0"/>
        <pt x="335" y="108" on="0"/>
        <pt x="342" y="126" on="1"/>
        <pt x="350" y="149" on="0"/>
        <pt x="371" y="209" on="0"/>
        <pt x="390" y="271" on="0"/>
        <pt x="403" y="330" on="0"/>
        <pt x="403" y="351" on="1"/>
        <pt x="403" y="381" on="0"/>
        <pt x="379" y="421" on="0"/>
        <pt x="349" y="421" on="1"/>
        <pt x="320" y="421" on="0"/>
        <pt x="274" y="401" on="0"/>
        <pt x="239" y="373" on="0"/>
        <pt x="215" y="343" on="0"/>
        <pt x="208" y="332" on="1"/>
        <pt x="201" y="321" on="0"/>
        <pt x="193" y="308" on="0"/>
        <pt x="187" y="294" on="0"/>
        <pt x="182" y="276" on="0"/>
        <pt x="178" y="260" on="1"/>
        <pt x="174" y="243" on="0"/>
        <pt x="166" y="212" on="0"/>
        <pt x="162" y="195" on="1"/>
        <pt x="117" y="14" on="1"/>
        <pt x="113" y="6" on="0"/>
        <pt x="95" y="-10" on="0"/>
        <pt x="82" y="-10" on="1"/>
        <pt x="74" y="-10" on="0"/>
        <pt x="55" y="-1" on="0"/>
        <pt x="55" y="16" on="1"/>
        <pt x="55" y="21" on="0"/>
        <pt x="56" y="28" on="0"/>
        <pt x="59" y="39" on="1"/>
        <pt x="204" y="618" on="1"/>
        <pt x="205" y="620" on="0"/>
        <pt x="207" y="630" on="0"/>
        <pt x="207" y="635" on="1"/>
        <pt x="207" y="639" on="0"/>
        <pt x="205" y="646" on="0"/>
        <pt x="196" y="651" on="0"/>
        <pt x="175" y="654" on="0"/>
        <pt x="157" y="654" on="1"/>
        <pt x="146" y="654" on="0"/>
        <pt x="135" y="656" on="0"/>
        <pt x="135" y="664" on="1"/>
        <pt x="135" y="678" on="0"/>
        <pt x="148" y="683" on="0"/>
        <pt x="167" y="685" on="1"/>
        <pt x="181" y="686" on="0"/>
        <pt x="204" y="688" on="0"/>
        <pt x="217" y="689" on="1"/>
        <pt x="219" y="689" on="0"/>
        <pt x="236" y="691" on="0"/>
        <pt x="256" y="693" on="0"/>
        <pt x="272" y="694" on="0"/>
        <pt x="272" y="694" on="1"/>
        <pt x="274" y="694" on="0"/>
        <pt x="284" y="692" on="0"/>
        <pt x="284" y="684" on="1"/>
        <pt x="284" y="680" on="0"/>
        <pt x="282" y="672" on="0"/>
        <pt x="281" y="669" on="1"/>
      </contour>
    </TTGlyph>
    <TTGlyph name="i" xMin="27" yMin="-10" xMax="283" yMax="657">
      <contour>
        <pt x="283" y="143" on="1"/>
        <pt x="283" y="140" on="0"/>
        <pt x="269" y="92" on="0"/>
        <pt x="238" y="36" on="0"/>
        <pt x="190" y="-10" on="0"/>
        <pt x="155" y="-10" on="1"/>
        <pt x="119" y="-10" on="0"/>
        <pt x="76" y="37" on="0"/>
        <pt x="76" y="71" on="1"/>
        <pt x="76" y="85" on="0"/>
        <pt x="83" y="109" on="0"/>
        <pt x="88" y="121" on="1"/>
        <pt x="158" y="307" on="1"/>
        <pt x="164" y="324" on="0"/>
        <pt x="179" y="368" on="0"/>
        <pt x="179" y="388" on="1"/>
        <pt x="179" y="412" on="0"/>
        <pt x="160" y="421" on="0"/>
        <pt x="153" y="421" on="1"/>
        <pt x="124" y="421" on="0"/>
        <pt x="70" y="360" on="0"/>
        <pt x="52" y="297" on="1"/>
        <pt x="49" y="286" on="0"/>
        <pt x="45" y="279" on="0"/>
        <pt x="38" y="279" on="1"/>
        <pt x="33" y="279" on="0"/>
        <pt x="27" y="285" on="0"/>
        <pt x="27" y="288" on="1"/>
        <pt x="27" y="290" on="0"/>
        <pt x="33" y="314" on="0"/>
        <pt x="47" y="348" on="0"/>
        <pt x="67" y="387" on="0"/>
        <pt x="96" y="419" on="0"/>
        <pt x="133" y="441" on="0"/>
        <pt x="156" y="441" on="1"/>
        <pt x="193" y="441" on="0"/>
        <pt x="235" y="393" on="0"/>
        <pt x="235" y="361" on="1"/>
        <pt x="235" y="347" on="0"/>
        <pt x="227" y="322" on="0"/>
        <pt x="225" y="316" on="1"/>
        <pt x="155" y="130" on="1"/>
        <pt x="147" y="107" on="0"/>
        <pt x="132" y="63" on="0"/>
        <pt x="132" y="43" on="1"/>
        <pt x="132" y="20" on="0"/>
        <pt x="149" y="10" on="0"/>
        <pt x="158" y="10" on="1"/>
        <pt x="183" y="10" on="0"/>
        <pt x="239" y="64" on="0"/>
        <pt x="258" y="132" on="1"/>
        <pt x="262" y="145" on="0"/>
        <pt x="266" y="152" on="0"/>
        <pt x="273" y="152" on="1"/>
        <pt x="283" y="152" on="0"/>
      </contour>
      <contour>
        <pt x="275" y="624" on="1"/>
        <pt x="275" y="607" on="0"/>
        <pt x="245" y="576" on="0"/>
        <pt x="225" y="576" on="1"/>
        <pt x="216" y="576" on="0"/>
        <pt x="192" y="590" on="0"/>
        <pt x="192" y="609" on="1"/>
        <pt x="192" y="629" on="0"/>
        <pt x="224" y="657" on="0"/>
        <pt x="241" y="657" on="1"/>
        <pt x="258" y="657" on="0"/>
        <pt x="275" y="635" on="0"/>
      </contour>
    </TTGlyph>
    <TTGlyph name="iota" xMin="56" yMin="-10" xMax="317" yMax="441">
      <contour>
        <pt x="317" y="143" on="1"/>
        <pt x="317" y="131" on="0"/>
        <pt x="292" y="80" on="0"/>
        <pt x="245" y="29" on="0"/>
        <pt x="179" y="-10" on="0"/>
        <pt x="137" y="-10" on="1"/>
        <pt x="116" y="-10" on="0"/>
        <pt x="85" y="4" on="0"/>
        <pt x="66" y="27" on="0"/>
        <pt x="56" y="56" on="0"/>
        <pt x="56" y="71" on="1"/>
        <pt x="56" y="97" on="0"/>
        <pt x="81" y="153" on="0"/>
        <pt x="88" y="179" on="1"/>
        <pt x="91" y="188" on="0"/>
        <pt x="93" y="197" on="0"/>
        <pt x="96" y="203" on="0"/>
        <pt x="98" y="212" on="0"/>
        <pt x="101" y="222" on="1"/>
        <pt x="103" y="227" on="0"/>
        <pt x="112" y="260" on="0"/>
        <pt x="122" y="297" on="0"/>
        <pt x="131" y="328" on="0"/>
        <pt x="131" y="329" on="1"/>
        <pt x="133" y="336" on="0"/>
        <pt x="139" y="359" on="0"/>
        <pt x="145" y="385" on="0"/>
        <pt x="151" y="408" on="0"/>
        <pt x="154" y="415" on="1"/>
        <pt x="164" y="441" on="0"/>
        <pt x="190" y="441" on="1"/>
        <pt x="200" y="441" on="0"/>
        <pt x="216" y="428" on="0"/>
        <pt x="216" y="416" on="1"/>
        <pt x="216" y="413" on="0"/>
        <pt x="203" y="355" on="0"/>
        <pt x="179" y="268" on="0"/>
        <pt x="147" y="162" on="0"/>
        <pt x="128" y="111" on="1"/>
        <pt x="124" y="100" on="0"/>
        <pt x="112" y="61" on="0"/>
        <pt x="112" y="43" on="1"/>
        <pt x="112" y="20" on="0"/>
        <pt x="130" y="10" on="0"/>
        <pt x="139" y="10" on="1"/>
        <pt x="155" y="10" on="0"/>
        <pt x="198" y="23" on="0"/>
        <pt x="242" y="53" on="0"/>
        <pt x="282" y="103" on="0"/>
        <pt x="294" y="139" on="1"/>
        <pt x="296" y="146" on="0"/>
        <pt x="301" y="152" on="0"/>
        <pt x="307" y="152" on="1"/>
        <pt x="317" y="152" on="0"/>
      </contour>
    </TTGlyph>
    <TTGlyph name="j" xMin="-13" yMin="-204" xMax="391" yMax="657">
      <contour>
        <pt x="257" y="-53" on="1"/>
        <pt x="248" y="-91" on="0"/>
        <pt x="207" y="-147" on="0"/>
        <pt x="155" y="-185" on="0"/>
        <pt x="98" y="-204" on="0"/>
        <pt x="72" y="-204" on="1"/>
        <pt x="57" y="-204" on="0"/>
        <pt x="26" y="-197" on="0"/>
        <pt x="2" y="-183" on="0"/>
        <pt x="-13" y="-161" on="0"/>
        <pt x="-13" y="-146" on="1"/>
        <pt x="-13" y="-123" on="0"/>
        <pt x="17" y="-94" on="0"/>
        <pt x="37" y="-94" on="1"/>
        <pt x="54" y="-94" on="0"/>
        <pt x="71" y="-114" on="0"/>
        <pt x="71" y="-126" on="1"/>
        <pt x="71" y="-144" on="0"/>
        <pt x="46" y="-170" on="0"/>
        <pt x="28" y="-174" on="1"/>
        <pt x="42" y="-182" on="0"/>
        <pt x="69" y="-184" on="0"/>
        <pt x="72" y="-184" on="1"/>
        <pt x="114" y="-184" on="0"/>
        <pt x="179" y="-110" on="0"/>
        <pt x="193" y="-54" on="1"/>
        <pt x="288" y="323" on="1"/>
        <pt x="291" y="337" on="0"/>
        <pt x="295" y="357" on="0"/>
        <pt x="295" y="375" on="1"/>
        <pt x="295" y="401" on="0"/>
        <pt x="279" y="421" on="0"/>
        <pt x="263" y="421" on="1"/>
        <pt x="249" y="421" on="0"/>
        <pt x="216" y="408" on="0"/>
        <pt x="183" y="378" on="0"/>
        <pt x="150" y="329" on="0"/>
        <pt x="135" y="293" on="1"/>
        <pt x="131" y="285" on="0"/>
        <pt x="127" y="279" on="0"/>
        <pt x="121" y="279" on="1"/>
        <pt x="111" y="279" on="0"/>
        <pt x="111" y="288" on="1"/>
        <pt x="111" y="291" on="0"/>
        <pt x="131" y="339" on="0"/>
        <pt x="170" y="395" on="0"/>
        <pt x="228" y="441" on="0"/>
        <pt x="266" y="441" on="1"/>
        <pt x="300" y="441" on="0"/>
        <pt x="354" y="395" on="0"/>
        <pt x="354" y="351" on="1"/>
        <pt x="354" y="348" on="0"/>
        <pt x="353" y="329" on="0"/>
        <pt x="350" y="317" on="1"/>
      </contour>
      <contour>
        <pt x="391" y="624" on="1"/>
        <pt x="391" y="604" on="0"/>
        <pt x="359" y="576" on="0"/>
        <pt x="342" y="576" on="1"/>
        <pt x="325" y="576" on="0"/>
        <pt x="308" y="598" on="0"/>
        <pt x="308" y="609" on="1"/>
        <pt x="308" y="626" on="0"/>
        <pt x="338" y="657" on="0"/>
        <pt x="358" y="657" on="1"/>
        <pt x="367" y="657" on="0"/>
        <pt x="391" y="643" on="0"/>
      </contour>
    </TTGlyph>
</ttFont>
